<?xml version="1.0" encoding="UTF-8" standalone="no"?>
<!DOCTYPE svg PUBLIC "-//W3C//DTD SVG 1.1//EN"
 "http://www.w3.org/Graphics/SVG/1.1/DTD/svg11.dtd">
<!-- Generated by graphviz version 14.1.5 (0)
 -->
<!-- Title: G Pages: 1 -->
<svg width="544pt" height="597pt"
 viewBox="0.00 0.00 544.00 597.00" xmlns="http://www.w3.org/2000/svg" xmlns:xlink="http://www.w3.org/1999/xlink">
<g id="graph0" class="graph" transform="scale(1 1) rotate(0) translate(4 593)">
<title>G</title>
<polygon fill="#0f172a" stroke="none" points="-4,4 -4,-593 539.71,-593 539.71,4 -4,4"/>
<g id="clust1" class="cluster">
<title>cluster_svc</title>
<path fill="#475569" stroke="#475569" d="M20,-37C20,-37 180.25,-37 180.25,-37 186.25,-37 192.25,-43 192.25,-49 192.25,-49 192.25,-276 192.25,-276 192.25,-282 186.25,-288 180.25,-288 180.25,-288 20,-288 20,-288 14,-288 8,-282 8,-276 8,-276 8,-49 8,-49 8,-43 14,-37 20,-37"/>
<text xml:space="preserve" text-anchor="start" x="59.62" y="-273.6" font-family="Times,serif" font-weight="bold" font-size="12.00" fill="#c4b5fd"> &#160;Services &#160;</text>
</g>
<g id="clust3" class="cluster">
<title>cluster_core</title>
<path fill="#475569" stroke="#475569" d="M332.5,-8C332.5,-8 487.5,-8 487.5,-8 493.5,-8 499.5,-14 499.5,-20 499.5,-20 499.5,-569 499.5,-569 499.5,-575 493.5,-581 487.5,-581 487.5,-581 332.5,-581 332.5,-581 326.5,-581 320.5,-575 320.5,-569 320.5,-569 320.5,-20 320.5,-20 320.5,-14 326.5,-8 332.5,-8"/>
<text xml:space="preserve" text-anchor="start" x="381.5" y="-566.6" font-family="Times,serif" font-weight="bold" font-size="12.00" fill="#fcd34d"> &#160;Core &#160;</text>
</g>
<!-- BAD -->
<g id="node1" class="node">
<title>BAD</title>
<polygon fill="#334155" stroke="none" points="16,-131.5 16,-256.5 184.25,-256.5 184.25,-131.5 16,-131.5"/>
<polygon fill="#334155" stroke="none" points="16,-226.75 16,-256.5 184.25,-256.5 184.25,-226.75 16,-226.75"/>
<text xml:space="preserve" text-anchor="start" x="33.38" y="-240.05" font-family="Inter, Segoe UI, sans-serif" font-weight="bold" font-size="11.00" fill="#f1f5f9">ButtonActionDispatcher</text>
<polygon fill="#3f3a5e" stroke="none" points="16,-195 16,-226.75 184.25,-226.75 184.25,-195 16,-195"/>
<polygon fill="none" stroke="#475569" points="16,-195 16,-226.75 184.25,-226.75 184.25,-195 16,-195"/>
<text xml:space="preserve" text-anchor="start" x="24" y="-209.3" font-family="Inter, Segoe UI, sans-serif" font-size="9.00" fill="#c4b5fd">slot &#160;</text>
<text xml:space="preserve" text-anchor="start" x="43.5" y="-209.3" font-family="Inter, Segoe UI, sans-serif" font-size="11.00" fill="#e2e8f0">onDivertedButtonPressed</text>
<polygon fill="#3f3a5e" stroke="none" points="16,-163.25 16,-195 184.25,-195 184.25,-163.25 16,-163.25"/>
<polygon fill="none" stroke="#475569" points="16,-163.25 16,-195 184.25,-195 184.25,-163.25 16,-163.25"/>
<text xml:space="preserve" text-anchor="start" x="52.5" y="-177.55" font-family="Inter, Segoe UI, sans-serif" font-size="9.00" fill="#c4b5fd">slot &#160;</text>
<text xml:space="preserve" text-anchor="start" x="72" y="-177.55" font-family="Inter, Segoe UI, sans-serif" font-size="11.00" fill="#e2e8f0">onGestureRaw</text>
<polygon fill="#3f3a5e" stroke="none" points="16,-131.5 16,-163.25 184.25,-163.25 184.25,-131.5 16,-131.5"/>
<polygon fill="none" stroke="#475569" points="16,-131.5 16,-163.25 184.25,-163.25 184.25,-131.5 16,-131.5"/>
<text xml:space="preserve" text-anchor="start" x="27.38" y="-145.8" font-family="Inter, Segoe UI, sans-serif" font-size="9.00" fill="#c4b5fd">slot &#160;</text>
<text xml:space="preserve" text-anchor="start" x="46.88" y="-145.8" font-family="Inter, Segoe UI, sans-serif" font-size="11.00" fill="#e2e8f0">onThumbWheelRotation</text>
</g>
<!-- AE -->
<g id="node3" class="node">
<title>AE</title>
<polygon fill="#334155" stroke="none" points="347.88,-16.12 347.88,-311.88 472.12,-311.88 472.12,-16.12 347.88,-16.12"/>
<polygon fill="#334155" stroke="none" points="347.88,-280.38 347.88,-311.88 472.12,-311.88 472.12,-280.38 347.88,-280.38"/>
<text xml:space="preserve" text-anchor="start" x="356.75" y="-293.57" font-family="Inter, Segoe UI, sans-serif" font-weight="bold" font-size="14.00" fill="#f1f5f9">ActionExecutor</text>
<polygon fill="#334155" stroke="none" points="347.88,-254.12 347.88,-280.38 472.12,-280.38 472.12,-254.12 347.88,-254.12"/>
<text xml:space="preserve" text-anchor="start" x="387.88" y="-265.88" font-family="Inter, Segoe UI, sans-serif" font-weight="bold" font-size="10.00" fill="#c4b5fd">Methods</text>
<polygon fill="#3f3a5e" stroke="none" points="347.88,-224.38 347.88,-254.12 472.12,-254.12 472.12,-224.38 347.88,-224.38"/>
<polygon fill="none" stroke="#8b5cf6" points="347.88,-224.38 347.88,-254.12 472.12,-254.12 472.12,-224.38 347.88,-224.38"/>
<text xml:space="preserve" text-anchor="start" x="354.88" y="-235.12" font-family="Inter, Segoe UI, sans-serif" font-size="11.00" fill="#e2e8f0">executeAction</text>
<polygon fill="#3f3a5e" stroke="none" points="347.88,-194.62 347.88,-224.38 472.12,-224.38 472.12,-194.62 347.88,-194.62"/>
<polygon fill="none" stroke="#8b5cf6" points="347.88,-194.62 347.88,-224.38 472.12,-224.38 472.12,-194.62 347.88,-194.62"/>
<text xml:space="preserve" text-anchor="start" x="354.88" y="-205.38" font-family="Inter, Segoe UI, sans-serif" font-size="11.00" fill="#e2e8f0">injectKeystroke</text>
<polygon fill="#3f3a5e" stroke="none" points="347.88,-164.88 347.88,-194.62 472.12,-194.62 472.12,-164.88 347.88,-164.88"/>
<polygon fill="none" stroke="#8b5cf6" points="347.88,-164.88 347.88,-194.62 472.12,-194.62 472.12,-164.88 347.88,-164.88"/>
<text xml:space="preserve" text-anchor="start" x="354.88" y="-175.62" font-family="Inter, Segoe UI, sans-serif" font-size="11.00" fill="#e2e8f0">injectCtrlScroll</text>
<polygon fill="#3f3a5e" stroke="none" points="347.88,-135.12 347.88,-164.88 472.12,-164.88 472.12,-135.12 347.88,-135.12"/>
<polygon fill="none" stroke="#8b5cf6" points="347.88,-135.12 347.88,-164.88 472.12,-164.88 472.12,-135.12 347.88,-135.12"/>
<text xml:space="preserve" text-anchor="start" x="354.88" y="-145.88" font-family="Inter, Segoe UI, sans-serif" font-size="11.00" fill="#e2e8f0">injectHorizontalScroll</text>
<polygon fill="#3f3a5e" stroke="none" points="347.88,-105.38 347.88,-135.12 472.12,-135.12 472.12,-105.38 347.88,-105.38"/>
<polygon fill="none" stroke="#8b5cf6" points="347.88,-105.38 347.88,-135.12 472.12,-135.12 472.12,-105.38 347.88,-105.38"/>
<text xml:space="preserve" text-anchor="start" x="354.88" y="-116.12" font-family="Inter, Segoe UI, sans-serif" font-size="11.00" fill="#e2e8f0">executeDBusCall</text>
<polygon fill="#3f3a5e" stroke="none" points="347.88,-75.62 347.88,-105.38 472.12,-105.38 472.12,-75.62 347.88,-75.62"/>
<polygon fill="none" stroke="#8b5cf6" points="347.88,-75.62 347.88,-105.38 472.12,-105.38 472.12,-75.62 347.88,-75.62"/>
<text xml:space="preserve" text-anchor="start" x="354.88" y="-86.38" font-family="Inter, Segoe UI, sans-serif" font-size="11.00" fill="#e2e8f0">launchApp</text>
<polygon fill="#3f3a5e" stroke="none" points="347.88,-45.88 347.88,-75.62 472.12,-75.62 472.12,-45.88 347.88,-45.88"/>
<polygon fill="none" stroke="#8b5cf6" points="347.88,-45.88 347.88,-75.62 472.12,-75.62 472.12,-45.88 347.88,-45.88"/>
<text xml:space="preserve" text-anchor="start" x="354.88" y="-56.62" font-family="Inter, Segoe UI, sans-serif" font-size="11.00" fill="#e2e8f0">setInjector</text>
<polygon fill="#3f3a5e" stroke="none" points="347.88,-16.12 347.88,-45.88 472.12,-45.88 472.12,-16.12 347.88,-16.12"/>
<polygon fill="none" stroke="#8b5cf6" points="347.88,-16.12 347.88,-45.88 472.12,-45.88 472.12,-16.12 347.88,-16.12"/>
<text xml:space="preserve" text-anchor="start" x="354.88" y="-26.88" font-family="Inter, Segoe UI, sans-serif" font-size="11.00" fill="#e2e8f0">gestureDetector</text>
</g>
<!-- BAD&#45;&gt;AE -->
<g id="edge1" class="edge">
<title>BAD:e&#45;&gt;AE:w</title>
<path fill="none" stroke="#c4b5fd" stroke-dasharray="5,2" d="M185.25,-210.88C254.19,-210.88 272.05,-236.23 335.4,-239"/>
<polygon fill="#c4b5fd" stroke="#c4b5fd" points="335.29,-242.5 345.36,-239.22 335.44,-235.5 335.29,-242.5"/>
<text xml:space="preserve" text-anchor="start" x="249.25" y="-227.21" font-family="Inter, Segoe UI, sans-serif" font-size="10.00" fill="#94a3b8">call</text>
</g>
<!-- BAD&#45;&gt;AE -->
<g id="edge2" class="edge">
<title>BAD:e&#45;&gt;AE:w</title>
<path fill="none" stroke="#c4b5fd" stroke-dasharray="5,2" d="M185.25,-179.12C230.35,-179.12 288.71,-52.17 335.78,-33.33"/>
<polygon fill="#c4b5fd" stroke="#c4b5fd" points="336.33,-36.79 345.39,-31.31 334.89,-29.94 336.33,-36.79"/>
</g>
<!-- BAD&#45;&gt;AE -->
<g id="edge3" class="edge">
<title>BAD:e&#45;&gt;AE:w</title>
<path fill="none" stroke="#c4b5fd" stroke-dasharray="5,2" d="M185.25,-147.38C214.43,-147.38 220.67,-156.14 249.25,-162 288.57,-170.06 300.65,-178.15 335.76,-179.54"/>
<polygon fill="#c4b5fd" stroke="#c4b5fd" points="335.3,-183.03 345.36,-179.72 335.43,-176.03 335.3,-183.03"/>
</g>
<!-- BAD&#45;&gt;AE -->
<g id="edge4" class="edge">
<title>BAD:e&#45;&gt;AE:w</title>
<path fill="none" stroke="#c4b5fd" stroke-dasharray="5,2" d="M185.25,-147.38C253.16,-147.38 272.91,-149.72 335.55,-149.98"/>
<polygon fill="#c4b5fd" stroke="#c4b5fd" points="335.35,-153.48 345.36,-150 335.37,-146.48 335.35,-153.48"/>
</g>
<!-- AR -->
<g id="node2" class="node">
<title>AR</title>
<polygon fill="#334155" stroke="none" points="35.88,-45.25 35.88,-106.75 164.38,-106.75 164.38,-45.25 35.88,-45.25"/>
<polygon fill="#334155" stroke="none" points="35.88,-77 35.88,-106.75 164.38,-106.75 164.38,-77 35.88,-77"/>
<text xml:space="preserve" text-anchor="start" x="76.88" y="-90.3" font-family="Inter, Segoe UI, sans-serif" font-weight="bold" font-size="11.00" fill="#f1f5f9">AppRoot</text>
<polygon fill="#3f3a5e" stroke="none" points="35.88,-45.25 35.88,-77 164.38,-77 164.38,-45.25 35.88,-45.25"/>
<polygon fill="none" stroke="#475569" points="35.88,-45.25 35.88,-77 164.38,-77 164.38,-45.25 35.88,-45.25"/>
<text xml:space="preserve" text-anchor="start" x="43.88" y="-59.55" font-family="Inter, Segoe UI, sans-serif" font-size="9.00" fill="#c4b5fd">method &#160;</text>
<text xml:space="preserve" text-anchor="start" x="80.62" y="-59.55" font-family="Inter, Segoe UI, sans-serif" font-size="11.00" fill="#e2e8f0">setInjector (DI)</text>
</g>
<!-- AR&#45;&gt;AE -->
<g id="edge5" class="edge">
<title>AR:e&#45;&gt;AE:w</title>
<path fill="none" stroke="#c4b5fd" stroke-dasharray="5,2" d="M165.38,-61.12C242.1,-61.13 264.09,-60.79 335.48,-60.75"/>
<polygon fill="#c4b5fd" stroke="#c4b5fd" points="335.36,-64.25 345.36,-60.75 335.36,-57.25 335.36,-64.25"/>
</g>
<!-- II -->
<g id="node4" class="node">
<title>II</title>
<polygon fill="#334155" stroke="none" points="328.5,-361.75 328.5,-550.25 491.5,-550.25 491.5,-361.75 328.5,-361.75"/>
<polygon fill="#334155" stroke="none" points="328.5,-520.5 328.5,-550.25 491.5,-550.25 491.5,-520.5 328.5,-520.5"/>
<text xml:space="preserve" text-anchor="start" x="370.25" y="-533.8" font-family="Inter, Segoe UI, sans-serif" font-weight="bold" font-size="11.00" fill="#f1f5f9">IInputInjector</text>
<polygon fill="#3f301e" stroke="none" points="328.5,-488.75 328.5,-520.5 491.5,-520.5 491.5,-488.75 328.5,-488.75"/>
<polygon fill="none" stroke="#475569" points="328.5,-488.75 328.5,-520.5 491.5,-520.5 491.5,-488.75 328.5,-488.75"/>
<text xml:space="preserve" text-anchor="start" x="352.62" y="-503.05" font-family="Inter, Segoe UI, sans-serif" font-size="9.00" fill="#fcd34d">method &#160;</text>
<text xml:space="preserve" text-anchor="start" x="389.38" y="-503.05" font-family="Inter, Segoe UI, sans-serif" font-size="11.00" fill="#e2e8f0">injectKeystroke</text>
<polygon fill="#3f301e" stroke="none" points="328.5,-457 328.5,-488.75 491.5,-488.75 491.5,-457 328.5,-457"/>
<polygon fill="none" stroke="#475569" points="328.5,-457 328.5,-488.75 491.5,-488.75 491.5,-457 328.5,-457"/>
<text xml:space="preserve" text-anchor="start" x="354.5" y="-471.3" font-family="Inter, Segoe UI, sans-serif" font-size="9.00" fill="#fcd34d">method &#160;</text>
<text xml:space="preserve" text-anchor="start" x="391.25" y="-471.3" font-family="Inter, Segoe UI, sans-serif" font-size="11.00" fill="#e2e8f0">injectCtrlScroll</text>
<polygon fill="#3f301e" stroke="none" points="328.5,-425.25 328.5,-457 491.5,-457 491.5,-425.25 328.5,-425.25"/>
<polygon fill="none" stroke="#475569" points="328.5,-425.25 328.5,-457 491.5,-457 491.5,-425.25 328.5,-425.25"/>
<text xml:space="preserve" text-anchor="start" x="336.5" y="-439.55" font-family="Inter, Segoe UI, sans-serif" font-size="9.00" fill="#fcd34d">method &#160;</text>
<text xml:space="preserve" text-anchor="start" x="373.25" y="-439.55" font-family="Inter, Segoe UI, sans-serif" font-size="11.00" fill="#e2e8f0">injectHorizontalScroll</text>
<polygon fill="#3f301e" stroke="none" points="328.5,-393.5 328.5,-425.25 491.5,-425.25 491.5,-393.5 328.5,-393.5"/>
<polygon fill="none" stroke="#475569" points="328.5,-393.5 328.5,-425.25 491.5,-425.25 491.5,-393.5 328.5,-393.5"/>
<text xml:space="preserve" text-anchor="start" x="356" y="-407.8" font-family="Inter, Segoe UI, sans-serif" font-size="9.00" fill="#fcd34d">method &#160;</text>
<text xml:space="preserve" text-anchor="start" x="392.75" y="-407.8" font-family="Inter, Segoe UI, sans-serif" font-size="11.00" fill="#e2e8f0">sendDBusCall</text>
<polygon fill="#3f301e" stroke="none" points="328.5,-361.75 328.5,-393.5 491.5,-393.5 491.5,-361.75 328.5,-361.75"/>
<polygon fill="none" stroke="#475569" points="328.5,-361.75 328.5,-393.5 491.5,-393.5 491.5,-361.75 328.5,-361.75"/>
<text xml:space="preserve" text-anchor="start" x="364.25" y="-376.05" font-family="Inter, Segoe UI, sans-serif" font-size="9.00" fill="#fcd34d">method &#160;</text>
<text xml:space="preserve" text-anchor="start" x="401" y="-376.05" font-family="Inter, Segoe UI, sans-serif" font-size="11.00" fill="#e2e8f0">launchApp</text>
</g>
<!-- AE&#45;&gt;II -->
<g id="edge6" class="edge">
<title>AE:e&#45;&gt;II:w</title>
<path fill="none" stroke="#fcd34d" stroke-dasharray="5,2" d="M316.22,-503.56C269.64,-493.7 308.63,-417.6 328.5,-361.75 334.63,-344.53 338.41,-338.8 354.25,-329.69 400.18,-303.27 437.38,-351.87 472.12,-311.88 501.97,-277.53 518.63,-209.5 473.12,-209.5"/>
<polygon fill="#fcd34d" stroke="#fcd34d" points="315.71,-507.02 325.99,-504.48 316.37,-500.06 315.71,-507.02"/>
<text xml:space="preserve" text-anchor="start" x="354.25" y="-332.69" font-family="Inter, Segoe UI, sans-serif" font-size="10.00" fill="#94a3b8">forward</text>
</g>
<!-- AE&#45;&gt;II -->
<g id="edge7" class="edge">
<title>AE:e&#45;&gt;II:w</title>
<path fill="none" stroke="#fcd34d" stroke-dasharray="5,2" d="M316.25,-471.72C266.86,-460.72 289.24,-374 329,-329.69 371.81,-281.98 429.51,-359.76 472.12,-311.88 511.17,-268.01 531.85,-179.75 473.12,-179.75"/>
<polygon fill="#fcd34d" stroke="#fcd34d" points="315.69,-475.18 325.99,-472.72 316.4,-468.22 315.69,-475.18"/>
</g>
<!-- AE&#45;&gt;II -->
<g id="edge8" class="edge">
<title>AE:e&#45;&gt;II:w</title>
<path fill="none" stroke="#fcd34d" stroke-dasharray="5,2" d="M316.2,-439.83C274.58,-429.87 266.35,-364.74 298,-329.69 324.07,-300.82 445.97,-340.66 472.12,-311.88 520.51,-258.62 545.07,-150 473.12,-150"/>
<polygon fill="#fcd34d" stroke="#fcd34d" points="315.66,-443.29 326,-440.95 316.46,-436.34 315.66,-443.29"/>
</g>
<!-- AE&#45;&gt;II -->
<g id="edge9" class="edge">
<title>AE:e&#45;&gt;II:w</title>
<path fill="none" stroke="#fcd34d" stroke-dasharray="5,2" d="M316.05,-408.37C275.67,-401.42 239.53,-359.65 267,-329.69 297.92,-295.96 441.11,-345.52 472.12,-311.88 529.85,-249.25 558.29,-120.25 473.12,-120.25"/>
<polygon fill="#fcd34d" stroke="#fcd34d" points="315.73,-411.86 325.99,-409.24 316.33,-404.89 315.73,-411.86"/>
</g>
<!-- AE&#45;&gt;II -->
<g id="edge10" class="edge">
<title>AE:e&#45;&gt;II:w</title>
<path fill="none" stroke="#fcd34d" stroke-dasharray="5,2" d="M316.24,-377.36C270.25,-375.28 207.22,-360.72 236,-329.69 271.78,-291.1 436.26,-350.38 472.12,-311.88 539.19,-239.88 571.51,-90.5 473.12,-90.5"/>
<polygon fill="#fcd34d" stroke="#fcd34d" points="315.91,-380.85 325.99,-377.59 316.07,-373.86 315.91,-380.85"/>
</g>
</g>
</svg>
