<?xml version="1.0" encoding="UTF-8" standalone="no"?>
<!DOCTYPE svg PUBLIC "-//W3C//DTD SVG 1.1//EN"
 "http://www.w3.org/Graphics/SVG/1.1/DTD/svg11.dtd">
<!-- Generated by graphviz version 14.1.5 (0)
 -->
<!-- Title: G Pages: 1 -->
<svg width="931pt" height="549pt"
 viewBox="0.00 0.00 931.00 549.00" xmlns="http://www.w3.org/2000/svg" xmlns:xlink="http://www.w3.org/1999/xlink">
<g id="graph0" class="graph" transform="scale(1 1) rotate(0) translate(4 545)">
<title>G</title>
<polygon fill="#0f172a" stroke="none" points="-4,4 -4,-545 926.75,-545 926.75,4 -4,4"/>
<g id="clust1" class="cluster">
<title>cluster_vm</title>
<path fill="#475569" stroke="#475569" d="M20,-172C20,-172 247,-172 247,-172 253,-172 259,-178 259,-184 259,-184 259,-387 259,-387 259,-393 253,-399 247,-399 247,-399 20,-399 20,-399 14,-399 8,-393 8,-387 8,-387 8,-184 8,-184 8,-178 14,-172 20,-172"/>
<text xml:space="preserve" text-anchor="start" x="84" y="-384.6" font-family="Times,serif" font-weight="bold" font-size="12.00" fill="#7dd3fc"> &#160;ViewModel &#160;</text>
</g>
<g id="clust2" class="cluster">
<title>cluster_svc</title>
<path fill="#475569" stroke="#475569" d="M386,-8C386,-8 564,-8 564,-8 570,-8 576,-14 576,-20 576,-20 576,-521 576,-521 576,-527 570,-533 564,-533 564,-533 386,-533 386,-533 380,-533 374,-527 374,-521 374,-521 374,-20 374,-20 374,-14 380,-8 386,-8"/>
<text xml:space="preserve" text-anchor="start" x="434.5" y="-518.6" font-family="Times,serif" font-weight="bold" font-size="12.00" fill="#c4b5fd"> &#160;Services &#160;</text>
</g>
<g id="clust4" class="cluster">
<title>cluster_core</title>
<path fill="#475569" stroke="#475569" d="M744.75,-202C744.75,-202 902.75,-202 902.75,-202 908.75,-202 914.75,-208 914.75,-214 914.75,-214 914.75,-385 914.75,-385 914.75,-391 908.75,-397 902.75,-397 902.75,-397 744.75,-397 744.75,-397 738.75,-397 732.75,-391 732.75,-385 732.75,-385 732.75,-214 732.75,-214 732.75,-208 738.75,-202 744.75,-202"/>
<text xml:space="preserve" text-anchor="start" x="795.25" y="-382.6" font-family="Times,serif" font-weight="bold" font-size="12.00" fill="#fcd34d"> &#160;Core &#160;</text>
</g>
<!-- DM -->
<g id="node1" class="node">
<title>DM</title>
<polygon fill="#334155" stroke="none" points="16,-179.75 16,-368.25 251,-368.25 251,-179.75 16,-179.75"/>
<polygon fill="#334155" stroke="none" points="16,-338.5 16,-368.25 251,-368.25 251,-338.5 16,-338.5"/>
<text xml:space="preserve" text-anchor="start" x="98.62" y="-351.8" font-family="Inter, Segoe UI, sans-serif" font-weight="bold" font-size="11.00" fill="#f1f5f9">DeviceModel</text>
<polygon fill="#1e3a5f" stroke="none" points="16,-306.75 16,-338.5 251,-338.5 251,-306.75 16,-306.75"/>
<polygon fill="none" stroke="#475569" points="16,-306.75 16,-338.5 251,-338.5 251,-306.75 16,-306.75"/>
<text xml:space="preserve" text-anchor="start" x="64.12" y="-321.05" font-family="Inter, Segoe UI, sans-serif" font-size="9.00" fill="#7dd3fc">signal &#160;</text>
<text xml:space="preserve" text-anchor="start" x="93.38" y="-321.05" font-family="Inter, Segoe UI, sans-serif" font-size="11.00" fill="#e2e8f0">dpiChangeRequested</text>
<polygon fill="#1e3a5f" stroke="none" points="16,-275 16,-306.75 251,-306.75 251,-275 16,-275"/>
<polygon fill="none" stroke="#475569" points="16,-275 16,-306.75 251,-306.75 251,-275 16,-275"/>
<text xml:space="preserve" text-anchor="start" x="45.75" y="-289.3" font-family="Inter, Segoe UI, sans-serif" font-size="9.00" fill="#7dd3fc">signal &#160;</text>
<text xml:space="preserve" text-anchor="start" x="75" y="-289.3" font-family="Inter, Segoe UI, sans-serif" font-size="11.00" fill="#e2e8f0">smartShiftChangeRequested</text>
<polygon fill="#1e3a5f" stroke="none" points="16,-243.25 16,-275 251,-275 251,-243.25 16,-243.25"/>
<polygon fill="none" stroke="#475569" points="16,-243.25 16,-275 251,-275 251,-243.25 16,-243.25"/>
<text xml:space="preserve" text-anchor="start" x="41.62" y="-257.55" font-family="Inter, Segoe UI, sans-serif" font-size="9.00" fill="#7dd3fc">signal &#160;</text>
<text xml:space="preserve" text-anchor="start" x="70.88" y="-257.55" font-family="Inter, Segoe UI, sans-serif" font-size="11.00" fill="#e2e8f0">scrollConfigChangeRequested</text>
<polygon fill="#1e3a5f" stroke="none" points="16,-211.5 16,-243.25 251,-243.25 251,-211.5 16,-211.5"/>
<polygon fill="none" stroke="#475569" points="16,-211.5 16,-243.25 251,-243.25 251,-211.5 16,-211.5"/>
<text xml:space="preserve" text-anchor="start" x="24.38" y="-225.8" font-family="Inter, Segoe UI, sans-serif" font-size="9.00" fill="#7dd3fc">signal &#160;</text>
<text xml:space="preserve" text-anchor="start" x="53.62" y="-225.8" font-family="Inter, Segoe UI, sans-serif" font-size="11.00" fill="#e2e8f0">thumbWheelModeChangeRequested</text>
<polygon fill="#1e3a5f" stroke="none" points="16,-179.75 16,-211.5 251,-211.5 251,-179.75 16,-179.75"/>
<polygon fill="none" stroke="#475569" points="16,-179.75 16,-211.5 251,-211.5 251,-179.75 16,-179.75"/>
<text xml:space="preserve" text-anchor="start" x="24" y="-194.05" font-family="Inter, Segoe UI, sans-serif" font-size="9.00" fill="#7dd3fc">signal &#160;</text>
<text xml:space="preserve" text-anchor="start" x="53.25" y="-194.05" font-family="Inter, Segoe UI, sans-serif" font-size="11.00" fill="#e2e8f0">thumbWheelInvertChangeRequested</text>
</g>
<!-- DCH -->
<g id="node3" class="node">
<title>DCH</title>
<polygon fill="#334155" stroke="none" points="382,-127.75 382,-390.25 568,-390.25 568,-127.75 382,-127.75"/>
<polygon fill="#334155" stroke="none" points="382,-358.75 382,-390.25 568,-390.25 568,-358.75 382,-358.75"/>
<text xml:space="preserve" text-anchor="start" x="388" y="-371.95" font-family="Inter, Segoe UI, sans-serif" font-weight="bold" font-size="14.00" fill="#f1f5f9">DeviceCommandHandler</text>
<polygon fill="#334155" stroke="none" points="382,-332.5 382,-358.75 568,-358.75 568,-332.5 382,-332.5"/>
<text xml:space="preserve" text-anchor="start" x="463" y="-344.25" font-family="Inter, Segoe UI, sans-serif" font-weight="bold" font-size="10.00" fill="#c4b5fd">Slots</text>
<polygon fill="#3f3a5e" stroke="none" points="382,-302.75 382,-332.5 568,-332.5 568,-302.75 382,-302.75"/>
<polygon fill="none" stroke="#8b5cf6" points="382,-302.75 382,-332.5 568,-332.5 568,-302.75 382,-302.75"/>
<text xml:space="preserve" text-anchor="start" x="389" y="-313.5" font-family="Inter, Segoe UI, sans-serif" font-size="11.00" fill="#e2e8f0">requestDpi</text>
<polygon fill="#3f3a5e" stroke="none" points="382,-273 382,-302.75 568,-302.75 568,-273 382,-273"/>
<polygon fill="none" stroke="#8b5cf6" points="382,-273 382,-302.75 568,-302.75 568,-273 382,-273"/>
<text xml:space="preserve" text-anchor="start" x="389" y="-283.75" font-family="Inter, Segoe UI, sans-serif" font-size="11.00" fill="#e2e8f0">requestSmartShift</text>
<polygon fill="#3f3a5e" stroke="none" points="382,-243.25 382,-273 568,-273 568,-243.25 382,-243.25"/>
<polygon fill="none" stroke="#8b5cf6" points="382,-243.25 382,-273 568,-273 568,-243.25 382,-243.25"/>
<text xml:space="preserve" text-anchor="start" x="389" y="-254" font-family="Inter, Segoe UI, sans-serif" font-size="11.00" fill="#e2e8f0">requestScrollConfig</text>
<polygon fill="#3f3a5e" stroke="none" points="382,-213.5 382,-243.25 568,-243.25 568,-213.5 382,-213.5"/>
<polygon fill="none" stroke="#8b5cf6" points="382,-213.5 382,-243.25 568,-243.25 568,-213.5 382,-213.5"/>
<text xml:space="preserve" text-anchor="start" x="389" y="-224.25" font-family="Inter, Segoe UI, sans-serif" font-size="11.00" fill="#e2e8f0">requestThumbWheelMode</text>
<polygon fill="#3f3a5e" stroke="none" points="382,-183.75 382,-213.5 568,-213.5 568,-183.75 382,-183.75"/>
<polygon fill="none" stroke="#8b5cf6" points="382,-183.75 382,-213.5 568,-213.5 568,-183.75 382,-183.75"/>
<text xml:space="preserve" text-anchor="start" x="389" y="-194.5" font-family="Inter, Segoe UI, sans-serif" font-size="11.00" fill="#e2e8f0">requestThumbWheelInvert</text>
<polygon fill="#334155" stroke="none" points="382,-157.5 382,-183.75 568,-183.75 568,-157.5 382,-157.5"/>
<text xml:space="preserve" text-anchor="start" x="457.38" y="-169.25" font-family="Inter, Segoe UI, sans-serif" font-weight="bold" font-size="10.00" fill="#c4b5fd">Signals</text>
<polygon fill="#3f3a5e" stroke="none" points="382,-127.75 382,-157.5 568,-157.5 568,-127.75 382,-127.75"/>
<polygon fill="none" stroke="#8b5cf6" points="382,-127.75 382,-157.5 568,-157.5 568,-127.75 382,-127.75"/>
<text xml:space="preserve" text-anchor="start" x="389" y="-138.5" font-family="Inter, Segoe UI, sans-serif" font-size="11.00" fill="#e2e8f0">userChangedSomething</text>
</g>
<!-- DM&#45;&gt;DCH -->
<g id="edge1" class="edge">
<title>DM:e&#45;&gt;DCH:w</title>
<path fill="none" stroke="#7dd3fc" d="M252,-322.62C305.34,-322.62 321.41,-318.3 369.51,-317.7"/>
<polygon fill="#7dd3fc" stroke="#7dd3fc" points="369.51,-321.2 379.49,-317.63 369.47,-314.2 369.51,-321.2"/>
</g>
<!-- DM&#45;&gt;DCH -->
<g id="edge2" class="edge">
<title>DM:e&#45;&gt;DCH:w</title>
<path fill="none" stroke="#7dd3fc" d="M252,-290.88C305.32,-290.88 321.43,-288.28 369.51,-287.92"/>
<polygon fill="#7dd3fc" stroke="#7dd3fc" points="369.5,-291.42 379.49,-287.88 369.47,-284.42 369.5,-291.42"/>
</g>
<!-- DM&#45;&gt;DCH -->
<g id="edge3" class="edge">
<title>DM:e&#45;&gt;DCH:w</title>
<path fill="none" stroke="#7dd3fc" d="M252,-259.12C305.3,-259.12 321.44,-258.26 369.51,-258.14"/>
<polygon fill="#7dd3fc" stroke="#7dd3fc" points="369.49,-261.64 379.49,-258.13 369.48,-254.64 369.49,-261.64"/>
</g>
<!-- DM&#45;&gt;DCH -->
<g id="edge4" class="edge">
<title>DM:e&#45;&gt;DCH:w</title>
<path fill="none" stroke="#7dd3fc" d="M252,-227.38C305.3,-227.38 321.44,-228.24 369.51,-228.36"/>
<polygon fill="#7dd3fc" stroke="#7dd3fc" points="369.48,-231.86 379.49,-228.37 369.49,-224.86 369.48,-231.86"/>
</g>
<!-- DM&#45;&gt;DCH -->
<g id="edge5" class="edge">
<title>DM:e&#45;&gt;DCH:w</title>
<path fill="none" stroke="#7dd3fc" d="M252,-195.62C305.32,-195.62 321.43,-198.22 369.51,-198.58"/>
<polygon fill="#7dd3fc" stroke="#7dd3fc" points="369.47,-202.08 379.49,-198.62 369.5,-195.08 369.47,-202.08"/>
</g>
<!-- ADR -->
<g id="node2" class="node">
<title>ADR</title>
<polygon fill="#334155" stroke="none" points="409.5,-16.25 409.5,-77.75 540.5,-77.75 540.5,-16.25 409.5,-16.25"/>
<polygon fill="#334155" stroke="none" points="409.5,-48 409.5,-77.75 540.5,-77.75 540.5,-48 409.5,-48"/>
<text xml:space="preserve" text-anchor="start" x="416.5" y="-61.3" font-family="Inter, Segoe UI, sans-serif" font-weight="bold" font-size="11.00" fill="#f1f5f9">ActiveDeviceResolver</text>
<polygon fill="#3f3a5e" stroke="none" points="409.5,-16.25 409.5,-48 540.5,-48 540.5,-16.25 409.5,-16.25"/>
<polygon fill="none" stroke="#475569" points="409.5,-16.25 409.5,-48 540.5,-48 540.5,-16.25 409.5,-16.25"/>
<text xml:space="preserve" text-anchor="start" x="422.5" y="-30.55" font-family="Inter, Segoe UI, sans-serif" font-size="9.00" fill="#c4b5fd">method &#160;</text>
<text xml:space="preserve" text-anchor="start" x="459.25" y="-30.55" font-family="Inter, Segoe UI, sans-serif" font-size="11.00" fill="#e2e8f0">activeSession</text>
</g>
<!-- DCH&#45;&gt;ADR -->
<g id="edge7" class="edge">
<title>DCH:e&#45;&gt;ADR:w</title>
<path fill="none" stroke="#c4b5fd" stroke-dasharray="5,2" d="M397.37,-34.89C379.12,-46.47 398.16,-91.28 422.25,-109.88 448.08,-129.82 546.31,-103.37 568,-127.75 596.04,-159.28 611.2,-317.62 569,-317.62"/>
<polygon fill="#c4b5fd" stroke="#c4b5fd" points="398.17,-38.3 407.03,-32.49 396.48,-31.51 398.17,-38.3"/>
<text xml:space="preserve" text-anchor="start" x="422.25" y="-98.62" font-family="Inter, Segoe UI, sans-serif" font-size="10.00" fill="#94a3b8">resolve</text>
</g>
<!-- PO -->
<g id="node4" class="node">
<title>PO</title>
<polygon fill="#334155" stroke="none" points="409.62,-440.25 409.62,-501.75 540.38,-501.75 540.38,-440.25 409.62,-440.25"/>
<polygon fill="#334155" stroke="none" points="409.62,-472 409.62,-501.75 540.38,-501.75 540.38,-472 409.62,-472"/>
<text xml:space="preserve" text-anchor="start" x="421.75" y="-485.3" font-family="Inter, Segoe UI, sans-serif" font-weight="bold" font-size="11.00" fill="#f1f5f9">ProfileOrchestrator</text>
<polygon fill="#3f3a5e" stroke="none" points="409.62,-440.25 409.62,-472 540.38,-472 540.38,-440.25 409.62,-440.25"/>
<polygon fill="none" stroke="#475569" points="409.62,-440.25 409.62,-472 540.38,-472 540.38,-440.25 409.62,-440.25"/>
<text xml:space="preserve" text-anchor="start" x="417.62" y="-454.55" font-family="Inter, Segoe UI, sans-serif" font-size="9.00" fill="#c4b5fd">slot &#160;</text>
<text xml:space="preserve" text-anchor="start" x="437.12" y="-454.55" font-family="Inter, Segoe UI, sans-serif" font-size="11.00" fill="#e2e8f0">saveCurrentProfile</text>
</g>
<!-- DCH&#45;&gt;PO -->
<g id="edge6" class="edge">
<title>DCH:e&#45;&gt;PO:w</title>
<path fill="none" stroke="#c4b5fd" d="M406.64,-445.08C407.49,-443.33 408.54,-441.64 409.62,-440.25 455.11,-382.12 524.24,-449.7 568,-390.25 576.16,-379.17 582.76,-142.62 569,-142.62"/>
<polygon fill="#c4b5fd" stroke="#c4b5fd" points="403.14,-445.41 408.36,-454.64 410.03,-444.17 403.14,-445.41"/>
</g>
<!-- DS -->
<g id="node5" class="node">
<title>DS</title>
<polygon fill="#334155" stroke="none" points="740.75,-209.62 740.75,-366.38 906.75,-366.38 906.75,-209.62 740.75,-209.62"/>
<polygon fill="#334155" stroke="none" points="740.75,-336.62 740.75,-366.38 906.75,-366.38 906.75,-336.62 740.75,-336.62"/>
<text xml:space="preserve" text-anchor="start" x="785.5" y="-349.93" font-family="Inter, Segoe UI, sans-serif" font-weight="bold" font-size="11.00" fill="#f1f5f9">DeviceSession</text>
<polygon fill="#3f301e" stroke="none" points="740.75,-304.88 740.75,-336.62 906.75,-336.62 906.75,-304.88 740.75,-304.88"/>
<polygon fill="none" stroke="#475569" points="740.75,-304.88 740.75,-336.62 906.75,-336.62 906.75,-304.88 740.75,-304.88"/>
<text xml:space="preserve" text-anchor="start" x="788.5" y="-319.18" font-family="Inter, Segoe UI, sans-serif" font-size="9.00" fill="#fcd34d">method &#160;</text>
<text xml:space="preserve" text-anchor="start" x="825.25" y="-319.18" font-family="Inter, Segoe UI, sans-serif" font-size="11.00" fill="#e2e8f0">setDPI</text>
<polygon fill="#3f301e" stroke="none" points="740.75,-273.12 740.75,-304.88 906.75,-304.88 906.75,-273.12 740.75,-273.12"/>
<polygon fill="none" stroke="#475569" points="740.75,-273.12 740.75,-304.88 906.75,-304.88 906.75,-273.12 740.75,-273.12"/>
<text xml:space="preserve" text-anchor="start" x="770.88" y="-287.43" font-family="Inter, Segoe UI, sans-serif" font-size="9.00" fill="#fcd34d">method &#160;</text>
<text xml:space="preserve" text-anchor="start" x="807.62" y="-287.43" font-family="Inter, Segoe UI, sans-serif" font-size="11.00" fill="#e2e8f0">setSmartShift</text>
<polygon fill="#3f301e" stroke="none" points="740.75,-241.38 740.75,-273.12 906.75,-273.12 906.75,-241.38 740.75,-241.38"/>
<polygon fill="none" stroke="#475569" points="740.75,-241.38 740.75,-273.12 906.75,-273.12 906.75,-241.38 740.75,-241.38"/>
<text xml:space="preserve" text-anchor="start" x="766.75" y="-255.68" font-family="Inter, Segoe UI, sans-serif" font-size="9.00" fill="#fcd34d">method &#160;</text>
<text xml:space="preserve" text-anchor="start" x="803.5" y="-255.68" font-family="Inter, Segoe UI, sans-serif" font-size="11.00" fill="#e2e8f0">setScrollConfig</text>
<polygon fill="#3f301e" stroke="none" points="740.75,-209.62 740.75,-241.38 906.75,-241.38 906.75,-209.62 740.75,-209.62"/>
<polygon fill="none" stroke="#475569" points="740.75,-209.62 740.75,-241.38 906.75,-241.38 906.75,-209.62 740.75,-209.62"/>
<text xml:space="preserve" text-anchor="start" x="748.75" y="-223.93" font-family="Inter, Segoe UI, sans-serif" font-size="9.00" fill="#fcd34d">method &#160;</text>
<text xml:space="preserve" text-anchor="start" x="785.5" y="-223.93" font-family="Inter, Segoe UI, sans-serif" font-size="11.00" fill="#e2e8f0">setThumbWheelMode</text>
</g>
<!-- DCH&#45;&gt;DS -->
<g id="edge8" class="edge">
<title>DCH:e&#45;&gt;DS:w</title>
<path fill="none" stroke="#fcd34d" stroke-dasharray="5,2" d="M569,-317.62C641.05,-317.62 661.78,-320.44 728.61,-320.73"/>
<polygon fill="#fcd34d" stroke="#fcd34d" points="728.23,-324.23 738.24,-320.75 728.24,-317.23 728.23,-324.23"/>
<text xml:space="preserve" text-anchor="start" x="633" y="-322.83" font-family="Inter, Segoe UI, sans-serif" font-size="10.00" fill="#94a3b8">direct call</text>
</g>
<!-- DCH&#45;&gt;DS -->
<g id="edge9" class="edge">
<title>DCH:e&#45;&gt;DS:w</title>
<path fill="none" stroke="#fcd34d" stroke-dasharray="5,2" d="M569,-287.88C641.04,-287.88 661.79,-288.89 728.61,-288.99"/>
<polygon fill="#fcd34d" stroke="#fcd34d" points="728.23,-292.49 738.24,-289 728.24,-285.49 728.23,-292.49"/>
</g>
<!-- DCH&#45;&gt;DS -->
<g id="edge10" class="edge">
<title>DCH:e&#45;&gt;DS:w</title>
<path fill="none" stroke="#fcd34d" stroke-dasharray="5,2" d="M569,-258.12C641.04,-258.12 661.79,-257.34 728.61,-257.26"/>
<polygon fill="#fcd34d" stroke="#fcd34d" points="728.24,-260.76 738.24,-257.25 728.23,-253.76 728.24,-260.76"/>
</g>
<!-- DCH&#45;&gt;DS -->
<g id="edge11" class="edge">
<title>DCH:e&#45;&gt;DS:w</title>
<path fill="none" stroke="#fcd34d" stroke-dasharray="5,2" d="M569,-228.38C641.05,-228.38 661.78,-225.78 728.61,-225.52"/>
<polygon fill="#fcd34d" stroke="#fcd34d" points="728.24,-229.02 738.24,-225.5 728.23,-222.02 728.24,-229.02"/>
</g>
</g>
</svg>
