<?xml version="1.0" encoding="UTF-8" standalone="no"?>
<!DOCTYPE svg PUBLIC "-//W3C//DTD SVG 1.1//EN"
 "http://www.w3.org/Graphics/SVG/1.1/DTD/svg11.dtd">
<!-- Generated by graphviz version 14.1.5 (0)
 -->
<!-- Title: G Pages: 1 -->
<svg width="569pt" height="528pt"
 viewBox="0.00 0.00 569.00 528.00" xmlns="http://www.w3.org/2000/svg" xmlns:xlink="http://www.w3.org/1999/xlink">
<g id="graph0" class="graph" transform="scale(1 1) rotate(0) translate(4 524)">
<title>G</title>
<polygon fill="#0f172a" stroke="none" points="-4,4 -4,-524 564.93,-524 564.93,4 -4,4"/>
<g id="clust1" class="cluster">
<title>cluster_svc</title>
<path fill="#475569" stroke="#475569" d="M24.93,-8C24.93,-8 198.43,-8 198.43,-8 204.43,-8 210.43,-14 210.43,-20 210.43,-20 210.43,-500 210.43,-500 210.43,-506 204.43,-512 198.43,-512 198.43,-512 24.93,-512 24.93,-512 18.93,-512 12.93,-506 12.93,-500 12.93,-500 12.93,-20 12.93,-20 12.93,-14 18.93,-8 24.93,-8"/>
<text xml:space="preserve" text-anchor="start" x="71.18" y="-497.6" font-family="Times,serif" font-weight="bold" font-size="12.00" fill="#c4b5fd"> &#160;Services &#160;</text>
</g>
<g id="clust3" class="cluster">
<title>cluster_core</title>
<path fill="#475569" stroke="#475569" d="M385.93,-60C385.93,-60 540.93,-60 540.93,-60 546.93,-60 552.93,-66 552.93,-72 552.93,-72 552.93,-417 552.93,-417 552.93,-423 546.93,-429 540.93,-429 540.93,-429 385.93,-429 385.93,-429 379.93,-429 373.93,-423 373.93,-417 373.93,-417 373.93,-72 373.93,-72 373.93,-66 379.93,-60 385.93,-60"/>
<text xml:space="preserve" text-anchor="start" x="434.93" y="-414.6" font-family="Times,serif" font-weight="bold" font-size="12.00" fill="#fcd34d"> &#160;Core &#160;</text>
</g>
<!-- PO -->
<g id="node1" class="node">
<title>PO</title>
<polygon fill="#334155" stroke="none" points="30.55,-16.38 30.55,-109.62 192.8,-109.62 192.8,-16.38 30.55,-16.38"/>
<polygon fill="#334155" stroke="none" points="30.55,-79.88 30.55,-109.62 192.8,-109.62 192.8,-79.88 30.55,-79.88"/>
<text xml:space="preserve" text-anchor="start" x="58.43" y="-93.17" font-family="Inter, Segoe UI, sans-serif" font-weight="bold" font-size="11.00" fill="#f1f5f9">ProfileOrchestrator</text>
<polygon fill="#3f3a5e" stroke="none" points="30.55,-48.12 30.55,-79.88 192.8,-79.88 192.8,-48.12 30.55,-48.12"/>
<polygon fill="none" stroke="#475569" points="30.55,-48.12 30.55,-79.88 192.8,-79.88 192.8,-48.12 30.55,-48.12"/>
<text xml:space="preserve" text-anchor="start" x="60.68" y="-62.42" font-family="Inter, Segoe UI, sans-serif" font-size="9.00" fill="#c4b5fd">signal &#160;</text>
<text xml:space="preserve" text-anchor="start" x="89.93" y="-62.42" font-family="Inter, Segoe UI, sans-serif" font-size="11.00" fill="#e2e8f0">profileApplied</text>
<polygon fill="#3f3a5e" stroke="none" points="30.55,-16.38 30.55,-48.12 192.8,-48.12 192.8,-16.38 30.55,-16.38"/>
<polygon fill="none" stroke="#475569" points="30.55,-16.38 30.55,-48.12 192.8,-48.12 192.8,-16.38 30.55,-16.38"/>
<text xml:space="preserve" text-anchor="start" x="38.55" y="-30.68" font-family="Inter, Segoe UI, sans-serif" font-size="9.00" fill="#c4b5fd">signal &#160;</text>
<text xml:space="preserve" text-anchor="start" x="67.8" y="-30.68" font-family="Inter, Segoe UI, sans-serif" font-size="11.00" fill="#e2e8f0">currentDeviceChanged</text>
</g>
<!-- BAD -->
<g id="node2" class="node">
<title>BAD</title>
<polygon fill="#334155" stroke="none" points="20.93,-159 20.93,-481 202.43,-481 202.43,-159 20.93,-159"/>
<polygon fill="#334155" stroke="none" points="20.93,-449.5 20.93,-481 202.43,-481 202.43,-449.5 20.93,-449.5"/>
<text xml:space="preserve" text-anchor="start" x="26.93" y="-462.7" font-family="Inter, Segoe UI, sans-serif" font-weight="bold" font-size="14.00" fill="#f1f5f9">ButtonActionDispatcher</text>
<polygon fill="#334155" stroke="none" points="20.93,-423.25 20.93,-449.5 202.43,-449.5 202.43,-423.25 20.93,-423.25"/>
<text xml:space="preserve" text-anchor="start" x="89.55" y="-435" font-family="Inter, Segoe UI, sans-serif" font-weight="bold" font-size="10.00" fill="#c4b5fd">Methods</text>
<polygon fill="#3f3a5e" stroke="none" points="20.93,-393.5 20.93,-423.25 202.43,-423.25 202.43,-393.5 20.93,-393.5"/>
<polygon fill="none" stroke="#8b5cf6" points="20.93,-393.5 20.93,-423.25 202.43,-423.25 202.43,-393.5 20.93,-393.5"/>
<text xml:space="preserve" text-anchor="start" x="27.93" y="-404.25" font-family="Inter, Segoe UI, sans-serif" font-size="11.00" fill="#e2e8f0">onDeviceRemoved</text>
<polygon fill="#3f3a5e" stroke="none" points="20.93,-363.75 20.93,-393.5 202.43,-393.5 202.43,-363.75 20.93,-363.75"/>
<polygon fill="none" stroke="#8b5cf6" points="20.93,-363.75 20.93,-393.5 202.43,-393.5 202.43,-363.75 20.93,-363.75"/>
<text xml:space="preserve" text-anchor="start" x="27.93" y="-374.5" font-family="Inter, Segoe UI, sans-serif" font-size="11.00" fill="#94a3b8">kGestureThreshold = 50</text>
<polygon fill="#3f3a5e" stroke="none" points="20.93,-334 20.93,-363.75 202.43,-363.75 202.43,-334 20.93,-334"/>
<polygon fill="none" stroke="#8b5cf6" points="20.93,-334 20.93,-363.75 202.43,-363.75 202.43,-334 20.93,-334"/>
<text xml:space="preserve" text-anchor="start" x="27.93" y="-344.75" font-family="Inter, Segoe UI, sans-serif" font-size="11.00" fill="#94a3b8">kThumbThreshold = 15</text>
<polygon fill="#334155" stroke="none" points="20.93,-307.75 20.93,-334 202.43,-334 202.43,-307.75 20.93,-307.75"/>
<text xml:space="preserve" text-anchor="start" x="99.68" y="-319.5" font-family="Inter, Segoe UI, sans-serif" font-weight="bold" font-size="10.00" fill="#c4b5fd">Slots</text>
<polygon fill="#3f3a5e" stroke="none" points="20.93,-278 20.93,-307.75 202.43,-307.75 202.43,-278 20.93,-278"/>
<polygon fill="none" stroke="#8b5cf6" points="20.93,-278 20.93,-307.75 202.43,-307.75 202.43,-278 20.93,-278"/>
<text xml:space="preserve" text-anchor="start" x="27.93" y="-288.75" font-family="Inter, Segoe UI, sans-serif" font-size="11.00" fill="#e2e8f0">onGestureRaw</text>
<polygon fill="#3f3a5e" stroke="none" points="20.93,-248.25 20.93,-278 202.43,-278 202.43,-248.25 20.93,-248.25"/>
<polygon fill="none" stroke="#8b5cf6" points="20.93,-248.25 20.93,-278 202.43,-278 202.43,-248.25 20.93,-248.25"/>
<text xml:space="preserve" text-anchor="start" x="27.93" y="-259" font-family="Inter, Segoe UI, sans-serif" font-size="11.00" fill="#e2e8f0">onDivertedButtonPressed</text>
<polygon fill="#3f3a5e" stroke="none" points="20.93,-218.5 20.93,-248.25 202.43,-248.25 202.43,-218.5 20.93,-218.5"/>
<polygon fill="none" stroke="#8b5cf6" points="20.93,-218.5 20.93,-248.25 202.43,-248.25 202.43,-218.5 20.93,-218.5"/>
<text xml:space="preserve" text-anchor="start" x="27.93" y="-229.25" font-family="Inter, Segoe UI, sans-serif" font-size="11.00" fill="#e2e8f0">onThumbWheelRotation</text>
<polygon fill="#3f3a5e" stroke="none" points="20.93,-188.75 20.93,-218.5 202.43,-218.5 202.43,-188.75 20.93,-188.75"/>
<polygon fill="none" stroke="#8b5cf6" points="20.93,-188.75 20.93,-218.5 202.43,-218.5 202.43,-188.75 20.93,-188.75"/>
<text xml:space="preserve" text-anchor="start" x="27.93" y="-199.5" font-family="Inter, Segoe UI, sans-serif" font-size="11.00" fill="#e2e8f0">onProfileApplied</text>
<polygon fill="#3f3a5e" stroke="none" points="20.93,-159 20.93,-188.75 202.43,-188.75 202.43,-159 20.93,-159"/>
<polygon fill="none" stroke="#8b5cf6" points="20.93,-159 20.93,-188.75 202.43,-188.75 202.43,-159 20.93,-159"/>
<text xml:space="preserve" text-anchor="start" x="27.93" y="-169.75" font-family="Inter, Segoe UI, sans-serif" font-size="11.00" fill="#e2e8f0">onCurrentDeviceChanged</text>
</g>
<!-- PO&#45;&gt;BAD -->
<g id="edge4" class="edge">
<title>PO:w&#45;&gt;BAD:w</title>
<path fill="none" stroke="#c4b5fd" d="M10.13,-197.63C-8.43,-170.9 2.34,-64 29.55,-64"/>
<polygon fill="#c4b5fd" stroke="#c4b5fd" points="8.28,-200.59 18.63,-202.83 11.94,-194.63 8.28,-200.59"/>
</g>
<!-- PO&#45;&gt;BAD -->
<g id="edge5" class="edge">
<title>PO:w&#45;&gt;BAD:w</title>
<path fill="none" stroke="#c4b5fd" d="M10.24,-168.15C-8.97,-141.65 1.83,-32.25 29.55,-32.25"/>
<polygon fill="#c4b5fd" stroke="#c4b5fd" points="8.23,-171.03 18.62,-173.1 11.8,-165 8.23,-171.03"/>
</g>
<!-- PD -->
<g id="node3" class="node">
<title>PD</title>
<polygon fill="#334155" stroke="none" points="381.93,-272.5 381.93,-397.5 544.93,-397.5 544.93,-272.5 381.93,-272.5"/>
<polygon fill="#334155" stroke="none" points="381.93,-367.75 381.93,-397.5 544.93,-397.5 544.93,-367.75 381.93,-367.75"/>
<text xml:space="preserve" text-anchor="start" x="423.3" y="-381.05" font-family="Inter, Segoe UI, sans-serif" font-weight="bold" font-size="11.00" fill="#f1f5f9">PhysicalDevice</text>
<polygon fill="#3f301e" stroke="none" points="381.93,-336 381.93,-367.75 544.93,-367.75 544.93,-336 381.93,-336"/>
<polygon fill="none" stroke="#475569" points="381.93,-336 381.93,-367.75 544.93,-367.75 544.93,-336 381.93,-336"/>
<text xml:space="preserve" text-anchor="start" x="412.05" y="-350.3" font-family="Inter, Segoe UI, sans-serif" font-size="9.00" fill="#fcd34d">signal &#160;</text>
<text xml:space="preserve" text-anchor="start" x="441.3" y="-350.3" font-family="Inter, Segoe UI, sans-serif" font-size="11.00" fill="#e2e8f0">gestureRawXY</text>
<polygon fill="#3f301e" stroke="none" points="381.93,-304.25 381.93,-336 544.93,-336 544.93,-304.25 381.93,-304.25"/>
<polygon fill="none" stroke="#475569" points="381.93,-304.25 381.93,-336 544.93,-336 544.93,-304.25 381.93,-304.25"/>
<text xml:space="preserve" text-anchor="start" x="389.93" y="-318.55" font-family="Inter, Segoe UI, sans-serif" font-size="9.00" fill="#fcd34d">signal &#160;</text>
<text xml:space="preserve" text-anchor="start" x="419.18" y="-318.55" font-family="Inter, Segoe UI, sans-serif" font-size="11.00" fill="#e2e8f0">divertedButtonPressed</text>
<polygon fill="#3f301e" stroke="none" points="381.93,-272.5 381.93,-304.25 544.93,-304.25 544.93,-272.5 381.93,-272.5"/>
<polygon fill="none" stroke="#475569" points="381.93,-272.5 381.93,-304.25 544.93,-304.25 544.93,-272.5 381.93,-272.5"/>
<text xml:space="preserve" text-anchor="start" x="393.68" y="-286.8" font-family="Inter, Segoe UI, sans-serif" font-size="9.00" fill="#fcd34d">signal &#160;</text>
<text xml:space="preserve" text-anchor="start" x="422.93" y="-286.8" font-family="Inter, Segoe UI, sans-serif" font-size="11.00" fill="#e2e8f0">thumbWheelRotation</text>
</g>
<!-- BAD&#45;&gt;PD -->
<g id="edge1" class="edge">
<title>BAD:e&#45;&gt;PD:w</title>
<path fill="none" stroke="#fcd34d" d="M214.71,-294.11C237.02,-299.45 240.43,-320.85 267.43,-331 315.44,-349.05 329.63,-351.88 380.93,-351.88"/>
<polygon fill="#fcd34d" stroke="#fcd34d" points="215.25,-290.64 204.93,-293.04 214.49,-297.6 215.25,-290.64"/>
</g>
<!-- BAD&#45;&gt;PD -->
<g id="edge2" class="edge">
<title>BAD:e&#45;&gt;PD:w</title>
<path fill="none" stroke="#fcd34d" d="M214.7,-264.01C235.83,-267.62 242.22,-281.41 267.43,-290 316.83,-306.84 328.73,-320.12 380.93,-320.12"/>
<polygon fill="#fcd34d" stroke="#fcd34d" points="215.18,-260.54 204.93,-263.24 214.63,-267.52 215.18,-260.54"/>
</g>
<!-- BAD&#45;&gt;PD -->
<g id="edge3" class="edge">
<title>BAD:e&#45;&gt;PD:w</title>
<path fill="none" stroke="#fcd34d" d="M214.68,-233.27C256.67,-232.47 273.05,-227.99 316.93,-244 349.44,-255.86 346.31,-288.38 380.93,-288.38"/>
<polygon fill="#fcd34d" stroke="#fcd34d" points="214.9,-229.76 204.94,-233.36 214.97,-236.76 214.9,-229.76"/>
</g>
<!-- AE -->
<g id="node4" class="node">
<title>AE</title>
<polygon fill="#334155" stroke="none" points="399.93,-154.38 399.93,-247.62 526.93,-247.62 526.93,-154.38 399.93,-154.38"/>
<polygon fill="#334155" stroke="none" points="399.93,-217.88 399.93,-247.62 526.93,-247.62 526.93,-217.88 399.93,-217.88"/>
<text xml:space="preserve" text-anchor="start" x="421.43" y="-231.18" font-family="Inter, Segoe UI, sans-serif" font-weight="bold" font-size="11.00" fill="#f1f5f9">ActionExecutor</text>
<polygon fill="#3f301e" stroke="none" points="399.93,-186.12 399.93,-217.88 526.93,-217.88 526.93,-186.12 399.93,-186.12"/>
<polygon fill="none" stroke="#475569" points="399.93,-186.12 399.93,-217.88 526.93,-217.88 526.93,-186.12 399.93,-186.12"/>
<text xml:space="preserve" text-anchor="start" x="409.43" y="-200.43" font-family="Inter, Segoe UI, sans-serif" font-size="9.00" fill="#fcd34d">method &#160;</text>
<text xml:space="preserve" text-anchor="start" x="446.18" y="-200.43" font-family="Inter, Segoe UI, sans-serif" font-size="11.00" fill="#e2e8f0">executeAction</text>
<polygon fill="#3f301e" stroke="none" points="399.93,-154.38 399.93,-186.12 526.93,-186.12 526.93,-154.38 399.93,-154.38"/>
<polygon fill="none" stroke="#475569" points="399.93,-154.38 399.93,-186.12 526.93,-186.12 526.93,-154.38 399.93,-154.38"/>
<text xml:space="preserve" text-anchor="start" x="407.93" y="-168.68" font-family="Inter, Segoe UI, sans-serif" font-size="9.00" fill="#fcd34d">method &#160;</text>
<text xml:space="preserve" text-anchor="start" x="444.68" y="-168.68" font-family="Inter, Segoe UI, sans-serif" font-size="11.00" fill="#e2e8f0">injectCtrlScroll</text>
</g>
<!-- BAD&#45;&gt;AE -->
<g id="edge6" class="edge">
<title>BAD:e&#45;&gt;AE:w</title>
<path fill="none" stroke="#fcd34d" stroke-dasharray="5,2" d="M203.43,-263.12C290.55,-263.12 306.59,-207.14 387.61,-202.33"/>
<polygon fill="#fcd34d" stroke="#fcd34d" points="387.52,-205.83 397.41,-202.04 387.31,-198.84 387.52,-205.83"/>
<text xml:space="preserve" text-anchor="start" x="270.8" y="-252.92" font-family="Inter, Segoe UI, sans-serif" font-size="10.00" fill="#94a3b8">direct call</text>
</g>
<!-- BAD&#45;&gt;AE -->
<g id="edge7" class="edge">
<title>BAD:e&#45;&gt;AE:w</title>
<path fill="none" stroke="#fcd34d" stroke-dasharray="5,2" d="M203.43,-233.38C204.04,-233.38 347.45,-186.76 388.23,-173.64"/>
<polygon fill="#fcd34d" stroke="#fcd34d" points="389.01,-177.07 397.48,-170.71 386.89,-170.4 389.01,-177.07"/>
<text xml:space="preserve" text-anchor="start" x="270.8" y="-214.16" font-family="Inter, Segoe UI, sans-serif" font-size="10.00" fill="#94a3b8">direct call</text>
</g>
<!-- PE -->
<g id="node5" class="node">
<title>PE</title>
<polygon fill="#334155" stroke="none" points="402.18,-68.25 402.18,-129.75 524.68,-129.75 524.68,-68.25 402.18,-68.25"/>
<polygon fill="#334155" stroke="none" points="402.18,-100 402.18,-129.75 524.68,-129.75 524.68,-100 402.18,-100"/>
<text xml:space="preserve" text-anchor="start" x="427.05" y="-113.3" font-family="Inter, Segoe UI, sans-serif" font-weight="bold" font-size="11.00" fill="#f1f5f9">ProfileEngine</text>
<polygon fill="#3f301e" stroke="none" points="402.18,-68.25 402.18,-100 524.68,-100 524.68,-68.25 402.18,-68.25"/>
<polygon fill="none" stroke="#475569" points="402.18,-68.25 402.18,-100 524.68,-100 524.68,-68.25 402.18,-68.25"/>
<text xml:space="preserve" text-anchor="start" x="410.18" y="-82.55" font-family="Inter, Segoe UI, sans-serif" font-size="9.00" fill="#fcd34d">method &#160;</text>
<text xml:space="preserve" text-anchor="start" x="446.93" y="-82.55" font-family="Inter, Segoe UI, sans-serif" font-size="11.00" fill="#e2e8f0">cachedProfile</text>
</g>
<!-- BAD&#45;&gt;PE -->
<g id="edge8" class="edge">
<title>BAD:e&#45;&gt;PE:w</title>
<path fill="none" stroke="#fcd34d" stroke-dasharray="5,2" d="M203.43,-203.62C251.26,-203.62 337.04,-99.9 390.06,-85.72"/>
<polygon fill="#fcd34d" stroke="#fcd34d" points="390.28,-89.23 399.68,-84.34 389.28,-82.3 390.28,-89.23"/>
<text xml:space="preserve" text-anchor="start" x="267.43" y="-174.58" font-family="Inter, Segoe UI, sans-serif" font-size="10.00" fill="#94a3b8">direct read</text>
</g>
</g>
</svg>
