<?xml version="1.0" encoding="UTF-8" standalone="no"?>
<!DOCTYPE svg PUBLIC "-//W3C//DTD SVG 1.1//EN"
 "http://www.w3.org/Graphics/SVG/1.1/DTD/svg11.dtd">
<!-- Generated by graphviz version 14.1.5 (0)
 -->
<!-- Title: G Pages: 1 -->
<svg width="692pt" height="758pt"
 viewBox="0.00 0.00 692.00 758.00" xmlns="http://www.w3.org/2000/svg" xmlns:xlink="http://www.w3.org/1999/xlink">
<g id="graph0" class="graph" transform="scale(1 1) rotate(0) translate(4 754)">
<title>G</title>
<polygon fill="#0f172a" stroke="none" points="-4,4 -4,-754 687.88,-754 687.88,4 -4,4"/>
<g id="clust1" class="cluster">
<title>cluster_svc</title>
<path fill="#475569" stroke="#475569" d="M499.88,-8C499.88,-8 663.88,-8 663.88,-8 669.88,-8 675.88,-14 675.88,-20 675.88,-20 675.88,-215 675.88,-215 675.88,-221 669.88,-227 663.88,-227 663.88,-227 499.88,-227 499.88,-227 493.88,-227 487.88,-221 487.88,-215 487.88,-215 487.88,-20 487.88,-20 487.88,-14 493.88,-8 499.88,-8"/>
<text xml:space="preserve" text-anchor="start" x="508.38" y="-212.6" font-family="Times,serif" font-weight="bold" font-size="12.00" fill="#c4b5fd"> &#160;Composition Root &#160;</text>
</g>
<g id="clust3" class="cluster">
<title>cluster_core</title>
<path fill="#475569" stroke="#475569" d="M204.12,-66C204.12,-66 360.88,-66 360.88,-66 366.88,-66 372.88,-72 372.88,-78 372.88,-78 372.88,-730 372.88,-730 372.88,-736 366.88,-742 360.88,-742 360.88,-742 204.12,-742 204.12,-742 198.12,-742 192.12,-736 192.12,-730 192.12,-730 192.12,-78 192.12,-78 192.12,-72 198.12,-66 204.12,-66"/>
<text xml:space="preserve" text-anchor="start" x="254" y="-727.6" font-family="Times,serif" font-weight="bold" font-size="12.00" fill="#fcd34d"> &#160;Core &#160;</text>
</g>
<!-- AR -->
<g id="node1" class="node">
<title>AR</title>
<polygon fill="#334155" stroke="none" points="495.88,-102.38 495.88,-195.62 667.88,-195.62 667.88,-102.38 495.88,-102.38"/>
<polygon fill="#334155" stroke="none" points="495.88,-165.88 495.88,-195.62 667.88,-195.62 667.88,-165.88 495.88,-165.88"/>
<text xml:space="preserve" text-anchor="start" x="558.62" y="-179.18" font-family="Inter, Segoe UI, sans-serif" font-weight="bold" font-size="11.00" fill="#f1f5f9">AppRoot</text>
<polygon fill="#3f3a5e" stroke="none" points="495.88,-134.12 495.88,-165.88 667.88,-165.88 667.88,-134.12 495.88,-134.12"/>
<polygon fill="none" stroke="#475569" points="495.88,-134.12 495.88,-165.88 667.88,-165.88 667.88,-134.12 495.88,-134.12"/>
<text xml:space="preserve" text-anchor="start" x="511.38" y="-148.43" font-family="Inter, Segoe UI, sans-serif" font-size="9.00" fill="#c4b5fd">slot &#160;</text>
<text xml:space="preserve" text-anchor="start" x="530.88" y="-148.43" font-family="Inter, Segoe UI, sans-serif" font-size="11.00" fill="#e2e8f0">onPhysicalDeviceAdded</text>
<polygon fill="#3f3a5e" stroke="none" points="495.88,-102.38 495.88,-134.12 667.88,-134.12 667.88,-102.38 495.88,-102.38"/>
<polygon fill="none" stroke="#475569" points="495.88,-102.38 495.88,-134.12 667.88,-134.12 667.88,-102.38 495.88,-102.38"/>
<text xml:space="preserve" text-anchor="start" x="503.88" y="-116.67" font-family="Inter, Segoe UI, sans-serif" font-size="9.00" fill="#c4b5fd">slot &#160;</text>
<text xml:space="preserve" text-anchor="start" x="523.38" y="-116.67" font-family="Inter, Segoe UI, sans-serif" font-size="11.00" fill="#e2e8f0">onPhysicalDeviceRemoved</text>
</g>
<!-- DF -->
<g id="node2" class="node">
<title>DF</title>
<polygon fill="#334155" stroke="none" points="534.5,-16.25 534.5,-77.75 629.25,-77.75 629.25,-16.25 534.5,-16.25"/>
<polygon fill="#334155" stroke="none" points="534.5,-48 534.5,-77.75 629.25,-77.75 629.25,-48 534.5,-48"/>
<text xml:space="preserve" text-anchor="start" x="542.5" y="-61.3" font-family="Inter, Segoe UI, sans-serif" font-weight="bold" font-size="11.00" fill="#f1f5f9">DeviceFetcher</text>
<polygon fill="#3f3a5e" stroke="none" points="534.5,-16.25 534.5,-48 629.25,-48 629.25,-16.25 534.5,-16.25"/>
<polygon fill="none" stroke="#475569" points="534.5,-16.25 534.5,-48 629.25,-48 629.25,-16.25 534.5,-16.25"/>
<text xml:space="preserve" text-anchor="start" x="542.5" y="-30.55" font-family="Inter, Segoe UI, sans-serif" font-size="9.00" fill="#c4b5fd">slot &#160;</text>
<text xml:space="preserve" text-anchor="start" x="562" y="-30.55" font-family="Inter, Segoe UI, sans-serif" font-size="11.00" fill="#e2e8f0">fetchForPid</text>
</g>
<!-- DREG -->
<g id="node3" class="node">
<title>DREG</title>
<polygon fill="#334155" stroke="none" points="231.38,-649.25 231.38,-710.75 333.62,-710.75 333.62,-649.25 231.38,-649.25"/>
<polygon fill="#334155" stroke="none" points="231.38,-681 231.38,-710.75 333.62,-710.75 333.62,-681 231.38,-681"/>
<text xml:space="preserve" text-anchor="start" x="242" y="-694.3" font-family="Inter, Segoe UI, sans-serif" font-weight="bold" font-size="11.00" fill="#f1f5f9">DeviceRegistry</text>
<polygon fill="#3f301e" stroke="none" points="231.38,-649.25 231.38,-681 333.62,-681 333.62,-649.25 231.38,-649.25"/>
<polygon fill="none" stroke="#475569" points="231.38,-649.25 231.38,-681 333.62,-681 333.62,-649.25 231.38,-649.25"/>
<text xml:space="preserve" text-anchor="start" x="239.38" y="-663.55" font-family="Inter, Segoe UI, sans-serif" font-size="9.00" fill="#fcd34d">method &#160;</text>
<text xml:space="preserve" text-anchor="start" x="276.12" y="-663.55" font-family="Inter, Segoe UI, sans-serif" font-size="11.00" fill="#e2e8f0">findByPid</text>
</g>
<!-- DMGR -->
<g id="node4" class="node">
<title>DMGR</title>
<polygon fill="#334155" stroke="none" points="200.12,-74 200.12,-396 364.88,-396 364.88,-74 200.12,-74"/>
<polygon fill="#334155" stroke="none" points="200.12,-364.5 200.12,-396 364.88,-396 364.88,-364.5 200.12,-364.5"/>
<text xml:space="preserve" text-anchor="start" x="227.75" y="-377.7" font-family="Inter, Segoe UI, sans-serif" font-weight="bold" font-size="14.00" fill="#f1f5f9">DeviceManager</text>
<polygon fill="#334155" stroke="none" points="200.12,-338.25 200.12,-364.5 364.88,-364.5 364.88,-338.25 200.12,-338.25"/>
<text xml:space="preserve" text-anchor="start" x="260.38" y="-350" font-family="Inter, Segoe UI, sans-serif" font-weight="bold" font-size="10.00" fill="#c4b5fd">Methods</text>
<polygon fill="#3f3a5e" stroke="none" points="200.12,-308.5 200.12,-338.25 364.88,-338.25 364.88,-308.5 200.12,-308.5"/>
<polygon fill="none" stroke="#8b5cf6" points="200.12,-308.5 200.12,-338.25 364.88,-338.25 364.88,-308.5 200.12,-308.5"/>
<text xml:space="preserve" text-anchor="start" x="207.12" y="-319.25" font-family="Inter, Segoe UI, sans-serif" font-size="11.00" fill="#e2e8f0">start</text>
<polygon fill="#3f3a5e" stroke="none" points="200.12,-278.75 200.12,-308.5 364.88,-308.5 364.88,-278.75 200.12,-278.75"/>
<polygon fill="none" stroke="#8b5cf6" points="200.12,-278.75 200.12,-308.5 364.88,-308.5 364.88,-278.75 200.12,-278.75"/>
<text xml:space="preserve" text-anchor="start" x="207.12" y="-289.5" font-family="Inter, Segoe UI, sans-serif" font-size="11.00" fill="#e2e8f0">simulateAllFromRegistry</text>
<polygon fill="#3f3a5e" stroke="none" points="200.12,-249 200.12,-278.75 364.88,-278.75 364.88,-249 200.12,-249"/>
<polygon fill="none" stroke="#8b5cf6" points="200.12,-249 200.12,-278.75 364.88,-278.75 364.88,-249 200.12,-249"/>
<text xml:space="preserve" text-anchor="start" x="207.12" y="-259.75" font-family="Inter, Segoe UI, sans-serif" font-size="11.00" fill="#e2e8f0">physicalDevices</text>
<polygon fill="#3f3a5e" stroke="none" points="200.12,-219.25 200.12,-249 364.88,-249 364.88,-219.25 200.12,-219.25"/>
<polygon fill="none" stroke="#8b5cf6" points="200.12,-219.25 200.12,-249 364.88,-249 364.88,-219.25 200.12,-219.25"/>
<text xml:space="preserve" text-anchor="start" x="207.12" y="-230" font-family="Inter, Segoe UI, sans-serif" font-size="11.00" fill="#e2e8f0">physicalDeviceBySerial</text>
<polygon fill="#3f3a5e" stroke="none" points="200.12,-189.5 200.12,-219.25 364.88,-219.25 364.88,-189.5 200.12,-189.5"/>
<polygon fill="none" stroke="#8b5cf6" points="200.12,-189.5 200.12,-219.25 364.88,-219.25 364.88,-189.5 200.12,-189.5"/>
<text xml:space="preserve" text-anchor="start" x="207.12" y="-200.25" font-family="Inter, Segoe UI, sans-serif" font-size="11.00" fill="#e2e8f0">sessions</text>
<polygon fill="#334155" stroke="none" points="200.12,-163.25 200.12,-189.5 364.88,-189.5 364.88,-163.25 200.12,-163.25"/>
<text xml:space="preserve" text-anchor="start" x="264.88" y="-175" font-family="Inter, Segoe UI, sans-serif" font-weight="bold" font-size="10.00" fill="#c4b5fd">Signals</text>
<polygon fill="#3f3a5e" stroke="none" points="200.12,-133.5 200.12,-163.25 364.88,-163.25 364.88,-133.5 200.12,-133.5"/>
<polygon fill="none" stroke="#8b5cf6" points="200.12,-133.5 200.12,-163.25 364.88,-163.25 364.88,-133.5 200.12,-133.5"/>
<text xml:space="preserve" text-anchor="start" x="207.12" y="-144.25" font-family="Inter, Segoe UI, sans-serif" font-size="11.00" fill="#e2e8f0">physicalDeviceAdded(dev)</text>
<polygon fill="#3f3a5e" stroke="none" points="200.12,-103.75 200.12,-133.5 364.88,-133.5 364.88,-103.75 200.12,-103.75"/>
<polygon fill="none" stroke="#8b5cf6" points="200.12,-103.75 200.12,-133.5 364.88,-133.5 364.88,-103.75 200.12,-103.75"/>
<text xml:space="preserve" text-anchor="start" x="207.12" y="-114.5" font-family="Inter, Segoe UI, sans-serif" font-size="11.00" fill="#e2e8f0">physicalDeviceRemoved(dev)</text>
<polygon fill="#3f3a5e" stroke="none" points="200.12,-74 200.12,-103.75 364.88,-103.75 364.88,-74 200.12,-74"/>
<polygon fill="none" stroke="#8b5cf6" points="200.12,-74 200.12,-103.75 364.88,-103.75 364.88,-74 200.12,-74"/>
<text xml:space="preserve" text-anchor="start" x="207.12" y="-84.75" font-family="Inter, Segoe UI, sans-serif" font-size="11.00" fill="#e2e8f0">unknownDeviceDetected(pid)</text>
</g>
<!-- DMGR&#45;&gt;AR -->
<g id="edge1" class="edge">
<title>DMGR:w&#45;&gt;AR:e</title>
<path fill="none" stroke="#c4b5fd" d="M199.12,-148.38C166.07,-148.38 176.59,-97.22 200.12,-74 252.25,-22.57 296.72,-47.24 364.88,-74 438.83,-103.04 421.92,-166.59 495.88,-195.62 567.03,-223.56 613.23,-249.08 667.88,-195.62 678.86,-184.88 685.42,-164.22 679.12,-154.84"/>
<polygon fill="#c4b5fd" stroke="#c4b5fd" points="680.78,-151.75 670.24,-150.65 677.79,-158.08 680.78,-151.75"/>
</g>
<!-- DMGR&#45;&gt;AR -->
<g id="edge2" class="edge">
<title>DMGR:w&#45;&gt;AR:e</title>
<path fill="none" stroke="#c4b5fd" d="M199.12,-118.62C179.29,-118.62 185.94,-87.87 200.12,-74 245.91,-29.22 424.15,-83.67 487.88,-90 507.82,-91.98 653.74,-88.16 667.88,-102.38 669.12,-103.63 670.25,-105.25 671.13,-106.97"/>
<polygon fill="#c4b5fd" stroke="#c4b5fd" points="667.7,-106.27 669.17,-116.77 674.56,-107.65 667.7,-106.27"/>
</g>
<!-- DMGR&#45;&gt;DF -->
<g id="edge3" class="edge">
<title>DMGR:w&#45;&gt;DF:e</title>
<path fill="none" stroke="#c4b5fd" d="M199.12,-88.88C192.5,-88.88 195.69,-78.92 200.12,-74 301.08,38.03 384.24,-29.13 534.5,-16.25 647.07,-6.6 654.5,-23.46 641.14,-29.84"/>
<polygon fill="#c4b5fd" stroke="#c4b5fd" points="640.8,-26.33 631.73,-31.81 642.24,-33.18 640.8,-26.33"/>
</g>
<!-- DMGR&#45;&gt;DREG -->
<g id="edge6" class="edge">
<title>DMGR:e&#45;&gt;DREG:w</title>
<path fill="none" stroke="#fcd34d" stroke-dasharray="5,2" d="M365.88,-293.62C411.38,-293.62 393.66,-360.76 364.88,-396 315.21,-456.82 257.51,-389.53 192.12,-433 143.02,-465.65 133.97,-485.62 116.31,-541.88 95.1,-609.47 149.68,-659.79 219.11,-664.73"/>
<polygon fill="#fcd34d" stroke="#fcd34d" points="218.74,-668.22 228.86,-665.07 218.99,-661.22 218.74,-668.22"/>
<text xml:space="preserve" text-anchor="start" x="85.62" y="-544.88" font-family="Inter, Segoe UI, sans-serif" font-size="10.00" fill="#94a3b8">reads</text>
</g>
<!-- PD -->
<g id="node5" class="node">
<title>PD</title>
<polygon fill="#334155" stroke="none" points="214.12,-531.38 214.12,-624.62 350.88,-624.62 350.88,-531.38 214.12,-531.38"/>
<polygon fill="#334155" stroke="none" points="214.12,-594.88 214.12,-624.62 350.88,-624.62 350.88,-594.88 214.12,-594.88"/>
<text xml:space="preserve" text-anchor="start" x="242.38" y="-608.17" font-family="Inter, Segoe UI, sans-serif" font-weight="bold" font-size="11.00" fill="#f1f5f9">PhysicalDevice</text>
<polygon fill="#3f301e" stroke="none" points="214.12,-563.12 214.12,-594.88 350.88,-594.88 350.88,-563.12 214.12,-563.12"/>
<polygon fill="none" stroke="#475569" points="214.12,-563.12 214.12,-594.88 350.88,-594.88 350.88,-563.12 214.12,-563.12"/>
<text xml:space="preserve" text-anchor="start" x="223.62" y="-577.42" font-family="Inter, Segoe UI, sans-serif" font-size="9.00" fill="#fcd34d">method &#160;</text>
<text xml:space="preserve" text-anchor="start" x="260.38" y="-577.42" font-family="Inter, Segoe UI, sans-serif" font-size="11.00" fill="#e2e8f0">attachTransport</text>
<polygon fill="#3f301e" stroke="none" points="214.12,-531.38 214.12,-563.12 350.88,-563.12 350.88,-531.38 214.12,-531.38"/>
<polygon fill="none" stroke="#475569" points="214.12,-531.38 214.12,-563.12 350.88,-563.12 350.88,-531.38 214.12,-531.38"/>
<text xml:space="preserve" text-anchor="start" x="222.12" y="-545.67" font-family="Inter, Segoe UI, sans-serif" font-size="9.00" fill="#fcd34d">method &#160;</text>
<text xml:space="preserve" text-anchor="start" x="258.88" y="-545.67" font-family="Inter, Segoe UI, sans-serif" font-size="11.00" fill="#e2e8f0">detachTransport</text>
</g>
<!-- DMGR&#45;&gt;PD -->
<g id="edge4" class="edge">
<title>DMGR:e&#45;&gt;PD:w</title>
<path fill="none" stroke="#fcd34d" stroke-dasharray="5,2" d="M365.88,-263.88C395.24,-263.88 383.42,-373.24 364.88,-396 286.53,-492.15 169.6,-358.87 92.31,-455.88 77.18,-474.87 76.83,-573.2 201.87,-578.76"/>
<polygon fill="#fcd34d" stroke="#fcd34d" points="201.54,-582.25 211.61,-578.97 201.69,-575.25 201.54,-582.25"/>
<text xml:space="preserve" text-anchor="start" x="61.62" y="-458.88" font-family="Inter, Segoe UI, sans-serif" font-size="10.00" fill="#94a3b8">owns + attaches</text>
</g>
<!-- DS -->
<g id="node6" class="node">
<title>DS</title>
<polygon fill="#334155" stroke="none" points="203.25,-445.25 203.25,-506.75 361.75,-506.75 361.75,-445.25 203.25,-445.25"/>
<polygon fill="#334155" stroke="none" points="203.25,-477 203.25,-506.75 361.75,-506.75 361.75,-477 203.25,-477"/>
<text xml:space="preserve" text-anchor="start" x="244.25" y="-490.3" font-family="Inter, Segoe UI, sans-serif" font-weight="bold" font-size="11.00" fill="#f1f5f9">DeviceSession</text>
<polygon fill="#3f301e" stroke="none" points="203.25,-445.25 203.25,-477 361.75,-477 361.75,-445.25 203.25,-445.25"/>
<polygon fill="none" stroke="#475569" points="203.25,-445.25 203.25,-477 361.75,-477 361.75,-445.25 203.25,-445.25"/>
<text xml:space="preserve" text-anchor="start" x="211.25" y="-459.55" font-family="Inter, Segoe UI, sans-serif" font-size="9.00" fill="#fcd34d">method &#160;</text>
<text xml:space="preserve" text-anchor="start" x="248" y="-459.55" font-family="Inter, Segoe UI, sans-serif" font-size="11.00" fill="#e2e8f0">enumerateAndSetup</text>
</g>
<!-- DMGR&#45;&gt;DS -->
<g id="edge5" class="edge">
<title>DMGR:e&#45;&gt;DS:w</title>
<path fill="none" stroke="#fcd34d" stroke-dasharray="5,2" d="M190.97,-459.68C167.43,-453.76 147,-430.95 163,-413.5 193.43,-380.31 334.35,-429.11 364.88,-396 393.74,-364.69 408.46,-204.38 365.88,-204.38"/>
<polygon fill="#fcd34d" stroke="#fcd34d" points="190.38,-463.13 200.75,-460.93 191.28,-456.19 190.38,-463.13"/>
<text xml:space="preserve" text-anchor="start" x="163" y="-416.5" font-family="Inter, Segoe UI, sans-serif" font-size="10.00" fill="#94a3b8">creates + enumerates</text>
</g>
</g>
</svg>
