<?xml version="1.0" encoding="UTF-8" standalone="no"?>
<!DOCTYPE svg PUBLIC "-//W3C//DTD SVG 1.1//EN"
 "http://www.w3.org/Graphics/SVG/1.1/DTD/svg11.dtd">
<!-- Generated by graphviz version 14.1.5 (0)
 -->
<!-- Title: G Pages: 1 -->
<svg width="660pt" height="1099pt"
 viewBox="0.00 0.00 660.00 1099.00" xmlns="http://www.w3.org/2000/svg" xmlns:xlink="http://www.w3.org/1999/xlink">
<g id="graph0" class="graph" transform="scale(1 1) rotate(0) translate(4 1095)">
<title>G</title>
<polygon fill="#0f172a" stroke="none" points="-4,4 -4,-1095 655.9,-1095 655.9,4 -4,4"/>
<g id="clust1" class="cluster">
<title>cluster_vm</title>
<path fill="#475569" stroke="#475569" d="M405.89,-371C405.89,-371 595.39,-371 595.39,-371 601.39,-371 607.39,-377 607.39,-383 607.39,-383 607.39,-492 607.39,-492 607.39,-498 601.39,-504 595.39,-504 595.39,-504 405.89,-504 405.89,-504 399.89,-504 393.89,-498 393.89,-492 393.89,-492 393.89,-383 393.89,-383 393.89,-377 399.89,-371 405.89,-371"/>
<text xml:space="preserve" text-anchor="start" x="451.14" y="-489.6" font-family="Times,serif" font-weight="bold" font-size="12.00" fill="#7dd3fc"> &#160;ViewModel &#160;</text>
</g>
<g id="clust2" class="cluster">
<title>cluster_svc</title>
<path fill="#475569" stroke="#475569" d="M98.64,-832C98.64,-832 267.89,-832 267.89,-832 273.89,-832 279.89,-838 279.89,-844 279.89,-844 279.89,-1071 279.89,-1071 279.89,-1077 273.89,-1083 267.89,-1083 267.89,-1083 98.64,-1083 98.64,-1083 92.64,-1083 86.64,-1077 86.64,-1071 86.64,-1071 86.64,-844 86.64,-844 86.64,-838 92.64,-832 98.64,-832"/>
<text xml:space="preserve" text-anchor="start" x="142.76" y="-1068.6" font-family="Times,serif" font-weight="bold" font-size="12.00" fill="#c4b5fd"> &#160;Services &#160;</text>
</g>
<g id="clust4" class="cluster">
<title>cluster_core</title>
<path fill="#475569" stroke="#475569" d="M105.76,-8C105.76,-8 260.76,-8 260.76,-8 266.76,-8 272.76,-14 272.76,-20 272.76,-20 272.76,-812 272.76,-812 272.76,-818 266.76,-824 260.76,-824 260.76,-824 105.76,-824 105.76,-824 99.76,-824 93.76,-818 93.76,-812 93.76,-812 93.76,-20 93.76,-20 93.76,-14 99.76,-8 105.76,-8"/>
<text xml:space="preserve" text-anchor="start" x="154.76" y="-809.6" font-family="Times,serif" font-weight="bold" font-size="12.00" fill="#fcd34d"> &#160;Core &#160;</text>
</g>
<!-- DM -->
<g id="node1" class="node">
<title>DM</title>
<polygon fill="#334155" stroke="none" points="401.89,-379.38 401.89,-472.62 599.39,-472.62 599.39,-379.38 401.89,-379.38"/>
<polygon fill="#334155" stroke="none" points="401.89,-442.88 401.89,-472.62 599.39,-472.62 599.39,-442.88 401.89,-442.88"/>
<text xml:space="preserve" text-anchor="start" x="465.76" y="-456.18" font-family="Inter, Segoe UI, sans-serif" font-weight="bold" font-size="11.00" fill="#f1f5f9">DeviceModel</text>
<polygon fill="#1e3a5f" stroke="none" points="401.89,-411.12 401.89,-442.88 599.39,-442.88 599.39,-411.12 401.89,-411.12"/>
<polygon fill="none" stroke="#475569" points="401.89,-411.12 401.89,-442.88 599.39,-442.88 599.39,-411.12 401.89,-411.12"/>
<text xml:space="preserve" text-anchor="start" x="409.89" y="-425.43" font-family="Inter, Segoe UI, sans-serif" font-size="9.00" fill="#7dd3fc">slot &#160;</text>
<text xml:space="preserve" text-anchor="start" x="429.39" y="-425.43" font-family="Inter, Segoe UI, sans-serif" font-size="11.00" fill="#e2e8f0">onStateChanged (dataChanged)</text>
<polygon fill="#1e3a5f" stroke="none" points="401.89,-379.38 401.89,-411.12 599.39,-411.12 599.39,-379.38 401.89,-379.38"/>
<polygon fill="none" stroke="#475569" points="401.89,-379.38 401.89,-411.12 599.39,-411.12 599.39,-379.38 401.89,-379.38"/>
<text xml:space="preserve" text-anchor="start" x="442.89" y="-393.68" font-family="Inter, Segoe UI, sans-serif" font-size="9.00" fill="#7dd3fc">slot &#160;</text>
<text xml:space="preserve" text-anchor="start" x="462.39" y="-393.68" font-family="Inter, Segoe UI, sans-serif" font-size="11.00" fill="#e2e8f0">onBatteryChanged</text>
</g>
<!-- BAD -->
<g id="node2" class="node">
<title>BAD</title>
<polygon fill="#334155" stroke="none" points="99.14,-840.5 99.14,-965.5 267.39,-965.5 267.39,-840.5 99.14,-840.5"/>
<polygon fill="#334155" stroke="none" points="99.14,-935.75 99.14,-965.5 267.39,-965.5 267.39,-935.75 99.14,-935.75"/>
<text xml:space="preserve" text-anchor="start" x="116.51" y="-949.05" font-family="Inter, Segoe UI, sans-serif" font-weight="bold" font-size="11.00" fill="#f1f5f9">ButtonActionDispatcher</text>
<polygon fill="#3f3a5e" stroke="none" points="99.14,-904 99.14,-935.75 267.39,-935.75 267.39,-904 99.14,-904"/>
<polygon fill="none" stroke="#475569" points="99.14,-904 99.14,-935.75 267.39,-935.75 267.39,-904 99.14,-904"/>
<text xml:space="preserve" text-anchor="start" x="135.64" y="-918.3" font-family="Inter, Segoe UI, sans-serif" font-size="9.00" fill="#c4b5fd">slot &#160;</text>
<text xml:space="preserve" text-anchor="start" x="155.14" y="-918.3" font-family="Inter, Segoe UI, sans-serif" font-size="11.00" fill="#e2e8f0">onGestureRaw</text>
<polygon fill="#3f3a5e" stroke="none" points="99.14,-872.25 99.14,-904 267.39,-904 267.39,-872.25 99.14,-872.25"/>
<polygon fill="none" stroke="#475569" points="99.14,-872.25 99.14,-904 267.39,-904 267.39,-872.25 99.14,-872.25"/>
<text xml:space="preserve" text-anchor="start" x="107.14" y="-886.55" font-family="Inter, Segoe UI, sans-serif" font-size="9.00" fill="#c4b5fd">slot &#160;</text>
<text xml:space="preserve" text-anchor="start" x="126.64" y="-886.55" font-family="Inter, Segoe UI, sans-serif" font-size="11.00" fill="#e2e8f0">onDivertedButtonPressed</text>
<polygon fill="#3f3a5e" stroke="none" points="99.14,-840.5 99.14,-872.25 267.39,-872.25 267.39,-840.5 99.14,-840.5"/>
<polygon fill="none" stroke="#475569" points="99.14,-840.5 99.14,-872.25 267.39,-872.25 267.39,-840.5 99.14,-840.5"/>
<text xml:space="preserve" text-anchor="start" x="110.51" y="-854.8" font-family="Inter, Segoe UI, sans-serif" font-size="9.00" fill="#c4b5fd">slot &#160;</text>
<text xml:space="preserve" text-anchor="start" x="130.01" y="-854.8" font-family="Inter, Segoe UI, sans-serif" font-size="11.00" fill="#e2e8f0">onThumbWheelRotation</text>
</g>
<!-- PO -->
<g id="node3" class="node">
<title>PO</title>
<polygon fill="#334155" stroke="none" points="94.64,-990.25 94.64,-1051.75 271.89,-1051.75 271.89,-990.25 94.64,-990.25"/>
<polygon fill="#334155" stroke="none" points="94.64,-1022 94.64,-1051.75 271.89,-1051.75 271.89,-1022 94.64,-1022"/>
<text xml:space="preserve" text-anchor="start" x="130.01" y="-1035.3" font-family="Inter, Segoe UI, sans-serif" font-weight="bold" font-size="11.00" fill="#f1f5f9">ProfileOrchestrator</text>
<polygon fill="#3f3a5e" stroke="none" points="94.64,-990.25 94.64,-1022 271.89,-1022 271.89,-990.25 94.64,-990.25"/>
<polygon fill="none" stroke="#475569" points="94.64,-990.25 94.64,-1022 271.89,-1022 271.89,-990.25 94.64,-990.25"/>
<text xml:space="preserve" text-anchor="start" x="102.64" y="-1004.55" font-family="Inter, Segoe UI, sans-serif" font-size="9.00" fill="#c4b5fd">slot &#160;</text>
<text xml:space="preserve" text-anchor="start" x="122.14" y="-1004.55" font-family="Inter, Segoe UI, sans-serif" font-size="11.00" fill="#e2e8f0">onTransportSetupComplete</text>
</g>
<!-- DS -->
<g id="node4" class="node">
<title>DS</title>
<polygon fill="#334155" stroke="none" points="101.76,-16 101.76,-268 264.76,-268 264.76,-16 101.76,-16"/>
<polygon fill="#334155" stroke="none" points="101.76,-238.25 101.76,-268 264.76,-268 264.76,-238.25 101.76,-238.25"/>
<text xml:space="preserve" text-anchor="start" x="145.01" y="-251.55" font-family="Inter, Segoe UI, sans-serif" font-weight="bold" font-size="11.00" fill="#f1f5f9">DeviceSession</text>
<polygon fill="#3f301e" stroke="none" points="101.76,-206.5 101.76,-238.25 264.76,-238.25 264.76,-206.5 101.76,-206.5"/>
<polygon fill="none" stroke="#475569" points="101.76,-206.5 101.76,-238.25 264.76,-238.25 264.76,-206.5 101.76,-206.5"/>
<text xml:space="preserve" text-anchor="start" x="129.64" y="-220.8" font-family="Inter, Segoe UI, sans-serif" font-size="9.00" fill="#fcd34d">signal &#160;</text>
<text xml:space="preserve" text-anchor="start" x="158.89" y="-220.8" font-family="Inter, Segoe UI, sans-serif" font-size="11.00" fill="#e2e8f0">setupComplete</text>
<polygon fill="#3f301e" stroke="none" points="101.76,-174.75 101.76,-206.5 264.76,-206.5 264.76,-174.75 101.76,-174.75"/>
<polygon fill="none" stroke="#475569" points="101.76,-174.75 101.76,-206.5 264.76,-206.5 264.76,-174.75 101.76,-174.75"/>
<text xml:space="preserve" text-anchor="start" x="131.89" y="-189.05" font-family="Inter, Segoe UI, sans-serif" font-size="9.00" fill="#fcd34d">signal &#160;</text>
<text xml:space="preserve" text-anchor="start" x="161.14" y="-189.05" font-family="Inter, Segoe UI, sans-serif" font-size="11.00" fill="#e2e8f0">gestureRawXY</text>
<polygon fill="#3f301e" stroke="none" points="101.76,-143 101.76,-174.75 264.76,-174.75 264.76,-143 101.76,-143"/>
<polygon fill="none" stroke="#475569" points="101.76,-143 101.76,-174.75 264.76,-174.75 264.76,-143 101.76,-143"/>
<text xml:space="preserve" text-anchor="start" x="109.76" y="-157.3" font-family="Inter, Segoe UI, sans-serif" font-size="9.00" fill="#fcd34d">signal &#160;</text>
<text xml:space="preserve" text-anchor="start" x="139.01" y="-157.3" font-family="Inter, Segoe UI, sans-serif" font-size="11.00" fill="#e2e8f0">divertedButtonPressed</text>
<polygon fill="#3f301e" stroke="none" points="101.76,-111.25 101.76,-143 264.76,-143 264.76,-111.25 101.76,-111.25"/>
<polygon fill="none" stroke="#475569" points="101.76,-111.25 101.76,-143 264.76,-143 264.76,-111.25 101.76,-111.25"/>
<text xml:space="preserve" text-anchor="start" x="113.51" y="-125.55" font-family="Inter, Segoe UI, sans-serif" font-size="9.00" fill="#fcd34d">signal &#160;</text>
<text xml:space="preserve" text-anchor="start" x="142.76" y="-125.55" font-family="Inter, Segoe UI, sans-serif" font-size="11.00" fill="#e2e8f0">thumbWheelRotation</text>
<polygon fill="#3f301e" stroke="none" points="101.76,-79.5 101.76,-111.25 264.76,-111.25 264.76,-79.5 101.76,-79.5"/>
<polygon fill="none" stroke="#475569" points="101.76,-79.5 101.76,-111.25 264.76,-111.25 264.76,-79.5 101.76,-79.5"/>
<text xml:space="preserve" text-anchor="start" x="127.76" y="-93.8" font-family="Inter, Segoe UI, sans-serif" font-size="9.00" fill="#fcd34d">signal &#160;</text>
<text xml:space="preserve" text-anchor="start" x="157.01" y="-93.8" font-family="Inter, Segoe UI, sans-serif" font-size="11.00" fill="#e2e8f0">batteryChanged</text>
<polygon fill="#3f301e" stroke="none" points="101.76,-47.75 101.76,-79.5 264.76,-79.5 264.76,-47.75 101.76,-47.75"/>
<polygon fill="none" stroke="#475569" points="101.76,-47.75 101.76,-79.5 264.76,-79.5 264.76,-47.75 101.76,-47.75"/>
<text xml:space="preserve" text-anchor="start" x="119.14" y="-62.05" font-family="Inter, Segoe UI, sans-serif" font-size="9.00" fill="#fcd34d">signal &#160;</text>
<text xml:space="preserve" text-anchor="start" x="148.39" y="-62.05" font-family="Inter, Segoe UI, sans-serif" font-size="11.00" fill="#e2e8f0">smartShiftChanged</text>
<polygon fill="#3f301e" stroke="none" points="101.76,-16 101.76,-47.75 264.76,-47.75 264.76,-16 101.76,-16"/>
<polygon fill="none" stroke="#475569" points="101.76,-16 101.76,-47.75 264.76,-47.75 264.76,-16 101.76,-16"/>
<text xml:space="preserve" text-anchor="start" x="134.51" y="-30.3" font-family="Inter, Segoe UI, sans-serif" font-size="9.00" fill="#fcd34d">signal &#160;</text>
<text xml:space="preserve" text-anchor="start" x="163.76" y="-30.3" font-family="Inter, Segoe UI, sans-serif" font-size="11.00" fill="#e2e8f0">disconnected</text>
</g>
<!-- PD -->
<g id="node5" class="node">
<title>PD</title>
<polygon fill="#334155" stroke="none" points="105.39,-292.75 105.39,-793.25 261.14,-793.25 261.14,-292.75 105.39,-292.75"/>
<polygon fill="#334155" stroke="none" points="105.39,-761.75 105.39,-793.25 261.14,-793.25 261.14,-761.75 105.39,-761.75"/>
<text xml:space="preserve" text-anchor="start" x="130.76" y="-774.95" font-family="Inter, Segoe UI, sans-serif" font-weight="bold" font-size="14.00" fill="#f1f5f9">PhysicalDevice</text>
<polygon fill="#334155" stroke="none" points="105.39,-735.5 105.39,-761.75 261.14,-761.75 261.14,-735.5 105.39,-735.5"/>
<text xml:space="preserve" text-anchor="start" x="161.14" y="-747.25" font-family="Inter, Segoe UI, sans-serif" font-weight="bold" font-size="10.00" fill="#c4b5fd">Methods</text>
<polygon fill="#3f3a5e" stroke="none" points="105.39,-705.75 105.39,-735.5 261.14,-735.5 261.14,-705.75 105.39,-705.75"/>
<polygon fill="none" stroke="#8b5cf6" points="105.39,-705.75 105.39,-735.5 261.14,-735.5 261.14,-705.75 105.39,-705.75"/>
<text xml:space="preserve" text-anchor="start" x="112.39" y="-716.5" font-family="Inter, Segoe UI, sans-serif" font-size="11.00" fill="#e2e8f0">attachTransport</text>
<polygon fill="#3f3a5e" stroke="none" points="105.39,-676 105.39,-705.75 261.14,-705.75 261.14,-676 105.39,-676"/>
<polygon fill="none" stroke="#8b5cf6" points="105.39,-676 105.39,-705.75 261.14,-705.75 261.14,-676 105.39,-676"/>
<text xml:space="preserve" text-anchor="start" x="112.39" y="-686.75" font-family="Inter, Segoe UI, sans-serif" font-size="11.00" fill="#e2e8f0">detachTransport</text>
<polygon fill="#3f3a5e" stroke="none" points="105.39,-646.25 105.39,-676 261.14,-676 261.14,-646.25 105.39,-646.25"/>
<polygon fill="none" stroke="#8b5cf6" points="105.39,-646.25 105.39,-676 261.14,-676 261.14,-646.25 105.39,-646.25"/>
<text xml:space="preserve" text-anchor="start" x="112.39" y="-657" font-family="Inter, Segoe UI, sans-serif" font-size="11.00" fill="#e2e8f0">primary</text>
<polygon fill="#3f3a5e" stroke="none" points="105.39,-616.5 105.39,-646.25 261.14,-646.25 261.14,-616.5 105.39,-616.5"/>
<polygon fill="none" stroke="#8b5cf6" points="105.39,-616.5 105.39,-646.25 261.14,-646.25 261.14,-616.5 105.39,-616.5"/>
<text xml:space="preserve" text-anchor="start" x="112.39" y="-627.25" font-family="Inter, Segoe UI, sans-serif" font-size="11.00" fill="#e2e8f0">transports</text>
<polygon fill="#3f3a5e" stroke="none" points="105.39,-586.75 105.39,-616.5 261.14,-616.5 261.14,-586.75 105.39,-586.75"/>
<polygon fill="none" stroke="#8b5cf6" points="105.39,-586.75 105.39,-616.5 261.14,-616.5 261.14,-586.75 105.39,-586.75"/>
<text xml:space="preserve" text-anchor="start" x="112.39" y="-597.5" font-family="Inter, Segoe UI, sans-serif" font-size="11.00" fill="#e2e8f0">deviceSerial</text>
<polygon fill="#334155" stroke="none" points="105.39,-560.5 105.39,-586.75 261.14,-586.75 261.14,-560.5 105.39,-560.5"/>
<text xml:space="preserve" text-anchor="start" x="165.64" y="-572.25" font-family="Inter, Segoe UI, sans-serif" font-weight="bold" font-size="10.00" fill="#c4b5fd">Signals</text>
<polygon fill="#3f3a5e" stroke="none" points="105.39,-530.75 105.39,-560.5 261.14,-560.5 261.14,-530.75 105.39,-530.75"/>
<polygon fill="none" stroke="#8b5cf6" points="105.39,-530.75 105.39,-560.5 261.14,-560.5 261.14,-530.75 105.39,-530.75"/>
<text xml:space="preserve" text-anchor="start" x="112.39" y="-541.5" font-family="Inter, Segoe UI, sans-serif" font-size="11.00" fill="#e2e8f0">transportSetupComplete</text>
<polygon fill="#3f3a5e" stroke="none" points="105.39,-501 105.39,-530.75 261.14,-530.75 261.14,-501 105.39,-501"/>
<polygon fill="none" stroke="#8b5cf6" points="105.39,-501 105.39,-530.75 261.14,-530.75 261.14,-501 105.39,-501"/>
<text xml:space="preserve" text-anchor="start" x="112.39" y="-511.75" font-family="Inter, Segoe UI, sans-serif" font-size="11.00" fill="#e2e8f0">gestureRawXY</text>
<polygon fill="#3f3a5e" stroke="none" points="105.39,-471.25 105.39,-501 261.14,-501 261.14,-471.25 105.39,-471.25"/>
<polygon fill="none" stroke="#8b5cf6" points="105.39,-471.25 105.39,-501 261.14,-501 261.14,-471.25 105.39,-471.25"/>
<text xml:space="preserve" text-anchor="start" x="112.39" y="-482" font-family="Inter, Segoe UI, sans-serif" font-size="11.00" fill="#e2e8f0">divertedButtonPressed</text>
<polygon fill="#3f3a5e" stroke="none" points="105.39,-441.5 105.39,-471.25 261.14,-471.25 261.14,-441.5 105.39,-441.5"/>
<polygon fill="none" stroke="#8b5cf6" points="105.39,-441.5 105.39,-471.25 261.14,-471.25 261.14,-441.5 105.39,-441.5"/>
<text xml:space="preserve" text-anchor="start" x="112.39" y="-452.25" font-family="Inter, Segoe UI, sans-serif" font-size="11.00" fill="#e2e8f0">thumbWheelRotation</text>
<polygon fill="#3f3a5e" stroke="none" points="105.39,-411.75 105.39,-441.5 261.14,-441.5 261.14,-411.75 105.39,-411.75"/>
<polygon fill="none" stroke="#8b5cf6" points="105.39,-411.75 105.39,-441.5 261.14,-441.5 261.14,-411.75 105.39,-411.75"/>
<text xml:space="preserve" text-anchor="start" x="112.39" y="-422.5" font-family="Inter, Segoe UI, sans-serif" font-size="11.00" fill="#e2e8f0">stateChanged</text>
<polygon fill="#3f3a5e" stroke="none" points="105.39,-382 105.39,-411.75 261.14,-411.75 261.14,-382 105.39,-382"/>
<polygon fill="none" stroke="#8b5cf6" points="105.39,-382 105.39,-411.75 261.14,-411.75 261.14,-382 105.39,-382"/>
<text xml:space="preserve" text-anchor="start" x="112.39" y="-392.75" font-family="Inter, Segoe UI, sans-serif" font-size="11.00" fill="#e2e8f0">smartShiftChanged</text>
<polygon fill="#3f3a5e" stroke="none" points="105.39,-352.25 105.39,-382 261.14,-382 261.14,-352.25 105.39,-352.25"/>
<polygon fill="none" stroke="#8b5cf6" points="105.39,-352.25 105.39,-382 261.14,-382 261.14,-352.25 105.39,-352.25"/>
<text xml:space="preserve" text-anchor="start" x="112.39" y="-363" font-family="Inter, Segoe UI, sans-serif" font-size="11.00" fill="#e2e8f0">scrollConfigChanged</text>
<polygon fill="#3f3a5e" stroke="none" points="105.39,-322.5 105.39,-352.25 261.14,-352.25 261.14,-322.5 105.39,-322.5"/>
<polygon fill="none" stroke="#8b5cf6" points="105.39,-322.5 105.39,-352.25 261.14,-352.25 261.14,-322.5 105.39,-322.5"/>
<text xml:space="preserve" text-anchor="start" x="112.39" y="-333.25" font-family="Inter, Segoe UI, sans-serif" font-size="11.00" fill="#e2e8f0">thumbWheelModeChanged</text>
<polygon fill="#3f3a5e" stroke="none" points="105.39,-292.75 105.39,-322.5 261.14,-322.5 261.14,-292.75 105.39,-292.75"/>
<polygon fill="none" stroke="#8b5cf6" points="105.39,-292.75 105.39,-322.5 261.14,-322.5 261.14,-292.75 105.39,-292.75"/>
<text xml:space="preserve" text-anchor="start" x="112.39" y="-303.5" font-family="Inter, Segoe UI, sans-serif" font-size="11.00" fill="#e2e8f0">currentDPIChanged</text>
</g>
<!-- DS&#45;&gt;PD -->
<g id="edge1" class="edge">
<title>DS:e&#45;&gt;PD:w</title>
<path fill="none" stroke="#fcd34d" d="M96.4,-537.62C78.78,-496.67 89.1,-311.68 105.39,-292.75 152.13,-238.4 217.53,-321.92 264.76,-268 278.12,-252.74 286.04,-222.38 265.76,-222.38"/>
<polygon fill="#fcd34d" stroke="#fcd34d" points="93.78,-539.95 103.32,-544.55 98.73,-535 93.78,-539.95"/>
</g>
<!-- DS&#45;&gt;PD -->
<g id="edge2" class="edge">
<title>DS:e&#45;&gt;PD:w</title>
<path fill="none" stroke="#fcd34d" d="M93.52,-512.31C57.89,-486.43 75.7,-327.25 105.39,-292.75 152.14,-238.42 217.77,-322.13 264.76,-268 287.3,-242.03 300.15,-190.62 265.76,-190.62"/>
<polygon fill="#fcd34d" stroke="#fcd34d" points="92.35,-515.61 102.95,-515.4 94.54,-508.96 92.35,-515.61"/>
</g>
<!-- DS&#45;&gt;PD -->
<g id="edge3" class="edge">
<title>DS:e&#45;&gt;PD:w</title>
<path fill="none" stroke="#fcd34d" d="M93.81,-482.12C64.51,-457.1 79.97,-322.26 105.39,-292.75 152.16,-238.43 217.88,-322.22 264.76,-268 280.62,-249.66 290.01,-158.88 265.76,-158.88"/>
<polygon fill="#fcd34d" stroke="#fcd34d" points="92.38,-485.32 102.97,-485.59 94.86,-478.78 92.38,-485.32"/>
</g>
<!-- DS&#45;&gt;PD -->
<g id="edge4" class="edge">
<title>DS:e&#45;&gt;PD:w</title>
<path fill="none" stroke="#fcd34d" d="M94.2,-451.81C71.12,-427.91 84.24,-317.28 105.39,-292.75 152.19,-238.46 217.93,-322.27 264.76,-268 285.21,-244.3 297.07,-127.12 265.76,-127.12"/>
<polygon fill="#fcd34d" stroke="#fcd34d" points="92.45,-454.86 103,-455.76 95.31,-448.47 92.45,-454.86"/>
</g>
<!-- DS&#45;&gt;PD -->
<g id="edge5" class="edge">
<title>DS:e&#45;&gt;PD:w</title>
<path fill="none" stroke="#fcd34d" d="M94.4,-420.89C77.88,-397.84 88.6,-312.19 105.39,-292.75 152.22,-238.49 217.97,-322.3 264.76,-268 289.8,-238.94 304.12,-95.38 265.76,-95.38"/>
<polygon fill="#fcd34d" stroke="#fcd34d" points="92.66,-423.93 103.07,-425.87 96.14,-417.86 92.66,-423.93"/>
</g>
<!-- DS&#45;&gt;PD -->
<g id="edge6" class="edge">
<title>DS:e&#45;&gt;PD:w</title>
<path fill="none" stroke="#fcd34d" d="M93.41,-395.28C61.27,-384.73 77.83,-324.61 105.39,-292.75 152.28,-238.54 217.99,-322.32 264.76,-268 279.58,-250.79 288.47,-63.62 265.76,-63.62"/>
<polygon fill="#fcd34d" stroke="#fcd34d" points="92.49,-398.68 102.89,-396.66 93.5,-391.75 92.49,-398.68"/>
</g>
<!-- DS&#45;&gt;PD -->
<g id="edge7" class="edge">
<title>DS:e&#45;&gt;PD:w</title>
<path fill="none" stroke="#fcd34d" d="M94.4,-420.89C77.88,-397.84 88.6,-312.19 105.39,-292.75 152.22,-238.49 218.01,-322.34 264.76,-268 281.87,-248.11 292,-31.88 265.76,-31.88"/>
<polygon fill="#fcd34d" stroke="#fcd34d" points="92.66,-423.93 103.07,-425.87 96.14,-417.86 92.66,-423.93"/>
</g>
<!-- PD&#45;&gt;DM -->
<g id="edge12" class="edge">
<title>PD:w&#45;&gt;DM:e</title>
<path fill="none" stroke="#7dd3fc" d="M104.39,-426.62C44.88,-426.62 63.15,-334.67 105.39,-292.75 117.67,-280.56 245.58,-285.17 261.14,-292.75 352.39,-337.22 310.63,-428.16 401.89,-472.62 711.84,-623.66 668.15,-450.65 611.42,-429.14"/>
<polygon fill="#7dd3fc" stroke="#7dd3fc" points="612.36,-425.76 601.87,-427.29 611.02,-432.63 612.36,-425.76"/>
</g>
<!-- PD&#45;&gt;BAD -->
<g id="edge8" class="edge">
<title>PD:w&#45;&gt;BAD:w</title>
<path fill="none" stroke="#c4b5fd" d="M88.76,-913.2C54.42,-860.67 62.91,-515.88 104.39,-515.88"/>
<polygon fill="#c4b5fd" stroke="#c4b5fd" points="86.73,-916.05 96.9,-919 90.79,-910.35 86.73,-916.05"/>
</g>
<!-- PD&#45;&gt;BAD -->
<g id="edge9" class="edge">
<title>PD:w&#45;&gt;BAD:w</title>
<path fill="none" stroke="#c4b5fd" d="M88.81,-881.48C54.64,-829.22 63.12,-486.12 104.39,-486.12"/>
<polygon fill="#c4b5fd" stroke="#c4b5fd" points="86.73,-884.3 96.9,-887.25 90.79,-878.6 86.73,-884.3"/>
</g>
<!-- PD&#45;&gt;BAD -->
<g id="edge10" class="edge">
<title>PD:w&#45;&gt;BAD:w</title>
<path fill="none" stroke="#c4b5fd" d="M88.86,-849.77C54.86,-797.76 63.32,-456.38 104.39,-456.38"/>
<polygon fill="#c4b5fd" stroke="#c4b5fd" points="86.73,-852.55 96.9,-855.5 90.79,-846.85 86.73,-852.55"/>
</g>
<!-- PD&#45;&gt;PO -->
<g id="edge11" class="edge">
<title>PD:w&#45;&gt;PO:w</title>
<path fill="none" stroke="#c4b5fd" d="M104.39,-545.62C9.29,-545.62 -26.32,-883.38 21.64,-965.5 38.14,-993.76 53.21,-1003.91 82.27,-1005.79"/>
<polygon fill="#c4b5fd" stroke="#c4b5fd" points="82.02,-1009.28 92.12,-1006.08 82.23,-1002.28 82.02,-1009.28"/>
</g>
</g>
</svg>
