<?xml version="1.0" encoding="UTF-8" standalone="no"?>
<!DOCTYPE svg PUBLIC "-//W3C//DTD SVG 1.1//EN"
 "http://www.w3.org/Graphics/SVG/1.1/DTD/svg11.dtd">
<!-- Generated by graphviz version 14.1.5 (0)
 -->
<!-- Title: G Pages: 1 -->
<svg width="498pt" height="434pt"
 viewBox="0.00 0.00 498.00 434.00" xmlns="http://www.w3.org/2000/svg" xmlns:xlink="http://www.w3.org/1999/xlink">
<g id="graph0" class="graph" transform="scale(1 1) rotate(0) translate(4 430)">
<title>G</title>
<polygon fill="#0f172a" stroke="none" points="-4,4 -4,-430 493.87,-430 493.87,4 -4,4"/>
<g id="clust1" class="cluster">
<title>cluster_vm</title>
<path fill="#475569" stroke="#475569" d="M20,-104C20,-104 145,-104 145,-104 151,-104 157,-110 157,-116 157,-116 157,-225 157,-225 157,-231 151,-237 145,-237 145,-237 20,-237 20,-237 14,-237 8,-231 8,-225 8,-225 8,-116 8,-116 8,-110 14,-104 20,-104"/>
<text xml:space="preserve" text-anchor="start" x="33" y="-222.6" font-family="Times,serif" font-weight="bold" font-size="12.00" fill="#7dd3fc"> &#160;ViewModel &#160;</text>
</g>
<g id="clust2" class="cluster">
<title>cluster_svc</title>
<path fill="#475569" stroke="#475569" d="M308.5,-8C308.5,-8 464,-8 464,-8 470,-8 476,-14 476,-20 476,-20 476,-406 476,-406 476,-412 470,-418 464,-418 464,-418 308.5,-418 308.5,-418 302.5,-418 296.5,-412 296.5,-406 296.5,-406 296.5,-20 296.5,-20 296.5,-14 302.5,-8 308.5,-8"/>
<text xml:space="preserve" text-anchor="start" x="345.75" y="-403.6" font-family="Times,serif" font-weight="bold" font-size="12.00" fill="#c4b5fd"> &#160;Services &#160;</text>
</g>
<!-- DM -->
<g id="node1" class="node">
<title>DM</title>
<polygon fill="#334155" stroke="none" points="16,-112.38 16,-205.62 149,-205.62 149,-112.38 16,-112.38"/>
<polygon fill="#334155" stroke="none" points="16,-175.88 16,-205.62 149,-205.62 149,-175.88 16,-175.88"/>
<text xml:space="preserve" text-anchor="start" x="47.62" y="-189.18" font-family="Inter, Segoe UI, sans-serif" font-weight="bold" font-size="11.00" fill="#f1f5f9">DeviceModel</text>
<polygon fill="#1e3a5f" stroke="none" points="16,-144.12 16,-175.88 149,-175.88 149,-144.12 16,-144.12"/>
<polygon fill="none" stroke="#475569" points="16,-144.12 16,-175.88 149,-175.88 149,-144.12 16,-144.12"/>
<text xml:space="preserve" text-anchor="start" x="24" y="-158.43" font-family="Inter, Segoe UI, sans-serif" font-size="9.00" fill="#7dd3fc">signal &#160;</text>
<text xml:space="preserve" text-anchor="start" x="53.25" y="-158.43" font-family="Inter, Segoe UI, sans-serif" font-size="11.00" fill="#e2e8f0">selectedChanged</text>
<polygon fill="#1e3a5f" stroke="none" points="16,-112.38 16,-144.12 149,-144.12 149,-112.38 16,-112.38"/>
<polygon fill="none" stroke="#475569" points="16,-112.38 16,-144.12 149,-144.12 149,-112.38 16,-112.38"/>
<text xml:space="preserve" text-anchor="start" x="45.38" y="-126.67" font-family="Inter, Segoe UI, sans-serif" font-size="9.00" fill="#7dd3fc">method &#160;</text>
<text xml:space="preserve" text-anchor="start" x="82.12" y="-126.67" font-family="Inter, Segoe UI, sans-serif" font-size="11.00" fill="#e2e8f0">devices</text>
</g>
<!-- ADR -->
<g id="node2" class="node">
<title>ADR</title>
<polygon fill="#334155" stroke="none" points="304.5,-16.5 304.5,-275.5 468,-275.5 468,-16.5 304.5,-16.5"/>
<polygon fill="#334155" stroke="none" points="304.5,-244 304.5,-275.5 468,-275.5 468,-244 304.5,-244"/>
<text xml:space="preserve" text-anchor="start" x="310.5" y="-257.2" font-family="Inter, Segoe UI, sans-serif" font-weight="bold" font-size="14.00" fill="#f1f5f9">ActiveDeviceResolver</text>
<polygon fill="#334155" stroke="none" points="304.5,-217.75 304.5,-244 468,-244 468,-217.75 304.5,-217.75"/>
<text xml:space="preserve" text-anchor="start" x="364.12" y="-229.5" font-family="Inter, Segoe UI, sans-serif" font-weight="bold" font-size="10.00" fill="#c4b5fd">Methods</text>
<polygon fill="#3f3a5e" stroke="none" points="304.5,-188 304.5,-217.75 468,-217.75 468,-188 304.5,-188"/>
<polygon fill="none" stroke="#8b5cf6" points="304.5,-188 304.5,-217.75 468,-217.75 468,-188 304.5,-188"/>
<text xml:space="preserve" text-anchor="start" x="311.5" y="-198.75" font-family="Inter, Segoe UI, sans-serif" font-size="11.00" fill="#e2e8f0">activeDevice</text>
<polygon fill="#3f3a5e" stroke="none" points="304.5,-158.25 304.5,-188 468,-188 468,-158.25 304.5,-158.25"/>
<polygon fill="none" stroke="#8b5cf6" points="304.5,-158.25 304.5,-188 468,-188 468,-158.25 304.5,-158.25"/>
<text xml:space="preserve" text-anchor="start" x="311.5" y="-169" font-family="Inter, Segoe UI, sans-serif" font-size="11.00" fill="#e2e8f0">activeSession</text>
<polygon fill="#3f3a5e" stroke="none" points="304.5,-128.5 304.5,-158.25 468,-158.25 468,-128.5 304.5,-128.5"/>
<polygon fill="none" stroke="#8b5cf6" points="304.5,-128.5 304.5,-158.25 468,-158.25 468,-128.5 304.5,-128.5"/>
<text xml:space="preserve" text-anchor="start" x="311.5" y="-139.25" font-family="Inter, Segoe UI, sans-serif" font-size="11.00" fill="#e2e8f0">activeSerial</text>
<polygon fill="#334155" stroke="none" points="304.5,-102.25 304.5,-128.5 468,-128.5 468,-102.25 304.5,-102.25"/>
<text xml:space="preserve" text-anchor="start" x="374.25" y="-114" font-family="Inter, Segoe UI, sans-serif" font-weight="bold" font-size="10.00" fill="#c4b5fd">Slots</text>
<polygon fill="#3f3a5e" stroke="none" points="304.5,-72.5 304.5,-102.25 468,-102.25 468,-72.5 304.5,-72.5"/>
<polygon fill="none" stroke="#8b5cf6" points="304.5,-72.5 304.5,-102.25 468,-102.25 468,-72.5 304.5,-72.5"/>
<text xml:space="preserve" text-anchor="start" x="311.5" y="-83.25" font-family="Inter, Segoe UI, sans-serif" font-size="11.00" fill="#e2e8f0">onSelectionIndexChanged</text>
<polygon fill="#334155" stroke="none" points="304.5,-46.25 304.5,-72.5 468,-72.5 468,-46.25 304.5,-46.25"/>
<text xml:space="preserve" text-anchor="start" x="368.62" y="-58" font-family="Inter, Segoe UI, sans-serif" font-weight="bold" font-size="10.00" fill="#c4b5fd">Signals</text>
<polygon fill="#3f3a5e" stroke="none" points="304.5,-16.5 304.5,-46.25 468,-46.25 468,-16.5 304.5,-16.5"/>
<polygon fill="none" stroke="#8b5cf6" points="304.5,-16.5 304.5,-46.25 468,-46.25 468,-16.5 304.5,-16.5"/>
<text xml:space="preserve" text-anchor="start" x="311.5" y="-27.25" font-family="Inter, Segoe UI, sans-serif" font-size="11.00" fill="#e2e8f0">selectionChanged</text>
</g>
<!-- DM&#45;&gt;ADR -->
<g id="edge1" class="edge">
<title>DM:e&#45;&gt;ADR:w</title>
<path fill="none" stroke="#7dd3fc" d="M150,-160C190.41,-160 203.13,-161.6 239.5,-144 269.82,-129.33 266.83,-96.15 292.24,-88.83"/>
<polygon fill="#7dd3fc" stroke="#7dd3fc" points="292.53,-92.32 302,-87.57 291.63,-85.38 292.53,-92.32"/>
</g>
<!-- ADR&#45;&gt;DM -->
<g id="edge3" class="edge">
<title>ADR:e&#45;&gt;DM:e</title>
<path fill="none" stroke="#7dd3fc" stroke-dasharray="5,2" d="M480.18,-205.62C498.13,-216.39 487.75,-256.02 468,-275.5 416.26,-326.53 365.21,-315.44 304.5,-275.5 243.54,-235.4 300.46,-164.85 239.5,-124.75 206.24,-102.87 189.81,-128.25 150,-128.25"/>
<polygon fill="#7dd3fc" stroke="#7dd3fc" points="481.02,-202.23 470.47,-203.24 479.34,-209.02 481.02,-202.23"/>
<text xml:space="preserve" text-anchor="start" x="214" y="-127.75" font-family="Inter, Segoe UI, sans-serif" font-size="10.00" fill="#94a3b8">reads</text>
</g>
<!-- AR -->
<g id="node3" class="node">
<title>AR</title>
<polygon fill="#334155" stroke="none" points="315.62,-325.25 315.62,-386.75 456.88,-386.75 456.88,-325.25 315.62,-325.25"/>
<polygon fill="#334155" stroke="none" points="315.62,-357 315.62,-386.75 456.88,-386.75 456.88,-357 315.62,-357"/>
<text xml:space="preserve" text-anchor="start" x="363" y="-370.3" font-family="Inter, Segoe UI, sans-serif" font-weight="bold" font-size="11.00" fill="#f1f5f9">AppRoot</text>
<polygon fill="#3f3a5e" stroke="none" points="315.62,-325.25 315.62,-357 456.88,-357 456.88,-325.25 315.62,-325.25"/>
<polygon fill="none" stroke="#475569" points="315.62,-325.25 315.62,-357 456.88,-357 456.88,-325.25 315.62,-325.25"/>
<text xml:space="preserve" text-anchor="start" x="323.62" y="-339.55" font-family="Inter, Segoe UI, sans-serif" font-size="9.00" fill="#c4b5fd">slot &#160;</text>
<text xml:space="preserve" text-anchor="start" x="343.12" y="-339.55" font-family="Inter, Segoe UI, sans-serif" font-size="11.00" fill="#e2e8f0">onSelectionChanged</text>
</g>
<!-- ADR&#45;&gt;AR -->
<g id="edge2" class="edge">
<title>ADR:e&#45;&gt;AR:w</title>
<path fill="none" stroke="#c4b5fd" d="M312.81,-329.76C313.63,-328.13 314.61,-326.56 315.62,-325.25 359.25,-268.93 426.05,-333.08 468,-275.5 483.97,-253.58 496.13,-31.38 469,-31.38"/>
<polygon fill="#c4b5fd" stroke="#c4b5fd" points="309.35,-330.31 314.39,-339.63 316.26,-329.2 309.35,-330.31"/>
</g>
</g>
</svg>
