<?xml version="1.0" encoding="UTF-8" standalone="no"?>
<!DOCTYPE svg PUBLIC "-//W3C//DTD SVG 1.1//EN"
 "http://www.w3.org/Graphics/SVG/1.1/DTD/svg11.dtd">
<!-- Generated by graphviz version 14.1.5 (0)
 -->
<!-- Title: G Pages: 1 -->
<svg width="818pt" height="735pt"
 viewBox="0.00 0.00 818.00 735.00" xmlns="http://www.w3.org/2000/svg" xmlns:xlink="http://www.w3.org/1999/xlink">
<g id="graph0" class="graph" transform="scale(1 1) rotate(0) translate(4 731)">
<title>G</title>
<polygon fill="#0f172a" stroke="none" points="-4,4 -4,-731 814.25,-731 814.25,4 -4,4"/>
<g id="clust1" class="cluster">
<title>cluster_vm</title>
<path fill="#475569" stroke="#475569" d="M20,-211C20,-211 166,-211 166,-211 172,-211 178,-217 178,-223 178,-223 178,-474 178,-474 178,-480 172,-486 166,-486 166,-486 20,-486 20,-486 14,-486 8,-480 8,-474 8,-474 8,-223 8,-223 8,-217 14,-211 20,-211"/>
<text xml:space="preserve" text-anchor="start" x="43.5" y="-471.6" font-family="Times,serif" font-weight="bold" font-size="12.00" fill="#7dd3fc"> &#160;ViewModel &#160;</text>
</g>
<g id="clust2" class="cluster">
<title>cluster_svc</title>
<path fill="#475569" stroke="#475569" d="M304,-8C304,-8 465.75,-8 465.75,-8 471.75,-8 477.75,-14 477.75,-20 477.75,-20 477.75,-707 477.75,-707 477.75,-713 471.75,-719 465.75,-719 465.75,-719 304,-719 304,-719 298,-719 292,-713 292,-707 292,-707 292,-20 292,-20 292,-14 298,-8 304,-8"/>
<text xml:space="preserve" text-anchor="start" x="344.38" y="-704.6" font-family="Times,serif" font-weight="bold" font-size="12.00" fill="#c4b5fd"> &#160;Services &#160;</text>
</g>
<g id="clust4" class="cluster">
<title>cluster_core</title>
<path fill="#475569" stroke="#475569" d="M603.75,-215C603.75,-215 790.25,-215 790.25,-215 796.25,-215 802.25,-221 802.25,-227 802.25,-227 802.25,-478 802.25,-478 802.25,-484 796.25,-490 790.25,-490 790.25,-490 603.75,-490 603.75,-490 597.75,-490 591.75,-484 591.75,-478 591.75,-478 591.75,-227 591.75,-227 591.75,-221 597.75,-215 603.75,-215"/>
<text xml:space="preserve" text-anchor="start" x="668.5" y="-475.6" font-family="Times,serif" font-weight="bold" font-size="12.00" fill="#fcd34d"> &#160;Core &#160;</text>
</g>
<!-- BM -->
<g id="node1" class="node">
<title>BM</title>
<polygon fill="#334155" stroke="none" points="20.12,-393.25 20.12,-454.75 165.88,-454.75 165.88,-393.25 20.12,-393.25"/>
<polygon fill="#334155" stroke="none" points="20.12,-425 20.12,-454.75 165.88,-454.75 165.88,-425 20.12,-425"/>
<text xml:space="preserve" text-anchor="start" x="57" y="-438.3" font-family="Inter, Segoe UI, sans-serif" font-weight="bold" font-size="11.00" fill="#f1f5f9">ButtonModel</text>
<polygon fill="#1e3a5f" stroke="none" points="20.12,-393.25 20.12,-425 165.88,-425 165.88,-393.25 20.12,-393.25"/>
<polygon fill="none" stroke="#475569" points="20.12,-393.25 20.12,-425 165.88,-425 165.88,-393.25 20.12,-393.25"/>
<text xml:space="preserve" text-anchor="start" x="28.12" y="-407.55" font-family="Inter, Segoe UI, sans-serif" font-size="9.00" fill="#7dd3fc">signal &#160;</text>
<text xml:space="preserve" text-anchor="start" x="57.38" y="-407.55" font-family="Inter, Segoe UI, sans-serif" font-size="11.00" fill="#e2e8f0">userActionChanged</text>
</g>
<!-- PO -->
<g id="node5" class="node">
<title>PO</title>
<polygon fill="#334155" stroke="none" points="307,-134.38 307,-601.62 462.75,-601.62 462.75,-134.38 307,-134.38"/>
<polygon fill="#334155" stroke="none" points="307,-570.12 307,-601.62 462.75,-601.62 462.75,-570.12 307,-570.12"/>
<text xml:space="preserve" text-anchor="start" x="316.62" y="-583.33" font-family="Inter, Segoe UI, sans-serif" font-weight="bold" font-size="14.00" fill="#f1f5f9">ProfileOrchestrator</text>
<polygon fill="#334155" stroke="none" points="307,-543.88 307,-570.12 462.75,-570.12 462.75,-543.88 307,-543.88"/>
<text xml:space="preserve" text-anchor="start" x="362.75" y="-555.62" font-family="Inter, Segoe UI, sans-serif" font-weight="bold" font-size="10.00" fill="#c4b5fd">Methods</text>
<polygon fill="#3f3a5e" stroke="none" points="307,-514.12 307,-543.88 462.75,-543.88 462.75,-514.12 307,-514.12"/>
<polygon fill="none" stroke="#8b5cf6" points="307,-514.12 307,-543.88 462.75,-543.88 462.75,-514.12 307,-514.12"/>
<text xml:space="preserve" text-anchor="start" x="314" y="-524.88" font-family="Inter, Segoe UI, sans-serif" font-size="11.00" fill="#e2e8f0">applyProfileToHardware</text>
<polygon fill="#3f3a5e" stroke="none" points="307,-484.38 307,-514.12 462.75,-514.12 462.75,-484.38 307,-484.38"/>
<polygon fill="none" stroke="#8b5cf6" points="307,-484.38 307,-514.12 462.75,-514.12 462.75,-484.38 307,-484.38"/>
<text xml:space="preserve" text-anchor="start" x="314" y="-495.12" font-family="Inter, Segoe UI, sans-serif" font-size="11.00" fill="#e2e8f0">setupProfileForDevice</text>
<polygon fill="#3f3a5e" stroke="none" points="307,-454.62 307,-484.38 462.75,-484.38 462.75,-454.62 307,-454.62"/>
<polygon fill="none" stroke="#8b5cf6" points="307,-454.62 307,-484.38 462.75,-484.38 462.75,-454.62 307,-454.62"/>
<text xml:space="preserve" text-anchor="start" x="314" y="-465.38" font-family="Inter, Segoe UI, sans-serif" font-size="11.00" fill="#e2e8f0">applyDisplayedChange</text>
<polygon fill="#334155" stroke="none" points="307,-428.38 307,-454.62 462.75,-454.62 462.75,-428.38 307,-428.38"/>
<text xml:space="preserve" text-anchor="start" x="372.88" y="-440.12" font-family="Inter, Segoe UI, sans-serif" font-weight="bold" font-size="10.00" fill="#c4b5fd">Slots</text>
<polygon fill="#3f3a5e" stroke="none" points="307,-398.62 307,-428.38 462.75,-428.38 462.75,-398.62 307,-398.62"/>
<polygon fill="none" stroke="#8b5cf6" points="307,-398.62 307,-428.38 462.75,-428.38 462.75,-398.62 307,-398.62"/>
<text xml:space="preserve" text-anchor="start" x="314" y="-409.38" font-family="Inter, Segoe UI, sans-serif" font-size="11.00" fill="#e2e8f0">onWindowFocusChanged</text>
<polygon fill="#3f3a5e" stroke="none" points="307,-368.88 307,-398.62 462.75,-398.62 462.75,-368.88 307,-368.88"/>
<polygon fill="none" stroke="#8b5cf6" points="307,-368.88 307,-398.62 462.75,-398.62 462.75,-368.88 307,-368.88"/>
<text xml:space="preserve" text-anchor="start" x="314" y="-379.62" font-family="Inter, Segoe UI, sans-serif" font-size="11.00" fill="#e2e8f0">onUserButtonChanged</text>
<polygon fill="#3f3a5e" stroke="none" points="307,-339.12 307,-368.88 462.75,-368.88 462.75,-339.12 307,-339.12"/>
<polygon fill="none" stroke="#8b5cf6" points="307,-339.12 307,-368.88 462.75,-368.88 462.75,-339.12 307,-339.12"/>
<text xml:space="preserve" text-anchor="start" x="314" y="-349.88" font-family="Inter, Segoe UI, sans-serif" font-size="11.00" fill="#e2e8f0">onTabSwitched</text>
<polygon fill="#3f3a5e" stroke="none" points="307,-309.38 307,-339.12 462.75,-339.12 462.75,-309.38 307,-309.38"/>
<polygon fill="none" stroke="#8b5cf6" points="307,-309.38 307,-339.12 462.75,-339.12 462.75,-309.38 307,-309.38"/>
<text xml:space="preserve" text-anchor="start" x="314" y="-320.12" font-family="Inter, Segoe UI, sans-serif" font-size="11.00" fill="#e2e8f0">onDisplayProfileChanged</text>
<polygon fill="#3f3a5e" stroke="none" points="307,-279.62 307,-309.38 462.75,-309.38 462.75,-279.62 307,-279.62"/>
<polygon fill="none" stroke="#8b5cf6" points="307,-279.62 307,-309.38 462.75,-309.38 462.75,-279.62 307,-279.62"/>
<text xml:space="preserve" text-anchor="start" x="314" y="-290.38" font-family="Inter, Segoe UI, sans-serif" font-size="11.00" fill="#e2e8f0">onTransportSetupComplete</text>
<polygon fill="#3f3a5e" stroke="none" points="307,-249.88 307,-279.62 462.75,-279.62 462.75,-249.88 307,-249.88"/>
<polygon fill="none" stroke="#8b5cf6" points="307,-249.88 307,-279.62 462.75,-279.62 462.75,-249.88 307,-249.88"/>
<text xml:space="preserve" text-anchor="start" x="314" y="-260.62" font-family="Inter, Segoe UI, sans-serif" font-size="11.00" fill="#e2e8f0">onCurrentDeviceChanged</text>
<polygon fill="#3f3a5e" stroke="none" points="307,-220.12 307,-249.88 462.75,-249.88 462.75,-220.12 307,-220.12"/>
<polygon fill="none" stroke="#8b5cf6" points="307,-220.12 307,-249.88 462.75,-249.88 462.75,-220.12 307,-220.12"/>
<text xml:space="preserve" text-anchor="start" x="314" y="-230.88" font-family="Inter, Segoe UI, sans-serif" font-size="11.00" fill="#e2e8f0">saveCurrentProfile</text>
<polygon fill="#334155" stroke="none" points="307,-193.88 307,-220.12 462.75,-220.12 462.75,-193.88 307,-193.88"/>
<text xml:space="preserve" text-anchor="start" x="367.25" y="-205.62" font-family="Inter, Segoe UI, sans-serif" font-weight="bold" font-size="10.00" fill="#c4b5fd">Signals</text>
<polygon fill="#3f3a5e" stroke="none" points="307,-164.12 307,-193.88 462.75,-193.88 462.75,-164.12 307,-164.12"/>
<polygon fill="none" stroke="#8b5cf6" points="307,-164.12 307,-193.88 462.75,-193.88 462.75,-164.12 307,-164.12"/>
<text xml:space="preserve" text-anchor="start" x="314" y="-174.88" font-family="Inter, Segoe UI, sans-serif" font-size="11.00" fill="#e2e8f0">profileApplied(serial)</text>
<polygon fill="#3f3a5e" stroke="none" points="307,-134.38 307,-164.12 462.75,-164.12 462.75,-134.38 307,-134.38"/>
<polygon fill="none" stroke="#8b5cf6" points="307,-134.38 307,-164.12 462.75,-164.12 462.75,-134.38 307,-134.38"/>
<text xml:space="preserve" text-anchor="start" x="314" y="-145.12" font-family="Inter, Segoe UI, sans-serif" font-size="11.00" fill="#e2e8f0">currentDeviceChanged(dev)</text>
</g>
<!-- BM&#45;&gt;PO -->
<g id="edge1" class="edge">
<title>BM:e&#45;&gt;PO:w</title>
<path fill="none" stroke="#7dd3fc" d="M166.88,-409.12C225.8,-409.12 241.28,-386.82 294.77,-384.03"/>
<polygon fill="#7dd3fc" stroke="#7dd3fc" points="294.58,-387.54 304.49,-383.79 294.4,-380.54 294.58,-387.54"/>
</g>
<!-- PM -->
<g id="node2" class="node">
<title>PM</title>
<polygon fill="#334155" stroke="none" points="30.25,-306.25 30.25,-367.75 155.75,-367.75 155.75,-306.25 30.25,-306.25"/>
<polygon fill="#334155" stroke="none" points="30.25,-338 30.25,-367.75 155.75,-367.75 155.75,-338 30.25,-338"/>
<text xml:space="preserve" text-anchor="start" x="58.5" y="-351.3" font-family="Inter, Segoe UI, sans-serif" font-weight="bold" font-size="11.00" fill="#f1f5f9">ProfileModel</text>
<polygon fill="#1e3a5f" stroke="none" points="30.25,-306.25 30.25,-338 155.75,-338 155.75,-306.25 30.25,-306.25"/>
<polygon fill="none" stroke="#475569" points="30.25,-306.25 30.25,-338 155.75,-338 155.75,-306.25 30.25,-306.25"/>
<text xml:space="preserve" text-anchor="start" x="38.25" y="-320.55" font-family="Inter, Segoe UI, sans-serif" font-size="9.00" fill="#7dd3fc">signal &#160;</text>
<text xml:space="preserve" text-anchor="start" x="67.5" y="-320.55" font-family="Inter, Segoe UI, sans-serif" font-size="11.00" fill="#e2e8f0">profileSwitched</text>
</g>
<!-- PM&#45;&gt;PO -->
<g id="edge2" class="edge">
<title>PM:e&#45;&gt;PO:w</title>
<path fill="none" stroke="#7dd3fc" d="M156.75,-322.12C220.6,-322.12 236.39,-350.37 294.61,-353.68"/>
<polygon fill="#7dd3fc" stroke="#7dd3fc" points="294.39,-357.18 304.49,-353.96 294.59,-350.18 294.39,-357.18"/>
</g>
<!-- DM -->
<g id="node3" class="node">
<title>DM</title>
<polygon fill="#334155" stroke="none" points="16,-219.25 16,-280.75 170,-280.75 170,-219.25 16,-219.25"/>
<polygon fill="#334155" stroke="none" points="16,-251 16,-280.75 170,-280.75 170,-251 16,-251"/>
<text xml:space="preserve" text-anchor="start" x="58.12" y="-264.3" font-family="Inter, Segoe UI, sans-serif" font-weight="bold" font-size="11.00" fill="#f1f5f9">DeviceModel</text>
<polygon fill="#1e3a5f" stroke="none" points="16,-219.25 16,-251 170,-251 170,-219.25 16,-219.25"/>
<polygon fill="none" stroke="#475569" points="16,-219.25 16,-251 170,-251 170,-219.25 16,-219.25"/>
<text xml:space="preserve" text-anchor="start" x="24" y="-233.55" font-family="Inter, Segoe UI, sans-serif" font-size="9.00" fill="#7dd3fc">signal &#160;</text>
<text xml:space="preserve" text-anchor="start" x="53.25" y="-233.55" font-family="Inter, Segoe UI, sans-serif" font-size="11.00" fill="#e2e8f0">userGestureChanged</text>
</g>
<!-- DM&#45;&gt;PO -->
<g id="edge3" class="edge">
<title>DM:e&#45;&gt;PO:w</title>
<path fill="none" stroke="#7dd3fc" d="M171,-235.12C227.02,-235.12 243.81,-235.02 294.62,-235"/>
<polygon fill="#7dd3fc" stroke="#7dd3fc" points="294.49,-238.5 304.49,-235 294.49,-231.5 294.49,-238.5"/>
</g>
<!-- BAD -->
<g id="node4" class="node">
<title>BAD</title>
<polygon fill="#334155" stroke="none" points="301.12,-16.38 301.12,-109.62 468.62,-109.62 468.62,-16.38 301.12,-16.38"/>
<polygon fill="#334155" stroke="none" points="301.12,-79.88 301.12,-109.62 468.62,-109.62 468.62,-79.88 301.12,-79.88"/>
<text xml:space="preserve" text-anchor="start" x="318.12" y="-93.17" font-family="Inter, Segoe UI, sans-serif" font-weight="bold" font-size="11.00" fill="#f1f5f9">ButtonActionDispatcher</text>
<polygon fill="#1e3a2f" stroke="none" points="301.12,-48.12 301.12,-79.88 468.62,-79.88 468.62,-48.12 301.12,-48.12"/>
<polygon fill="none" stroke="#475569" points="301.12,-48.12 301.12,-79.88 468.62,-79.88 468.62,-48.12 301.12,-48.12"/>
<text xml:space="preserve" text-anchor="start" x="332" y="-62.42" font-family="Inter, Segoe UI, sans-serif" font-size="9.00" fill="#6ee7b7">slot &#160;</text>
<text xml:space="preserve" text-anchor="start" x="351.5" y="-62.42" font-family="Inter, Segoe UI, sans-serif" font-size="11.00" fill="#e2e8f0">onProfileApplied</text>
<polygon fill="#1e3a2f" stroke="none" points="301.12,-16.38 301.12,-48.12 468.62,-48.12 468.62,-16.38 301.12,-16.38"/>
<polygon fill="none" stroke="#475569" points="301.12,-16.38 301.12,-48.12 468.62,-48.12 468.62,-16.38 301.12,-16.38"/>
<text xml:space="preserve" text-anchor="start" x="309.12" y="-30.68" font-family="Inter, Segoe UI, sans-serif" font-size="9.00" fill="#6ee7b7">slot &#160;</text>
<text xml:space="preserve" text-anchor="start" x="328.62" y="-30.68" font-family="Inter, Segoe UI, sans-serif" font-size="11.00" fill="#e2e8f0">onCurrentDeviceChanged</text>
</g>
<!-- PO&#45;&gt;BAD -->
<g id="edge8" class="edge">
<title>PO:w&#45;&gt;BAD:w</title>
<path fill="none" stroke="#c4b5fd" d="M290.97,-70.51C276.65,-94.84 284.11,-179 306,-179"/>
<polygon fill="#c4b5fd" stroke="#c4b5fd" points="292.77,-73.52 298.89,-64.88 288.71,-67.82 292.77,-73.52"/>
</g>
<!-- PO&#45;&gt;BAD -->
<g id="edge9" class="edge">
<title>PO:w&#45;&gt;BAD:w</title>
<path fill="none" stroke="#c4b5fd" d="M290.8,-38.88C276.21,-63.63 283.73,-149.25 306,-149.25"/>
<polygon fill="#c4b5fd" stroke="#c4b5fd" points="292.77,-41.77 298.89,-33.13 288.71,-36.07 292.77,-41.77"/>
</g>
<!-- PE -->
<g id="node7" class="node">
<title>PE</title>
<polygon fill="#334155" stroke="none" points="599.75,-310.25 599.75,-371.75 794.25,-371.75 794.25,-310.25 599.75,-310.25"/>
<polygon fill="#334155" stroke="none" points="599.75,-342 599.75,-371.75 794.25,-371.75 794.25,-342 599.75,-342"/>
<text xml:space="preserve" text-anchor="start" x="660.62" y="-355.3" font-family="Inter, Segoe UI, sans-serif" font-weight="bold" font-size="11.00" fill="#f1f5f9">ProfileEngine</text>
<polygon fill="#3f301e" stroke="none" points="599.75,-310.25 599.75,-342 794.25,-342 794.25,-310.25 599.75,-310.25"/>
<polygon fill="none" stroke="#475569" points="599.75,-310.25 599.75,-342 794.25,-342 794.25,-310.25 599.75,-310.25"/>
<text xml:space="preserve" text-anchor="start" x="607.75" y="-324.55" font-family="Inter, Segoe UI, sans-serif" font-size="9.00" fill="#fcd34d">signal &#160;</text>
<text xml:space="preserve" text-anchor="start" x="637" y="-324.55" font-family="Inter, Segoe UI, sans-serif" font-size="11.00" fill="#e2e8f0">deviceDisplayProfileChanged</text>
</g>
<!-- PO&#45;&gt;PE -->
<g id="edge5" class="edge">
<title>PO:e&#45;&gt;PE:w</title>
<path fill="none" stroke="#fcd34d" d="M475.14,-324.27C525.94,-324.49 542.73,-326.12 598.75,-326.12"/>
<polygon fill="#fcd34d" stroke="#fcd34d" points="475.27,-320.77 465.26,-324.25 475.26,-327.77 475.27,-320.77"/>
</g>
<!-- PD -->
<g id="node8" class="node">
<title>PD</title>
<polygon fill="#334155" stroke="none" points="611,-223.25 611,-284.75 783,-284.75 783,-223.25 611,-223.25"/>
<polygon fill="#334155" stroke="none" points="611,-255 611,-284.75 783,-284.75 783,-255 611,-255"/>
<text xml:space="preserve" text-anchor="start" x="656.88" y="-268.3" font-family="Inter, Segoe UI, sans-serif" font-weight="bold" font-size="11.00" fill="#f1f5f9">PhysicalDevice</text>
<polygon fill="#3f301e" stroke="none" points="611,-223.25 611,-255 783,-255 783,-223.25 611,-223.25"/>
<polygon fill="none" stroke="#475569" points="611,-223.25 611,-255 783,-255 783,-223.25 611,-223.25"/>
<text xml:space="preserve" text-anchor="start" x="619" y="-237.55" font-family="Inter, Segoe UI, sans-serif" font-size="9.00" fill="#fcd34d">signal &#160;</text>
<text xml:space="preserve" text-anchor="start" x="648.25" y="-237.55" font-family="Inter, Segoe UI, sans-serif" font-size="11.00" fill="#e2e8f0">transportSetupComplete</text>
</g>
<!-- PO&#45;&gt;PD -->
<g id="edge6" class="edge">
<title>PO:e&#45;&gt;PD:w</title>
<path fill="none" stroke="#fcd34d" d="M474.98,-293.99C534.27,-288.4 544.43,-239.12 610,-239.12"/>
<polygon fill="#fcd34d" stroke="#fcd34d" points="475.09,-290.48 465.26,-294.43 475.41,-297.47 475.09,-290.48"/>
</g>
<!-- DSK -->
<g id="node9" class="node">
<title>DSK</title>
<polygon fill="#334155" stroke="none" points="615.5,-397.25 615.5,-458.75 778.5,-458.75 778.5,-397.25 615.5,-397.25"/>
<polygon fill="#334155" stroke="none" points="615.5,-429 615.5,-458.75 778.5,-458.75 778.5,-429 615.5,-429"/>
<text xml:space="preserve" text-anchor="start" x="640.75" y="-442.3" font-family="Inter, Segoe UI, sans-serif" font-weight="bold" font-size="11.00" fill="#f1f5f9">IDesktopIntegration</text>
<polygon fill="#3f301e" stroke="none" points="615.5,-397.25 615.5,-429 778.5,-429 778.5,-397.25 615.5,-397.25"/>
<polygon fill="none" stroke="#475569" points="615.5,-397.25 615.5,-429 778.5,-429 778.5,-397.25 615.5,-397.25"/>
<text xml:space="preserve" text-anchor="start" x="623.5" y="-411.55" font-family="Inter, Segoe UI, sans-serif" font-size="9.00" fill="#fcd34d">signal &#160;</text>
<text xml:space="preserve" text-anchor="start" x="652.75" y="-411.55" font-family="Inter, Segoe UI, sans-serif" font-size="11.00" fill="#e2e8f0">activeWindowChanged</text>
</g>
<!-- PO&#45;&gt;DSK -->
<g id="edge7" class="edge">
<title>PO:e&#45;&gt;DSK:w</title>
<path fill="none" stroke="#fcd34d" d="M475.03,-413.5C532.89,-413.46 551.43,-413.12 614.5,-413.12"/>
<polygon fill="#fcd34d" stroke="#fcd34d" points="475.26,-410 465.26,-413.5 475.26,-417 475.26,-410"/>
</g>
<!-- DCH -->
<g id="node6" class="node">
<title>DCH</title>
<polygon fill="#334155" stroke="none" points="300,-626.25 300,-687.75 469.75,-687.75 469.75,-626.25 300,-626.25"/>
<polygon fill="#334155" stroke="none" points="300,-658 300,-687.75 469.75,-687.75 469.75,-658 300,-658"/>
<text xml:space="preserve" text-anchor="start" x="317" y="-671.3" font-family="Inter, Segoe UI, sans-serif" font-weight="bold" font-size="11.00" fill="#f1f5f9">DeviceCommandHandler</text>
<polygon fill="#1e3a2f" stroke="none" points="300,-626.25 300,-658 469.75,-658 469.75,-626.25 300,-626.25"/>
<polygon fill="none" stroke="#475569" points="300,-626.25 300,-658 469.75,-658 469.75,-626.25 300,-626.25"/>
<text xml:space="preserve" text-anchor="start" x="308" y="-640.55" font-family="Inter, Segoe UI, sans-serif" font-size="9.00" fill="#6ee7b7">signal &#160;</text>
<text xml:space="preserve" text-anchor="start" x="337.25" y="-640.55" font-family="Inter, Segoe UI, sans-serif" font-size="11.00" fill="#e2e8f0">userChangedSomething</text>
</g>
<!-- DCH&#45;&gt;PO -->
<g id="edge4" class="edge">
<title>DCH:w&#45;&gt;PO:w</title>
<path fill="none" stroke="#6ee7b7" d="M296.56,-241.39C260.01,-293.19 257.12,-642.12 299,-642.12"/>
<polygon fill="#6ee7b7" stroke="#6ee7b7" points="298.43,-244.36 304.75,-235.85 294.51,-238.56 298.43,-244.36"/>
</g>
</g>
</svg>
