<?xml version="1.0" encoding="UTF-8" standalone="no"?>
<!DOCTYPE svg PUBLIC "-//W3C//DTD SVG 1.1//EN"
 "http://www.w3.org/Graphics/SVG/1.1/DTD/svg11.dtd">
<!-- Generated by graphviz version 14.1.5 (0)
 -->
<!-- Title: G Pages: 1 -->
<svg width="929pt" height="535pt"
 viewBox="0.00 0.00 929.00 535.00" xmlns="http://www.w3.org/2000/svg" xmlns:xlink="http://www.w3.org/1999/xlink">
<g id="graph0" class="graph" transform="scale(1 1) rotate(0) translate(4 531)">
<title>G</title>
<polygon fill="#0f172a" stroke="none" points="-4,4 -4,-531 924.5,-531 924.5,4 -4,4"/>
<g id="clust1" class="cluster">
<title>cluster_vm</title>
<path fill="#475569" stroke="#475569" d="M20,-180C20,-180 145,-180 145,-180 151,-180 157,-186 157,-192 157,-192 157,-269 157,-269 157,-275 151,-281 145,-281 145,-281 20,-281 20,-281 14,-281 8,-275 8,-269 8,-269 8,-192 8,-192 8,-186 14,-180 20,-180"/>
<text xml:space="preserve" text-anchor="start" x="33" y="-266.6" font-family="Times,serif" font-weight="bold" font-size="12.00" fill="#7dd3fc"> &#160;ViewModel &#160;</text>
</g>
<g id="clust2" class="cluster">
<title>cluster_svc</title>
<path fill="#475569" stroke="#475569" d="M355,-13C355,-13 517.5,-13 517.5,-13 523.5,-13 529.5,-19 529.5,-25 529.5,-25 529.5,-507 529.5,-507 529.5,-513 523.5,-519 517.5,-519 517.5,-519 355,-519 355,-519 349,-519 343,-513 343,-507 343,-507 343,-25 343,-25 343,-19 349,-13 355,-13"/>
<text xml:space="preserve" text-anchor="start" x="362.75" y="-504.6" font-family="Times,serif" font-weight="bold" font-size="12.00" fill="#c4b5fd"> &#160;Composition Root &#160;</text>
</g>
<g id="clust4" class="cluster">
<title>cluster_core</title>
<path fill="#475569" stroke="#475569" d="M735,-8C735,-8 900.5,-8 900.5,-8 906.5,-8 912.5,-14 912.5,-20 912.5,-20 912.5,-342 912.5,-342 912.5,-348 906.5,-354 900.5,-354 900.5,-354 735,-354 735,-354 729,-354 723,-348 723,-342 723,-342 723,-20 723,-20 723,-14 729,-8 735,-8"/>
<text xml:space="preserve" text-anchor="start" x="789.25" y="-339.6" font-family="Times,serif" font-weight="bold" font-size="12.00" fill="#fcd34d"> &#160;Core &#160;</text>
</g>
<!-- DM -->
<g id="node1" class="node">
<title>DM</title>
<polygon fill="#334155" stroke="none" points="16,-188.25 16,-249.75 149,-249.75 149,-188.25 16,-188.25"/>
<polygon fill="#334155" stroke="none" points="16,-220 16,-249.75 149,-249.75 149,-220 16,-220"/>
<text xml:space="preserve" text-anchor="start" x="47.62" y="-233.3" font-family="Inter, Segoe UI, sans-serif" font-weight="bold" font-size="11.00" fill="#f1f5f9">DeviceModel</text>
<polygon fill="#1e3a5f" stroke="none" points="16,-188.25 16,-220 149,-220 149,-188.25 16,-188.25"/>
<polygon fill="none" stroke="#475569" points="16,-188.25 16,-220 149,-220 149,-188.25 16,-188.25"/>
<text xml:space="preserve" text-anchor="start" x="24" y="-202.55" font-family="Inter, Segoe UI, sans-serif" font-size="9.00" fill="#7dd3fc">signal &#160;</text>
<text xml:space="preserve" text-anchor="start" x="53.25" y="-202.55" font-family="Inter, Segoe UI, sans-serif" font-size="11.00" fill="#e2e8f0">selectedChanged</text>
</g>
<!-- ADR -->
<g id="node2" class="node">
<title>ADR</title>
<polygon fill="#334155" stroke="none" points="351,-308.25 351,-369.75 521.5,-369.75 521.5,-308.25 351,-308.25"/>
<polygon fill="#334155" stroke="none" points="351,-340 351,-369.75 521.5,-369.75 521.5,-340 351,-340"/>
<text xml:space="preserve" text-anchor="start" x="377.75" y="-353.3" font-family="Inter, Segoe UI, sans-serif" font-weight="bold" font-size="11.00" fill="#f1f5f9">ActiveDeviceResolver</text>
<polygon fill="#3f3a5e" stroke="none" points="351,-308.25 351,-340 521.5,-340 521.5,-308.25 351,-308.25"/>
<polygon fill="none" stroke="#475569" points="351,-308.25 351,-340 521.5,-340 521.5,-308.25 351,-308.25"/>
<text xml:space="preserve" text-anchor="start" x="359" y="-322.55" font-family="Inter, Segoe UI, sans-serif" font-size="9.00" fill="#c4b5fd">slot &#160;</text>
<text xml:space="preserve" text-anchor="start" x="378.5" y="-322.55" font-family="Inter, Segoe UI, sans-serif" font-size="11.00" fill="#e2e8f0">onSelectionIndexChanged</text>
</g>
<!-- DM&#45;&gt;ADR -->
<g id="edge1" class="edge">
<title>DM:e&#45;&gt;ADR:w</title>
<path fill="none" stroke="#7dd3fc" d="M150,-204.12C249.71,-204.12 246.74,-315.16 338.63,-323.62"/>
<polygon fill="#7dd3fc" stroke="#7dd3fc" points="338.34,-327.11 348.49,-324.06 338.65,-320.11 338.34,-327.11"/>
</g>
<!-- AR -->
<g id="node3" class="node">
<title>AR</title>
<polygon fill="#334155" stroke="none" points="361,-20.75 361,-283.25 511.5,-283.25 511.5,-20.75 361,-20.75"/>
<polygon fill="#334155" stroke="none" points="361,-251.75 361,-283.25 511.5,-283.25 511.5,-251.75 361,-251.75"/>
<text xml:space="preserve" text-anchor="start" x="405.88" y="-264.95" font-family="Inter, Segoe UI, sans-serif" font-weight="bold" font-size="14.00" fill="#f1f5f9">AppRoot</text>
<polygon fill="#334155" stroke="none" points="361,-225.5 361,-251.75 511.5,-251.75 511.5,-225.5 361,-225.5"/>
<text xml:space="preserve" text-anchor="start" x="414.12" y="-237.25" font-family="Inter, Segoe UI, sans-serif" font-weight="bold" font-size="10.00" fill="#c4b5fd">Methods</text>
<polygon fill="#3f3a5e" stroke="none" points="361,-195.75 361,-225.5 511.5,-225.5 511.5,-195.75 361,-195.75"/>
<polygon fill="none" stroke="#8b5cf6" points="361,-195.75 361,-225.5 511.5,-225.5 511.5,-195.75 361,-195.75"/>
<text xml:space="preserve" text-anchor="start" x="368" y="-206.5" font-family="Inter, Segoe UI, sans-serif" font-size="11.00" fill="#e2e8f0">init</text>
<polygon fill="#3f3a5e" stroke="none" points="361,-166 361,-195.75 511.5,-195.75 511.5,-166 361,-166"/>
<polygon fill="none" stroke="#8b5cf6" points="361,-166 361,-195.75 511.5,-195.75 511.5,-166 361,-166"/>
<text xml:space="preserve" text-anchor="start" x="368" y="-176.75" font-family="Inter, Segoe UI, sans-serif" font-size="11.00" fill="#e2e8f0">startMonitoring</text>
<polygon fill="#3f3a5e" stroke="none" points="361,-136.25 361,-166 511.5,-166 511.5,-136.25 361,-136.25"/>
<polygon fill="none" stroke="#8b5cf6" points="361,-136.25 361,-166 511.5,-166 511.5,-136.25 361,-136.25"/>
<text xml:space="preserve" text-anchor="start" x="368" y="-147" font-family="Inter, Segoe UI, sans-serif" font-size="11.00" fill="#e2e8f0">wireSignals</text>
<polygon fill="#334155" stroke="none" points="361,-110 361,-136.25 511.5,-136.25 511.5,-110 361,-110"/>
<text xml:space="preserve" text-anchor="start" x="424.25" y="-121.75" font-family="Inter, Segoe UI, sans-serif" font-weight="bold" font-size="10.00" fill="#c4b5fd">Slots</text>
<polygon fill="#3f3a5e" stroke="none" points="361,-80.25 361,-110 511.5,-110 511.5,-80.25 361,-80.25"/>
<polygon fill="none" stroke="#8b5cf6" points="361,-80.25 361,-110 511.5,-110 511.5,-80.25 361,-80.25"/>
<text xml:space="preserve" text-anchor="start" x="368" y="-91" font-family="Inter, Segoe UI, sans-serif" font-size="11.00" fill="#e2e8f0">onPhysicalDeviceAdded</text>
<polygon fill="#3f3a5e" stroke="none" points="361,-50.5 361,-80.25 511.5,-80.25 511.5,-50.5 361,-50.5"/>
<polygon fill="none" stroke="#8b5cf6" points="361,-50.5 361,-80.25 511.5,-80.25 511.5,-50.5 361,-50.5"/>
<text xml:space="preserve" text-anchor="start" x="368" y="-61.25" font-family="Inter, Segoe UI, sans-serif" font-size="11.00" fill="#e2e8f0">onPhysicalDeviceRemoved</text>
<polygon fill="#3f3a5e" stroke="none" points="361,-20.75 361,-50.5 511.5,-50.5 511.5,-20.75 361,-20.75"/>
<polygon fill="none" stroke="#8b5cf6" points="361,-20.75 361,-50.5 511.5,-50.5 511.5,-20.75 361,-20.75"/>
<text xml:space="preserve" text-anchor="start" x="368" y="-31.5" font-family="Inter, Segoe UI, sans-serif" font-size="11.00" fill="#e2e8f0">onSelectionChanged</text>
</g>
<!-- DM&#45;&gt;AR -->
<g id="edge2" class="edge">
<title>DM:e&#45;&gt;AR:w</title>
<path fill="none" stroke="#7dd3fc" d="M150,-204.12C265.69,-204.12 242.12,-46.63 348.56,-36.17"/>
<polygon fill="#7dd3fc" stroke="#7dd3fc" points="348.67,-39.67 358.49,-35.7 348.33,-32.68 348.67,-39.67"/>
</g>
<!-- DMGR -->
<g id="node5" class="node">
<title>DMGR</title>
<polygon fill="#334155" stroke="none" points="731,-16.5 731,-141.5 904.5,-141.5 904.5,-16.5 731,-16.5"/>
<polygon fill="#334155" stroke="none" points="731,-111.75 731,-141.5 904.5,-141.5 904.5,-111.75 731,-111.75"/>
<text xml:space="preserve" text-anchor="start" x="774.62" y="-125.05" font-family="Inter, Segoe UI, sans-serif" font-weight="bold" font-size="11.00" fill="#f1f5f9">DeviceManager</text>
<polygon fill="#3f301e" stroke="none" points="731,-80 731,-111.75 904.5,-111.75 904.5,-80 731,-80"/>
<polygon fill="none" stroke="#475569" points="731,-80 731,-111.75 904.5,-111.75 904.5,-80 731,-80"/>
<text xml:space="preserve" text-anchor="start" x="749.12" y="-94.3" font-family="Inter, Segoe UI, sans-serif" font-size="9.00" fill="#fcd34d">signal &#160;</text>
<text xml:space="preserve" text-anchor="start" x="778.38" y="-94.3" font-family="Inter, Segoe UI, sans-serif" font-size="11.00" fill="#e2e8f0">physicalDeviceAdded</text>
<polygon fill="#3f301e" stroke="none" points="731,-48.25 731,-80 904.5,-80 904.5,-48.25 731,-48.25"/>
<polygon fill="none" stroke="#475569" points="731,-48.25 731,-80 904.5,-80 904.5,-48.25 731,-48.25"/>
<text xml:space="preserve" text-anchor="start" x="741.62" y="-62.55" font-family="Inter, Segoe UI, sans-serif" font-size="9.00" fill="#fcd34d">signal &#160;</text>
<text xml:space="preserve" text-anchor="start" x="770.88" y="-62.55" font-family="Inter, Segoe UI, sans-serif" font-size="11.00" fill="#e2e8f0">physicalDeviceRemoved</text>
<polygon fill="#3f301e" stroke="none" points="731,-16.5 731,-48.25 904.5,-48.25 904.5,-16.5 731,-16.5"/>
<polygon fill="none" stroke="#475569" points="731,-16.5 731,-48.25 904.5,-48.25 904.5,-16.5 731,-16.5"/>
<text xml:space="preserve" text-anchor="start" x="739" y="-30.8" font-family="Inter, Segoe UI, sans-serif" font-size="9.00" fill="#fcd34d">signal &#160;</text>
<text xml:space="preserve" text-anchor="start" x="768.25" y="-30.8" font-family="Inter, Segoe UI, sans-serif" font-size="11.00" fill="#e2e8f0">unknownDeviceDetected</text>
</g>
<!-- AR&#45;&gt;DMGR -->
<g id="edge3" class="edge">
<title>AR:e&#45;&gt;DMGR:w</title>
<path fill="none" stroke="#fcd34d" d="M523.77,-95.13C611.22,-95.18 637.2,-95.88 730,-95.88"/>
<polygon fill="#fcd34d" stroke="#fcd34d" points="524.01,-91.63 514.01,-95.13 524.01,-98.63 524.01,-91.63"/>
</g>
<!-- AR&#45;&gt;DMGR -->
<g id="edge4" class="edge">
<title>AR:e&#45;&gt;DMGR:w</title>
<path fill="none" stroke="#fcd34d" d="M523.77,-65.37C611.22,-65.28 637.2,-64.12 730,-64.12"/>
<polygon fill="#fcd34d" stroke="#fcd34d" points="524.01,-61.87 514.01,-65.37 524.02,-68.87 524.01,-61.87"/>
</g>
<!-- PD -->
<g id="node6" class="node">
<title>PD</title>
<polygon fill="#334155" stroke="none" points="731.75,-166.62 731.75,-323.38 903.75,-323.38 903.75,-166.62 731.75,-166.62"/>
<polygon fill="#334155" stroke="none" points="731.75,-293.62 731.75,-323.38 903.75,-323.38 903.75,-293.62 731.75,-293.62"/>
<text xml:space="preserve" text-anchor="start" x="777.62" y="-306.93" font-family="Inter, Segoe UI, sans-serif" font-weight="bold" font-size="11.00" fill="#f1f5f9">PhysicalDevice</text>
<polygon fill="#3f301e" stroke="none" points="731.75,-261.88 731.75,-293.62 903.75,-293.62 903.75,-261.88 731.75,-261.88"/>
<polygon fill="none" stroke="#475569" points="731.75,-261.88 731.75,-293.62 903.75,-293.62 903.75,-261.88 731.75,-261.88"/>
<text xml:space="preserve" text-anchor="start" x="739.75" y="-276.18" font-family="Inter, Segoe UI, sans-serif" font-size="9.00" fill="#fcd34d">signal &#160;</text>
<text xml:space="preserve" text-anchor="start" x="769" y="-276.18" font-family="Inter, Segoe UI, sans-serif" font-size="11.00" fill="#e2e8f0">transportSetupComplete</text>
<polygon fill="#3f301e" stroke="none" points="731.75,-230.12 731.75,-261.88 903.75,-261.88 903.75,-230.12 731.75,-230.12"/>
<polygon fill="none" stroke="#475569" points="731.75,-230.12 731.75,-261.88 903.75,-261.88 903.75,-230.12 731.75,-230.12"/>
<text xml:space="preserve" text-anchor="start" x="766.38" y="-244.43" font-family="Inter, Segoe UI, sans-serif" font-size="9.00" fill="#fcd34d">signal &#160;</text>
<text xml:space="preserve" text-anchor="start" x="795.62" y="-244.43" font-family="Inter, Segoe UI, sans-serif" font-size="11.00" fill="#e2e8f0">gestureRawXY</text>
<polygon fill="#3f301e" stroke="none" points="731.75,-198.38 731.75,-230.12 903.75,-230.12 903.75,-198.38 731.75,-198.38"/>
<polygon fill="none" stroke="#475569" points="731.75,-198.38 731.75,-230.12 903.75,-230.12 903.75,-198.38 731.75,-198.38"/>
<text xml:space="preserve" text-anchor="start" x="744.25" y="-212.68" font-family="Inter, Segoe UI, sans-serif" font-size="9.00" fill="#fcd34d">signal &#160;</text>
<text xml:space="preserve" text-anchor="start" x="773.5" y="-212.68" font-family="Inter, Segoe UI, sans-serif" font-size="11.00" fill="#e2e8f0">divertedButtonPressed</text>
<polygon fill="#3f301e" stroke="none" points="731.75,-166.62 731.75,-198.38 903.75,-198.38 903.75,-166.62 731.75,-166.62"/>
<polygon fill="none" stroke="#475569" points="731.75,-166.62 731.75,-198.38 903.75,-198.38 903.75,-166.62 731.75,-166.62"/>
<text xml:space="preserve" text-anchor="start" x="748" y="-180.93" font-family="Inter, Segoe UI, sans-serif" font-size="9.00" fill="#fcd34d">signal &#160;</text>
<text xml:space="preserve" text-anchor="start" x="777.25" y="-180.93" font-family="Inter, Segoe UI, sans-serif" font-size="11.00" fill="#e2e8f0">thumbWheelRotation</text>
</g>
<!-- AR&#45;&gt;PD -->
<g id="edge7" class="edge">
<title>AR:e&#45;&gt;PD:w</title>
<path fill="none" stroke="#fcd34d" stroke-dasharray="5,2" d="M523.9,-95.65C636.97,-106.36 608.22,-277.75 730.75,-277.75"/>
<polygon fill="#fcd34d" stroke="#fcd34d" points="524.16,-92.16 514.01,-95.19 523.84,-99.15 524.16,-92.16"/>
<text xml:space="preserve" text-anchor="start" x="586.5" y="-254.24" font-family="Inter, Segoe UI, sans-serif" font-size="10.00" fill="#94a3b8">per&#45;device wiring</text>
</g>
<!-- DF -->
<g id="node4" class="node">
<title>DF</title>
<polygon fill="#334155" stroke="none" points="362.62,-394.38 362.62,-487.62 509.88,-487.62 509.88,-394.38 362.62,-394.38"/>
<polygon fill="#334155" stroke="none" points="362.62,-457.88 362.62,-487.62 509.88,-487.62 509.88,-457.88 362.62,-457.88"/>
<text xml:space="preserve" text-anchor="start" x="396.88" y="-471.18" font-family="Inter, Segoe UI, sans-serif" font-weight="bold" font-size="11.00" fill="#f1f5f9">DeviceFetcher</text>
<polygon fill="#1e3a2f" stroke="none" points="362.62,-426.12 362.62,-457.88 509.88,-457.88 509.88,-426.12 362.62,-426.12"/>
<polygon fill="none" stroke="#475569" points="362.62,-426.12 362.62,-457.88 509.88,-457.88 509.88,-426.12 362.62,-426.12"/>
<text xml:space="preserve" text-anchor="start" x="370.62" y="-440.43" font-family="Inter, Segoe UI, sans-serif" font-size="9.00" fill="#6ee7b7">signal &#160;</text>
<text xml:space="preserve" text-anchor="start" x="399.88" y="-440.43" font-family="Inter, Segoe UI, sans-serif" font-size="11.00" fill="#e2e8f0">descriptorsUpdated</text>
<polygon fill="#1e3a2f" stroke="none" points="362.62,-394.38 362.62,-426.12 509.88,-426.12 509.88,-394.38 362.62,-394.38"/>
<polygon fill="none" stroke="#475569" points="362.62,-394.38 362.62,-426.12 509.88,-426.12 509.88,-394.38 362.62,-394.38"/>
<text xml:space="preserve" text-anchor="start" x="396.88" y="-408.68" font-family="Inter, Segoe UI, sans-serif" font-size="9.00" fill="#6ee7b7">slot &#160;</text>
<text xml:space="preserve" text-anchor="start" x="416.38" y="-408.68" font-family="Inter, Segoe UI, sans-serif" font-size="11.00" fill="#e2e8f0">fetchForPid</text>
</g>
<!-- DF&#45;&gt;AR -->
<g id="edge6" class="edge">
<title>DF:w&#45;&gt;AR:w</title>
<path fill="none" stroke="#6ee7b7" stroke-dasharray="5,2" d="M361.62,-442C184.89,-442 179.54,-52.9 348.61,-36.18"/>
<polygon fill="#6ee7b7" stroke="#6ee7b7" points="348.67,-39.68 358.49,-35.7 348.33,-32.69 348.67,-39.68"/>
<text xml:space="preserve" text-anchor="start" x="214" y="-333.88" font-family="Inter, Segoe UI, sans-serif" font-size="10.00" fill="#94a3b8">reloads registry</text>
</g>
<!-- DMGR&#45;&gt;DF -->
<g id="edge5" class="edge">
<title>DMGR:w&#45;&gt;DF:e</title>
<path fill="none" stroke="#fcd34d" d="M730,-32.38C654.33,-32.38 629.85,-61.98 586.5,-124 519.23,-220.25 575.25,-273.85 529.5,-382 525.66,-391.09 525.31,-400.42 521.28,-405.75"/>
<polygon fill="#fcd34d" stroke="#fcd34d" points="520.06,-402.47 512.26,-409.65 522.83,-408.89 520.06,-402.47"/>
</g>
</g>
</svg>
