<?xml version="1.0" encoding="UTF-8" standalone="no"?>
<!DOCTYPE svg PUBLIC "-//W3C//DTD SVG 1.1//EN"
 "http://www.w3.org/Graphics/SVG/1.1/DTD/svg11.dtd">
<!-- Generated by graphviz version 14.1.5 (0)
 -->
<!-- Title: G Pages: 1 -->
<svg width="568pt" height="1152pt"
 viewBox="0.00 0.00 568.00 1152.00" xmlns="http://www.w3.org/2000/svg" xmlns:xlink="http://www.w3.org/1999/xlink">
<g id="graph0" class="graph" transform="scale(1 1) rotate(0) translate(4 1148)">
<title>G</title>
<polygon fill="#0f172a" stroke="none" points="-4,4 -4,-1148 564.16,-1148 564.16,4 -4,4"/>
<g id="clust1" class="cluster">
<title>cluster_svc</title>
<path fill="#475569" stroke="#475569" d="M20,-416C20,-416 189.25,-416 189.25,-416 195.25,-416 201.25,-422 201.25,-428 201.25,-428 201.25,-686 201.25,-686 201.25,-692 195.25,-698 189.25,-698 189.25,-698 20,-698 20,-698 14,-698 8,-692 8,-686 8,-686 8,-428 8,-428 8,-422 14,-416 20,-416"/>
<text xml:space="preserve" text-anchor="start" x="64.12" y="-683.6" font-family="Times,serif" font-weight="bold" font-size="12.00" fill="#c4b5fd"> &#160;Services &#160;</text>
</g>
<g id="clust3" class="cluster">
<title>cluster_core</title>
<path fill="#475569" stroke="#475569" d="M372.25,-8C372.25,-8 532.5,-8 532.5,-8 538.5,-8 544.5,-14 544.5,-20 544.5,-20 544.5,-1124 544.5,-1124 544.5,-1130 538.5,-1136 532.5,-1136 532.5,-1136 372.25,-1136 372.25,-1136 366.25,-1136 360.25,-1130 360.25,-1124 360.25,-1124 360.25,-20 360.25,-20 360.25,-14 366.25,-8 372.25,-8"/>
<text xml:space="preserve" text-anchor="start" x="423.88" y="-1121.6" font-family="Times,serif" font-weight="bold" font-size="12.00" fill="#fcd34d"> &#160;Core &#160;</text>
</g>
<!-- DCH -->
<g id="node1" class="node">
<title>DCH</title>
<polygon fill="#334155" stroke="none" points="18.25,-423.62 18.25,-580.38 191,-580.38 191,-423.62 18.25,-423.62"/>
<polygon fill="#334155" stroke="none" points="18.25,-550.62 18.25,-580.38 191,-580.38 191,-550.62 18.25,-550.62"/>
<text xml:space="preserve" text-anchor="start" x="36.75" y="-563.92" font-family="Inter, Segoe UI, sans-serif" font-weight="bold" font-size="11.00" fill="#f1f5f9">DeviceCommandHandler</text>
<polygon fill="#3f3a5e" stroke="none" points="18.25,-518.88 18.25,-550.62 191,-550.62 191,-518.88 18.25,-518.88"/>
<polygon fill="none" stroke="#475569" points="18.25,-518.88 18.25,-550.62 191,-550.62 191,-518.88 18.25,-518.88"/>
<text xml:space="preserve" text-anchor="start" x="66.38" y="-533.17" font-family="Inter, Segoe UI, sans-serif" font-size="9.00" fill="#c4b5fd">slot &#160;</text>
<text xml:space="preserve" text-anchor="start" x="85.88" y="-533.17" font-family="Inter, Segoe UI, sans-serif" font-size="11.00" fill="#e2e8f0">requestDpi</text>
<polygon fill="#3f3a5e" stroke="none" points="18.25,-487.12 18.25,-518.88 191,-518.88 191,-487.12 18.25,-487.12"/>
<polygon fill="none" stroke="#475569" points="18.25,-487.12 18.25,-518.88 191,-518.88 191,-487.12 18.25,-487.12"/>
<text xml:space="preserve" text-anchor="start" x="48.38" y="-501.43" font-family="Inter, Segoe UI, sans-serif" font-size="9.00" fill="#c4b5fd">slot &#160;</text>
<text xml:space="preserve" text-anchor="start" x="67.88" y="-501.43" font-family="Inter, Segoe UI, sans-serif" font-size="11.00" fill="#e2e8f0">requestSmartShift</text>
<polygon fill="#3f3a5e" stroke="none" points="18.25,-455.38 18.25,-487.12 191,-487.12 191,-455.38 18.25,-455.38"/>
<polygon fill="none" stroke="#475569" points="18.25,-455.38 18.25,-487.12 191,-487.12 191,-455.38 18.25,-455.38"/>
<text xml:space="preserve" text-anchor="start" x="44.25" y="-469.68" font-family="Inter, Segoe UI, sans-serif" font-size="9.00" fill="#c4b5fd">slot &#160;</text>
<text xml:space="preserve" text-anchor="start" x="63.75" y="-469.68" font-family="Inter, Segoe UI, sans-serif" font-size="11.00" fill="#e2e8f0">requestScrollConfig</text>
<polygon fill="#3f3a5e" stroke="none" points="18.25,-423.62 18.25,-455.38 191,-455.38 191,-423.62 18.25,-423.62"/>
<polygon fill="none" stroke="#475569" points="18.25,-423.62 18.25,-455.38 191,-455.38 191,-423.62 18.25,-423.62"/>
<text xml:space="preserve" text-anchor="start" x="26.25" y="-437.93" font-family="Inter, Segoe UI, sans-serif" font-size="9.00" fill="#c4b5fd">slot &#160;</text>
<text xml:space="preserve" text-anchor="start" x="45.75" y="-437.93" font-family="Inter, Segoe UI, sans-serif" font-size="11.00" fill="#e2e8f0">requestThumbWheelMode</text>
</g>
<!-- DS -->
<g id="node6" class="node">
<title>DS</title>
<polygon fill="#334155" stroke="none" points="380.12,-16.12 380.12,-605.88 524.62,-605.88 524.62,-16.12 380.12,-16.12"/>
<polygon fill="#334155" stroke="none" points="380.12,-574.38 380.12,-605.88 524.62,-605.88 524.62,-574.38 380.12,-574.38"/>
<text xml:space="preserve" text-anchor="start" x="402.88" y="-587.58" font-family="Inter, Segoe UI, sans-serif" font-weight="bold" font-size="14.00" fill="#f1f5f9">DeviceSession</text>
<polygon fill="#334155" stroke="none" points="380.12,-548.12 380.12,-574.38 524.62,-574.38 524.62,-548.12 380.12,-548.12"/>
<text xml:space="preserve" text-anchor="start" x="430.25" y="-559.88" font-family="Inter, Segoe UI, sans-serif" font-weight="bold" font-size="10.00" fill="#c4b5fd">Methods</text>
<polygon fill="#3f3a5e" stroke="none" points="380.12,-518.38 380.12,-548.12 524.62,-548.12 524.62,-518.38 380.12,-518.38"/>
<polygon fill="none" stroke="#8b5cf6" points="380.12,-518.38 380.12,-548.12 524.62,-548.12 524.62,-518.38 380.12,-518.38"/>
<text xml:space="preserve" text-anchor="start" x="387.12" y="-529.12" font-family="Inter, Segoe UI, sans-serif" font-size="11.00" fill="#e2e8f0">setDPI</text>
<polygon fill="#3f3a5e" stroke="none" points="380.12,-488.62 380.12,-518.38 524.62,-518.38 524.62,-488.62 380.12,-488.62"/>
<polygon fill="none" stroke="#8b5cf6" points="380.12,-488.62 380.12,-518.38 524.62,-518.38 524.62,-488.62 380.12,-488.62"/>
<text xml:space="preserve" text-anchor="start" x="387.12" y="-499.38" font-family="Inter, Segoe UI, sans-serif" font-size="11.00" fill="#e2e8f0">setSmartShift</text>
<polygon fill="#3f3a5e" stroke="none" points="380.12,-458.88 380.12,-488.62 524.62,-488.62 524.62,-458.88 380.12,-458.88"/>
<polygon fill="none" stroke="#8b5cf6" points="380.12,-458.88 380.12,-488.62 524.62,-488.62 524.62,-458.88 380.12,-458.88"/>
<text xml:space="preserve" text-anchor="start" x="387.12" y="-469.62" font-family="Inter, Segoe UI, sans-serif" font-size="11.00" fill="#e2e8f0">setScrollConfig</text>
<polygon fill="#3f3a5e" stroke="none" points="380.12,-429.12 380.12,-458.88 524.62,-458.88 524.62,-429.12 380.12,-429.12"/>
<polygon fill="none" stroke="#8b5cf6" points="380.12,-429.12 380.12,-458.88 524.62,-458.88 524.62,-429.12 380.12,-429.12"/>
<text xml:space="preserve" text-anchor="start" x="387.12" y="-439.88" font-family="Inter, Segoe UI, sans-serif" font-size="11.00" fill="#e2e8f0">setThumbWheelMode</text>
<polygon fill="#3f3a5e" stroke="none" points="380.12,-399.38 380.12,-429.12 524.62,-429.12 524.62,-399.38 380.12,-399.38"/>
<polygon fill="none" stroke="#8b5cf6" points="380.12,-399.38 380.12,-429.12 524.62,-429.12 524.62,-399.38 380.12,-399.38"/>
<text xml:space="preserve" text-anchor="start" x="387.12" y="-410.12" font-family="Inter, Segoe UI, sans-serif" font-size="11.00" fill="#e2e8f0">divertButton</text>
<polygon fill="#3f3a5e" stroke="none" points="380.12,-369.62 380.12,-399.38 524.62,-399.38 524.62,-369.62 380.12,-369.62"/>
<polygon fill="none" stroke="#8b5cf6" points="380.12,-369.62 380.12,-399.38 524.62,-399.38 524.62,-369.62 380.12,-369.62"/>
<text xml:space="preserve" text-anchor="start" x="387.12" y="-380.38" font-family="Inter, Segoe UI, sans-serif" font-size="11.00" fill="#e2e8f0">cycleDpi</text>
<polygon fill="#3f3a5e" stroke="none" points="380.12,-339.88 380.12,-369.62 524.62,-369.62 524.62,-339.88 380.12,-339.88"/>
<polygon fill="none" stroke="#8b5cf6" points="380.12,-339.88 380.12,-369.62 524.62,-369.62 524.62,-339.88 380.12,-339.88"/>
<text xml:space="preserve" text-anchor="start" x="387.12" y="-350.62" font-family="Inter, Segoe UI, sans-serif" font-size="11.00" fill="#e2e8f0">enumerateAndSetup</text>
<polygon fill="#3f3a5e" stroke="none" points="380.12,-310.12 380.12,-339.88 524.62,-339.88 524.62,-310.12 380.12,-310.12"/>
<polygon fill="none" stroke="#8b5cf6" points="380.12,-310.12 380.12,-339.88 524.62,-339.88 524.62,-310.12 380.12,-310.12"/>
<text xml:space="preserve" text-anchor="start" x="387.12" y="-320.88" font-family="Inter, Segoe UI, sans-serif" font-size="11.00" fill="#e2e8f0">flushCommandProcessor</text>
<polygon fill="#3f3a5e" stroke="none" points="380.12,-280.38 380.12,-310.12 524.62,-310.12 524.62,-280.38 380.12,-280.38"/>
<polygon fill="none" stroke="#8b5cf6" points="380.12,-280.38 380.12,-310.12 524.62,-310.12 524.62,-280.38 380.12,-280.38"/>
<text xml:space="preserve" text-anchor="start" x="387.12" y="-291.12" font-family="Inter, Segoe UI, sans-serif" font-size="11.00" fill="#e2e8f0">handleNotification</text>
<polygon fill="#334155" stroke="none" points="380.12,-254.12 380.12,-280.38 524.62,-280.38 524.62,-254.12 380.12,-254.12"/>
<text xml:space="preserve" text-anchor="start" x="434.75" y="-265.88" font-family="Inter, Segoe UI, sans-serif" font-weight="bold" font-size="10.00" fill="#c4b5fd">Signals</text>
<polygon fill="#3f3a5e" stroke="none" points="380.12,-224.38 380.12,-254.12 524.62,-254.12 524.62,-224.38 380.12,-224.38"/>
<polygon fill="none" stroke="#8b5cf6" points="380.12,-224.38 380.12,-254.12 524.62,-254.12 524.62,-224.38 380.12,-224.38"/>
<text xml:space="preserve" text-anchor="start" x="387.12" y="-235.12" font-family="Inter, Segoe UI, sans-serif" font-size="11.00" fill="#e2e8f0">setupComplete</text>
<polygon fill="#3f3a5e" stroke="none" points="380.12,-194.62 380.12,-224.38 524.62,-224.38 524.62,-194.62 380.12,-194.62"/>
<polygon fill="none" stroke="#8b5cf6" points="380.12,-194.62 380.12,-224.38 524.62,-224.38 524.62,-194.62 380.12,-194.62"/>
<text xml:space="preserve" text-anchor="start" x="387.12" y="-205.38" font-family="Inter, Segoe UI, sans-serif" font-size="11.00" fill="#e2e8f0">disconnected</text>
<polygon fill="#3f3a5e" stroke="none" points="380.12,-164.88 380.12,-194.62 524.62,-194.62 524.62,-164.88 380.12,-164.88"/>
<polygon fill="none" stroke="#8b5cf6" points="380.12,-164.88 380.12,-194.62 524.62,-194.62 524.62,-164.88 380.12,-164.88"/>
<text xml:space="preserve" text-anchor="start" x="387.12" y="-175.62" font-family="Inter, Segoe UI, sans-serif" font-size="11.00" fill="#e2e8f0">gestureRawXY</text>
<polygon fill="#3f3a5e" stroke="none" points="380.12,-135.12 380.12,-164.88 524.62,-164.88 524.62,-135.12 380.12,-135.12"/>
<polygon fill="none" stroke="#8b5cf6" points="380.12,-135.12 380.12,-164.88 524.62,-164.88 524.62,-135.12 380.12,-135.12"/>
<text xml:space="preserve" text-anchor="start" x="387.12" y="-145.88" font-family="Inter, Segoe UI, sans-serif" font-size="11.00" fill="#e2e8f0">divertedButtonPressed</text>
<polygon fill="#3f3a5e" stroke="none" points="380.12,-105.38 380.12,-135.12 524.62,-135.12 524.62,-105.38 380.12,-105.38"/>
<polygon fill="none" stroke="#8b5cf6" points="380.12,-105.38 380.12,-135.12 524.62,-135.12 524.62,-105.38 380.12,-105.38"/>
<text xml:space="preserve" text-anchor="start" x="387.12" y="-116.12" font-family="Inter, Segoe UI, sans-serif" font-size="11.00" fill="#e2e8f0">thumbWheelRotation</text>
<polygon fill="#3f3a5e" stroke="none" points="380.12,-75.62 380.12,-105.38 524.62,-105.38 524.62,-75.62 380.12,-75.62"/>
<polygon fill="none" stroke="#8b5cf6" points="380.12,-75.62 380.12,-105.38 524.62,-105.38 524.62,-75.62 380.12,-75.62"/>
<text xml:space="preserve" text-anchor="start" x="387.12" y="-86.38" font-family="Inter, Segoe UI, sans-serif" font-size="11.00" fill="#e2e8f0">batteryChanged</text>
<polygon fill="#3f3a5e" stroke="none" points="380.12,-45.88 380.12,-75.62 524.62,-75.62 524.62,-45.88 380.12,-45.88"/>
<polygon fill="none" stroke="#8b5cf6" points="380.12,-45.88 380.12,-75.62 524.62,-75.62 524.62,-45.88 380.12,-45.88"/>
<text xml:space="preserve" text-anchor="start" x="387.12" y="-56.62" font-family="Inter, Segoe UI, sans-serif" font-size="11.00" fill="#e2e8f0">smartShiftChanged</text>
<polygon fill="#3f3a5e" stroke="none" points="380.12,-16.12 380.12,-45.88 524.62,-45.88 524.62,-16.12 380.12,-16.12"/>
<polygon fill="none" stroke="#8b5cf6" points="380.12,-16.12 380.12,-45.88 524.62,-45.88 524.62,-16.12 380.12,-16.12"/>
<text xml:space="preserve" text-anchor="start" x="387.12" y="-26.88" font-family="Inter, Segoe UI, sans-serif" font-size="11.00" fill="#e2e8f0">currentDPIChanged</text>
</g>
<!-- DCH&#45;&gt;DS -->
<g id="edge1" class="edge">
<title>DCH:e&#45;&gt;DS:w</title>
<path fill="none" stroke="#c4b5fd" stroke-dasharray="5,2" d="M192,-534.75C271.27,-534.75 293.87,-533.39 367.83,-533.26"/>
<polygon fill="#c4b5fd" stroke="#c4b5fd" points="367.61,-536.76 377.61,-533.25 367.61,-529.76 367.61,-536.76"/>
<text xml:space="preserve" text-anchor="start" x="273.62" y="-537.35" font-family="Inter, Segoe UI, sans-serif" font-size="10.00" fill="#94a3b8">call</text>
</g>
<!-- DCH&#45;&gt;DS -->
<g id="edge2" class="edge">
<title>DCH:e&#45;&gt;DS:w</title>
<path fill="none" stroke="#c4b5fd" stroke-dasharray="5,2" d="M192,-503C271.27,-503 293.87,-503.45 367.83,-503.5"/>
<polygon fill="#c4b5fd" stroke="#c4b5fd" points="367.61,-507 377.61,-503.5 367.61,-500 367.61,-507"/>
</g>
<!-- DCH&#45;&gt;DS -->
<g id="edge3" class="edge">
<title>DCH:e&#45;&gt;DS:w</title>
<path fill="none" stroke="#c4b5fd" stroke-dasharray="5,2" d="M192,-471.25C271.28,-471.25 293.87,-473.52 367.83,-473.73"/>
<polygon fill="#c4b5fd" stroke="#c4b5fd" points="367.61,-477.23 377.61,-473.75 367.62,-470.23 367.61,-477.23"/>
</g>
<!-- DCH&#45;&gt;DS -->
<g id="edge4" class="edge">
<title>DCH:e&#45;&gt;DS:w</title>
<path fill="none" stroke="#c4b5fd" stroke-dasharray="5,2" d="M192,-439.5C271.29,-439.5 293.85,-443.59 367.83,-443.97"/>
<polygon fill="#c4b5fd" stroke="#c4b5fd" points="367.6,-447.47 377.61,-444 367.62,-440.47 367.6,-447.47"/>
</g>
<!-- PO -->
<g id="node2" class="node">
<title>PO</title>
<polygon fill="#334155" stroke="none" points="16,-605.25 16,-666.75 193.25,-666.75 193.25,-605.25 16,-605.25"/>
<polygon fill="#334155" stroke="none" points="16,-637 16,-666.75 193.25,-666.75 193.25,-637 16,-637"/>
<text xml:space="preserve" text-anchor="start" x="51.38" y="-650.3" font-family="Inter, Segoe UI, sans-serif" font-weight="bold" font-size="11.00" fill="#f1f5f9">ProfileOrchestrator</text>
<polygon fill="#3f3a5e" stroke="none" points="16,-605.25 16,-637 193.25,-637 193.25,-605.25 16,-605.25"/>
<polygon fill="none" stroke="#475569" points="16,-605.25 16,-637 193.25,-637 193.25,-605.25 16,-605.25"/>
<text xml:space="preserve" text-anchor="start" x="24" y="-619.55" font-family="Inter, Segoe UI, sans-serif" font-size="9.00" fill="#c4b5fd">method &#160;</text>
<text xml:space="preserve" text-anchor="start" x="60.75" y="-619.55" font-family="Inter, Segoe UI, sans-serif" font-size="11.00" fill="#e2e8f0">applyProfileToHardware</text>
</g>
<!-- PO&#45;&gt;DS -->
<g id="edge5" class="edge">
<title>PO:e&#45;&gt;DS:w</title>
<path fill="none" stroke="#c4b5fd" stroke-dasharray="5,2" d="M194.25,-621.12C281.32,-621.12 287.73,-540.64 367.87,-533.72"/>
<polygon fill="#c4b5fd" stroke="#c4b5fd" points="367.77,-537.23 377.61,-533.31 367.47,-530.24 367.77,-537.23"/>
</g>
<!-- CP -->
<g id="node3" class="node">
<title>CP</title>
<polygon fill="#334155" stroke="none" points="391,-1043.25 391,-1104.75 513.75,-1104.75 513.75,-1043.25 391,-1043.25"/>
<polygon fill="#334155" stroke="none" points="391,-1075 391,-1104.75 513.75,-1104.75 513.75,-1075 391,-1075"/>
<text xml:space="preserve" text-anchor="start" x="398" y="-1088.3" font-family="Inter, Segoe UI, sans-serif" font-weight="bold" font-size="11.00" fill="#f1f5f9">CommandProcessor</text>
<polygon fill="#3f301e" stroke="none" points="391,-1043.25 391,-1075 513.75,-1075 513.75,-1043.25 391,-1043.25"/>
<polygon fill="none" stroke="#475569" points="391,-1043.25 391,-1075 513.75,-1075 513.75,-1043.25 391,-1043.25"/>
<text xml:space="preserve" text-anchor="start" x="411.5" y="-1057.55" font-family="Inter, Segoe UI, sans-serif" font-size="9.00" fill="#fcd34d">method &#160;</text>
<text xml:space="preserve" text-anchor="start" x="448.25" y="-1057.55" font-family="Inter, Segoe UI, sans-serif" font-size="11.00" fill="#e2e8f0">enqueue</text>
</g>
<!-- FD -->
<g id="node4" class="node">
<title>FD</title>
<polygon fill="#334155" stroke="none" points="394,-956.25 394,-1017.75 510.75,-1017.75 510.75,-956.25 394,-956.25"/>
<polygon fill="#334155" stroke="none" points="394,-988 394,-1017.75 510.75,-1017.75 510.75,-988 394,-988"/>
<text xml:space="preserve" text-anchor="start" x="401" y="-1001.3" font-family="Inter, Segoe UI, sans-serif" font-weight="bold" font-size="11.00" fill="#f1f5f9">FeatureDispatcher</text>
<polygon fill="#3f301e" stroke="none" points="394,-956.25 394,-988 510.75,-988 510.75,-956.25 394,-956.25"/>
<polygon fill="none" stroke="#475569" points="394,-956.25 394,-988 510.75,-988 510.75,-956.25 394,-956.25"/>
<text xml:space="preserve" text-anchor="start" x="421.62" y="-970.55" font-family="Inter, Segoe UI, sans-serif" font-size="9.00" fill="#fcd34d">method &#160;</text>
<text xml:space="preserve" text-anchor="start" x="458.38" y="-970.55" font-family="Inter, Segoe UI, sans-serif" font-size="11.00" fill="#e2e8f0">send</text>
</g>
<!-- TR -->
<g id="node5" class="node">
<title>TR</title>
<polygon fill="#334155" stroke="none" points="412.88,-869.25 412.88,-930.75 491.88,-930.75 491.88,-869.25 412.88,-869.25"/>
<polygon fill="#334155" stroke="none" points="412.88,-901 412.88,-930.75 491.88,-930.75 491.88,-901 412.88,-901"/>
<text xml:space="preserve" text-anchor="start" x="425.75" y="-914.3" font-family="Inter, Segoe UI, sans-serif" font-weight="bold" font-size="11.00" fill="#f1f5f9">Transport</text>
<polygon fill="#3f301e" stroke="none" points="412.88,-869.25 412.88,-901 491.88,-901 491.88,-869.25 412.88,-869.25"/>
<polygon fill="none" stroke="#475569" points="412.88,-869.25 412.88,-901 491.88,-901 491.88,-869.25 412.88,-869.25"/>
<text xml:space="preserve" text-anchor="start" x="420.88" y="-883.55" font-family="Inter, Segoe UI, sans-serif" font-size="9.00" fill="#fcd34d">method &#160;</text>
<text xml:space="preserve" text-anchor="start" x="457.62" y="-883.55" font-family="Inter, Segoe UI, sans-serif" font-size="11.00" fill="#e2e8f0">write</text>
</g>
<!-- DS&#45;&gt;CP -->
<g id="edge6" class="edge">
<title>DS:e&#45;&gt;CP:w</title>
<path fill="none" stroke="#fcd34d" stroke-dasharray="5,2" d="M525.62,-533.25C557.91,-533.25 544.95,-580.8 524.62,-605.88 455.66,-690.95 347.54,-583.73 288.35,-675.88 242.78,-746.82 296.83,-1032.99 378.8,-1057.46"/>
<polygon fill="#fcd34d" stroke="#fcd34d" points="378.1,-1060.89 388.5,-1058.9 379.13,-1053.97 378.1,-1060.89"/>
<text xml:space="preserve" text-anchor="start" x="259.75" y="-678.88" font-family="Inter, Segoe UI, sans-serif" font-size="10.00" fill="#94a3b8">enqueue</text>
</g>
<!-- DS&#45;&gt;FD -->
<g id="edge7" class="edge">
<title>DS:e&#45;&gt;FD:w</title>
<path fill="none" stroke="#fcd34d" stroke-dasharray="5,2" d="M525.62,-503.5C571.13,-503.5 553.21,-570.47 524.62,-605.88 477.58,-664.15 414.22,-591.07 360.25,-643 257.11,-742.23 246.51,-960.23 381.69,-971.66"/>
<polygon fill="#fcd34d" stroke="#fcd34d" points="381.35,-975.15 391.49,-972.06 381.64,-968.15 381.35,-975.15"/>
<text xml:space="preserve" text-anchor="start" x="269.5" y="-878.88" font-family="Inter, Segoe UI, sans-serif" font-size="10.00" fill="#94a3b8">send</text>
</g>
<!-- DS&#45;&gt;TR -->
<g id="edge8" class="edge">
<title>DS:e&#45;&gt;TR:w</title>
<path fill="none" stroke="#fcd34d" stroke-dasharray="5,2" d="M534.24,-302.57C557.4,-347.2 544.15,-581.53 524.62,-605.88 477.77,-664.3 419.86,-597.65 360.25,-643 305.31,-684.79 303.67,-712.93 286.85,-779.88 269.16,-850.32 339.24,-885.12 411.88,-885.12"/>
<polygon fill="#fcd34d" stroke="#fcd34d" points="536.66,-300.04 526.78,-296.23 532.13,-305.37 536.66,-300.04"/>
<text xml:space="preserve" text-anchor="start" x="258.25" y="-782.88" font-family="Inter, Segoe UI, sans-serif" font-size="10.00" fill="#94a3b8">reports in</text>
</g>
<!-- PD -->
<g id="node7" class="node">
<title>PD</title>
<polygon fill="#334155" stroke="none" points="368.25,-655.75 368.25,-844.25 536.5,-844.25 536.5,-655.75 368.25,-655.75"/>
<polygon fill="#334155" stroke="none" points="368.25,-814.5 368.25,-844.25 536.5,-844.25 536.5,-814.5 368.25,-814.5"/>
<text xml:space="preserve" text-anchor="start" x="412.25" y="-827.8" font-family="Inter, Segoe UI, sans-serif" font-weight="bold" font-size="11.00" fill="#f1f5f9">PhysicalDevice</text>
<polygon fill="#3f301e" stroke="none" points="368.25,-782.75 368.25,-814.5 536.5,-814.5 536.5,-782.75 368.25,-782.75"/>
<polygon fill="none" stroke="#475569" points="368.25,-782.75 368.25,-814.5 536.5,-814.5 536.5,-782.75 368.25,-782.75"/>
<text xml:space="preserve" text-anchor="start" x="396.5" y="-797.05" font-family="Inter, Segoe UI, sans-serif" font-size="9.00" fill="#fcd34d">slot &#160;</text>
<text xml:space="preserve" text-anchor="start" x="416" y="-797.05" font-family="Inter, Segoe UI, sans-serif" font-size="11.00" fill="#e2e8f0">onSetupComplete</text>
<polygon fill="#3f301e" stroke="none" points="368.25,-751 368.25,-782.75 536.5,-782.75 536.5,-751 368.25,-751"/>
<polygon fill="none" stroke="#475569" points="368.25,-751 368.25,-782.75 536.5,-782.75 536.5,-751 368.25,-751"/>
<text xml:space="preserve" text-anchor="start" x="398.38" y="-765.3" font-family="Inter, Segoe UI, sans-serif" font-size="9.00" fill="#fcd34d">slot &#160;</text>
<text xml:space="preserve" text-anchor="start" x="417.88" y="-765.3" font-family="Inter, Segoe UI, sans-serif" font-size="11.00" fill="#e2e8f0">onGestureRawXY</text>
<polygon fill="#3f301e" stroke="none" points="368.25,-719.25 368.25,-751 536.5,-751 536.5,-719.25 368.25,-719.25"/>
<polygon fill="none" stroke="#475569" points="368.25,-719.25 368.25,-751 536.5,-751 536.5,-719.25 368.25,-719.25"/>
<text xml:space="preserve" text-anchor="start" x="376.25" y="-733.55" font-family="Inter, Segoe UI, sans-serif" font-size="9.00" fill="#fcd34d">slot &#160;</text>
<text xml:space="preserve" text-anchor="start" x="395.75" y="-733.55" font-family="Inter, Segoe UI, sans-serif" font-size="11.00" fill="#e2e8f0">onDivertedButtonPressed</text>
<polygon fill="#3f301e" stroke="none" points="368.25,-687.5 368.25,-719.25 536.5,-719.25 536.5,-687.5 368.25,-687.5"/>
<polygon fill="none" stroke="#475569" points="368.25,-687.5 368.25,-719.25 536.5,-719.25 536.5,-687.5 368.25,-687.5"/>
<text xml:space="preserve" text-anchor="start" x="379.62" y="-701.8" font-family="Inter, Segoe UI, sans-serif" font-size="9.00" fill="#fcd34d">slot &#160;</text>
<text xml:space="preserve" text-anchor="start" x="399.12" y="-701.8" font-family="Inter, Segoe UI, sans-serif" font-size="11.00" fill="#e2e8f0">onThumbWheelRotation</text>
<polygon fill="#3f301e" stroke="none" points="368.25,-655.75 368.25,-687.5 536.5,-687.5 536.5,-655.75 368.25,-655.75"/>
<polygon fill="none" stroke="#475569" points="368.25,-655.75 368.25,-687.5 536.5,-687.5 536.5,-655.75 368.25,-655.75"/>
<text xml:space="preserve" text-anchor="start" x="394.62" y="-670.05" font-family="Inter, Segoe UI, sans-serif" font-size="9.00" fill="#fcd34d">slot &#160;</text>
<text xml:space="preserve" text-anchor="start" x="414.12" y="-670.05" font-family="Inter, Segoe UI, sans-serif" font-size="11.00" fill="#e2e8f0">onBatteryChanged</text>
</g>
<!-- DS&#45;&gt;PD -->
<g id="edge9" class="edge">
<title>DS:e&#45;&gt;PD:w</title>
<path fill="none" stroke="#fcd34d" d="M357.16,-793.23C339.17,-769.91 351.85,-678.02 368.25,-655.75 411.49,-597 481.51,-664.72 524.62,-605.88 548.7,-573.02 566.36,-239.25 525.62,-239.25"/>
<polygon fill="#fcd34d" stroke="#fcd34d" points="355.45,-796.28 365.92,-797.91 358.75,-790.11 355.45,-796.28"/>
</g>
<!-- DS&#45;&gt;PD -->
<g id="edge10" class="edge">
<title>DS:e&#45;&gt;PD:w</title>
<path fill="none" stroke="#fcd34d" d="M356.04,-765.36C321.54,-754.84 341.45,-692.08 368.25,-655.75 411.55,-597.04 481.52,-664.73 524.62,-605.88 552.6,-567.68 572.97,-179.75 525.62,-179.75"/>
<polygon fill="#fcd34d" stroke="#fcd34d" points="355.37,-768.8 365.75,-766.67 356.31,-761.86 355.37,-768.8"/>
</g>
<!-- DS&#45;&gt;PD -->
<g id="edge11" class="edge">
<title>DS:e&#45;&gt;PD:w</title>
<path fill="none" stroke="#fcd34d" d="M356.03,-732.74C336.01,-722.35 349.96,-680.45 368.25,-655.75 411.66,-597.12 481.52,-664.73 524.62,-605.88 554.55,-565.01 576.28,-150 525.62,-150"/>
<polygon fill="#fcd34d" stroke="#fcd34d" points="355.26,-736.15 365.77,-734.81 356.72,-729.31 355.26,-736.15"/>
</g>
<!-- DS&#45;&gt;PD -->
<g id="edge12" class="edge">
<title>DS:e&#45;&gt;PD:w</title>
<path fill="none" stroke="#fcd34d" d="M356.87,-698.61C350.87,-689.33 358.65,-668.6 368.25,-655.75 411.9,-597.3 481.53,-664.73 524.62,-605.88 556.5,-562.34 579.58,-120.25 525.62,-120.25"/>
<polygon fill="#fcd34d" stroke="#fcd34d" points="355.33,-701.75 365.87,-702.74 358.25,-695.39 355.33,-701.75"/>
</g>
<!-- DS&#45;&gt;PD -->
<g id="edge13" class="edge">
<title>DS:e&#45;&gt;PD:w</title>
<path fill="none" stroke="#fcd34d" d="M365.27,-660.58C366.12,-658.83 367.16,-657.14 368.25,-655.75 413.12,-598.23 481.53,-664.73 524.62,-605.88 558.45,-559.67 582.89,-90.5 525.62,-90.5"/>
<polygon fill="#fcd34d" stroke="#fcd34d" points="361.77,-660.91 366.98,-670.14 368.66,-659.67 361.77,-660.91"/>
</g>
</g>
</svg>
